<?xml version="1.0" encoding="UTF-8"?><svg id="Layer_2" xmlns="http://www.w3.org/2000/svg" viewBox="0 0 231.98 647.5"><defs><style>.cls-1{fill:none;}</style></defs><g id="Layer_2-2"><path class="cls-1" d="m184.68,540.04v-14.49h47.29v-38.92s0,0,0,0c-3.1.42-12.43,1.62-18,1.66-2.74.54-13.09,5.01-20.68,8.29-19.94,8.61-29.96,12.65-35.85,12.65-.43,0-.84-.02-1.23-.06-3.92-.44-7.62-.85-62.38-61.1-13.69-15.06-27.19-30.18-37.01-41.24,5.06,32.84,14.94,86.74,22.26,111.58v-56.87h16.56v82.72c4.3,4.76,9.45,10.32,15.18,16.32v-65.22h16.56v82.07c4.92,4.86,10.01,9.77,15.18,14.57v-66.95h16.56v81.7c5.16,4.38,10.26,8.48,15.18,12.13v-46.26h16.56v57.12c1.63.89,3.21,1.7,4.74,2.4,2.91.51,6.56.76,10.44.84v-37.2h16.56v36.78c3.48-.22,6.45-.47,8.36-.67l1.04-.04v-91.82h-47.29Z"/><path class="cls-1" d="m24.3,314.72c-8.3,8.9-11.36,23.84-9.11,44.41,5.3,48.4,21.13,79.19,34.41,91.49-5.33-29.65-9.25-56.19-9.8-60.77-2.1-17.47-2.15-62.93-2.07-82.32l-.09-.67c-3.99,1.04-9.02,3.24-13.33,7.86Z"/><path class="cls-1" d="m229.93,16.56c-56.53,0-107.42,13.75-143.28,38.71-31.93,22.22-50.24,52.26-50.24,82.42,0,19.46,3.37,53.78,7.01,85.18l11.23-105.18,175.44,51.93,1.89-.48V16.57c-.68,0-1.36-.01-2.05-.01Z"/><path class="cls-1" d="m158.61,494.59c5.27-1.09,19.9-7.41,28.93-11.31,16.25-7.02,22.27-9.47,26.11-9.47,4.59,0,14.04-1.2,17.29-1.66l1.02-.15h0s0-156.57,0-156.57h-11.71l2.6,11.18-.62,2.23c-9.87,35.25-23.84,87.29-25.07,96.53,1.57,3.5,9.35,12.64,17.29,20.25l-11.18,12.77c-14.75-14.13-22.4-24.85-22.72-31.89-.26-5.67,8.35-38.92,16.83-70.07l-89.5,9.86c-10.35,0-18.74-8.39-18.74-18.74v-28c0-.18.02-.36.03-.55l-31.23-15.11c-3.63-1.76-5.15-6.13-3.39-9.76,1.76-3.63,6.13-5.15,9.76-3.39l30.97,14.98c3.33-3.04,7.75-4.91,12.61-4.91h91.94l-4.51-19.37-66.75-13.48-34.19,14.75-6.31-16.01,38.77-16.72,82.05,16.57,7.98,34.27h15.11v-114.59l-2.21.57-160.77-47.59-16.69,156.38-.03,3.17c0,.62-.51,56.51,1.29,82.52,44.15,50.23,94.5,105.35,105.05,113.31Z"/><path d="m230.94,631.89c-1.91.2-4.88.45-8.36.67v7.7h-16.56v-7.28c-3.87-.08-7.52-.33-10.44-.84-1.53-.7-3.11-1.51-4.74-2.4v5.93h-16.56v-16.79c-4.91-3.65-10.01-7.74-15.18-12.13v2.97h-16.56v-17.72c-5.16-4.8-10.26-9.71-15.18-14.57v2.61h-16.56v-19.46c-5.73-5.99-10.88-11.56-15.18-16.32v1.95h-16.56v-27.81c-7.31-24.84-17.19-78.74-22.26-111.58-8.98-10.11-14.88-16.83-15-16.97l10.88-9.56c.29.33.57.65.86.98-1.81-26.01-1.3-81.9-1.29-82.52l.03-3.17-6.98,65.43-7.59-53.5c-.08,19.39-.03,64.85,2.07,82.32.55,4.58,4.47,31.12,9.8,60.77-13.28-12.3-29.1-43.08-34.41-91.49-2.25-20.57.81-35.51,9.11-44.41,4.31-4.62,9.35-6.82,13.33-7.86l-1.67-11.79c-.05-.33-.17-1.23-.36-2.58-6.31,1.4-14.6,4.65-21.67,12.12-11.47,12.11-15.89,30.99-13.13,56.1,7.13,65.06,31.9,101.81,52.38,109.04,6.17,31.78,13.45,62.56,19.54,70.17,7.9,9.88,77.35,87.95,117.76,105.8l.73.32.78.16c12.85,2.57,35.35.6,39.74.17.07,0,.17.02.26.02v-14.54l-1.04.04Z"/><path d="m156.22,509.17c.39.04.8.06,1.23.06,5.89,0,15.91-4.04,35.85-12.65,7.59-3.28,17.94-7.75,20.68-8.29,5.57-.04,14.9-1.24,18-1.66,0,0,0,0,0,0v-14.63h0s-1.02.15-1.02.15c-3.26.46-12.71,1.66-17.29,1.66-3.84,0-9.87,2.45-26.11,9.47-9.03,3.9-23.67,10.22-28.93,11.31-10.55-7.95-60.9-63.07-105.05-113.31.18,2.61.39,4.92.62,6.84.57,4.71,1.48,11.15,2.64,18.71,9.82,11.06,23.33,26.18,37.01,41.24,54.75,60.25,58.46,60.66,62.38,61.1Zm57.52-20.87h-.07.07Zm-54.09,6.99h0s0,0,0,0Z"/><path d="m53.57,381.28c-.29-.33-.58-.65-.86-.98l-10.88,9.56c.12.14,6.02,6.86,15,16.97-1.16-7.55-2.08-13.99-2.64-18.71-.23-1.92-.43-4.23-.62-6.84Z"/><rect x="184.68" y="525.55" width="47.29" height="14.49"/><path d="m79.08,461.54v56.87c1.85,6.28,3.54,10.71,4.94,12.46,2.14,2.67,6.2,7.39,11.62,13.39v-82.72h-16.56Z"/><path d="m79.08,518.41v27.81h16.56v-1.95c-5.42-6-9.48-10.72-11.62-13.39-1.4-1.75-3.09-6.18-4.94-12.46Z"/><path d="m110.82,495.36v65.22c5.13,5.37,10.71,11.07,16.56,16.85v-82.07h-16.56Z"/><path d="m110.82,560.58v19.46h16.56v-2.61c-5.85-5.78-11.43-11.49-16.56-16.85Z"/><path d="m142.55,525.05v66.95c5.5,5.11,11.06,10.09,16.56,14.75v-81.7h-16.56Z"/><path d="m142.55,609.72h16.56v-2.97c-5.5-4.66-11.06-9.64-16.56-14.75v17.72Z"/><path d="m174.29,572.62v46.26c5.85,4.34,11.43,8.05,16.56,10.86v-57.12h-16.56Z"/><path d="m174.29,635.67h16.56v-5.93c-5.12-2.81-10.71-6.52-16.56-10.86v16.79Z"/><path d="m206.02,595.77v37.2c5.57.12,11.59-.11,16.56-.42v-36.78h-16.56Z"/><path d="m206.02,632.98v7.28h16.56v-7.7c-4.97.31-10.99.54-16.56.42Z"/><path d="m37.64,306.86l.09.67c0-.23,0-.47,0-.7-.03,0-.07.02-.1.03Z"/><path d="m45.43,291.46l6.92.38-.04,3.75,16.69-156.38,160.77,47.59,2.21-.57v-17.09l-1.89.48L54.64,117.69l-11.23,105.18c-3.64-31.41-7.01-65.72-7.01-85.18,0-30.16,18.31-60.2,50.24-82.42,35.87-24.96,86.75-38.71,143.28-38.71.69,0,1.37.01,2.05.01V.01c-.68,0-1.36-.01-2.05-.01-60.75,0-113.57,14.41-152.74,41.68-36.44,25.36-57.34,60.36-57.34,96.01,0,40.19,13.31,137.32,15.75,154.79,5.49-1.22,9.48-1.04,9.83-1.02Z"/><path d="m37.64,306.86s.07-.02.1-.03c0,.22,0,.47,0,.7l7.59,53.5,6.98-65.43.04-3.75-6.92-.38c-.35-.02-4.33-.2-9.83,1.02.19,1.36.32,2.25.36,2.58l1.67,11.79Z"/><path d="m205.16,301.27v-.45h11.71l-7.98-34.27-82.05-16.57-38.77,16.72,6.31,16.01,34.19-14.75,66.75,13.48,4.51,19.37h1.95c1.22,0,2.34.16,3.39.45Z"/><path d="m217.8,318.92c1.01,3.99,1.42,8.34,1.74,11.73,1,10.72-7.42,25.3-17.77,25.3l-4.39.48c-8.48,31.15-17.09,64.4-16.83,70.07.33,7.04,7.97,17.76,22.72,31.89l11.18-12.77c-7.94-7.61-15.72-16.75-17.29-20.25,1.23-9.23,15.2-61.28,25.07-96.53l.62-2.23-2.6-11.18h-3.46c.4,1.23.72,2.41.99,3.48Z"/><path d="m199.82,300.83h-91.94c-4.86,0-9.28,1.87-12.61,4.91l-30.97-14.98c-3.63-1.76-8-.24-9.76,3.39-1.76,3.63-.24,8,3.39,9.76l31.23,15.11c0,.18-.03.36-.03.55v28c0,10.35,8.39,18.74,18.74,18.74l89.5-9.86c2.92-10.73,5.83-21.21,8.35-30.23l-5.91-25.38Z"/><polygon points="220.27 315.44 231.98 315.44 231.98 300.83 216.86 300.83 220.27 315.44"/><path d="m205.16,300.83v.45c-1.05-.29-2.17-.45-3.39-.45h-1.95l5.91,25.38c-2.52,9.02-5.43,19.5-8.35,30.23l4.39-.48c10.35,0,18.76-14.58,17.77-25.3-.32-3.39-.73-7.74-1.74-11.73-.27-1.07-.6-2.25-.99-3.48h3.46l-3.4-14.61h-11.71Z"/></g></svg>