<?xml version="1.0" encoding="utf-8"?>
<!-- Generator: Adobe Illustrator 27.2.0, SVG Export Plug-In . SVG Version: 6.00 Build 0)  -->
<svg version="1.1" xmlns="http://www.w3.org/2000/svg" xmlns:xlink="http://www.w3.org/1999/xlink" x="0px" y="0px"
	 viewBox="0 0 816 1131.8" style="enable-background:new 0 0 816 1131.8;" xml:space="preserve">
<style type="text/css">
	.st0{fill:#0000FF;}
	.st1{fill:#FFFFFF;}
	.st2{fill:#F15A24;}
	.st3{fill:#FFDD00;}
	.st4{fill:#32D8FF;}
	.st5{fill:url(#SVGID_1_);}
	.st6{fill:#BF4080;}
	.st7{fill-rule:evenodd;clip-rule:evenodd;fill:#38BDF8;}
	.st8{fill:url(#SVGID_00000134213102002890440570000016598506671411380910_);}
	.st9{fill:url(#SVGID_00000116957157080646718820000001955535168954907541_);}
	.st10{fill:#E6CE1D;}
	.st11{fill:#61B5FB;}
</style>
<g id="Logos">
	<g>
		<polygon class="st0" points="571.6,583.9 565,583.9 565.6,590.6 568.3,591.4 571,590.6 		"/>
		<polygon class="st1" points="566.2,585.2 570.3,585.2 570,589.4 568.3,589.9 566.6,589.4 566.4,588.1 567.3,588.1 567.3,588.8 
			568.3,589 569.2,588.8 569.3,587.7 567.4,587.7 567.3,586.9 569.4,586.9 569.4,586 566.3,586 		"/>
		<polygon points="566.8,582.4 566.8,582.9 567.4,582.9 567.4,583.3 566.3,583.3 566.3,582 567.4,582 567.4,582.4 		"/>
		<polygon points="567.6,582 567.6,582.3 568.2,583 567.6,583 567.6,583.3 568.8,583.3 568.8,583 568.2,582.4 568.8,582.4 
			568.8,582 		"/>
		<polygon points="569,582 569,582.3 569.6,583 569,583 569,583.3 570.2,583.3 570.2,583 569.6,582.4 570.2,582.4 570.2,582 		"/>
	</g>
	<g>
		<polygon class="st2" points="518.4,601.4 511.5,601.4 512.2,608.4 515,609.2 517.8,608.4 		"/>
		<polygon class="st1" points="513.1,605.9 514,605.9 514,606.6 515,606.8 516,606.6 516.1,605.5 513.1,605.5 512.8,602.8 
			517.2,602.8 517.1,603.7 513.8,603.7 513.8,604.6 517,604.6 516.8,607.3 515,607.8 513.2,607.3 		"/>
		<path d="M513.1,600.8v-0.5h-0.3v0.5h-0.4v-1.3h0.4v0.5h0.3v-0.5h0.4v1.3H513.1z"/>
		<path d="M514.9,599.9h-0.4v0.9h-0.4v-0.9h-0.4v-0.4h1.2V599.9z"/>
		<path d="M517.8,600.8h-1v-1.3h0.4v0.9h0.6V600.8z"/>
		<polygon points="515.1,600.8 515.1,599.5 515.6,599.5 515.8,600 516.1,599.5 516.6,599.5 516.6,600.8 516.1,600.8 516.1,600.2 
			515.9,600.6 515.5,600.2 515.5,600.8 		"/>
	</g>
	<g>
		<path d="M512.9,572.9c0.6,0.4,1.3,0,1.3,0c0.3-0.2,0.4-0.5,0.4-0.7c0-0.6,0-2.5,0-2.5l-0.7,0c0,0,0,1.6,0,2.2c0,0.1,0,0.5-0.3,0.5
			c-0.3,0-0.5-0.3-0.5-0.3l-0.6,0.3C512.6,572.5,512.7,572.8,512.9,572.9z"/>
		<path d="M516.2,572.5c0,0-0.5,0-0.7-0.4l-0.5,0.3c0,0,0.2,0.7,1.3,0.7c0,0,1,0,1-1c0,0,0.1-0.5-0.6-0.9c-0.1-0.1-0.2-0.1-0.5-0.2
			c-0.1,0-0.3-0.1-0.4-0.3c-0.1-0.2,0-0.4,0.1-0.4c0.1-0.1,0.3,0,0.4,0.1c0,0,0.2,0.2,0.2,0.2l0.5-0.3c0,0-0.2-0.6-1-0.6
			c0,0-0.9,0-0.9,0.8c0,0-0.1,0.6,0.6,1c0.5,0.2,0.9,0.2,0.9,0.6C516.6,572.2,516.6,572.5,516.2,572.5z"/>
		<path class="st3" d="M510.7,566.6v7.1h7.2v-7.1H510.7z"/>
		<g>
			<path d="M516.6,572.2c0-0.4-0.4-0.4-0.9-0.6c-0.7-0.4-0.6-1-0.6-1c0.1-0.8,0.9-0.8,0.9-0.8c0.8,0,1,0.6,1,0.6l-0.5,0.3
				c0,0-0.1-0.1-0.2-0.2c-0.1-0.1-0.3-0.1-0.4-0.1c-0.1,0.1-0.3,0.3-0.1,0.4c0.1,0.1,0.3,0.2,0.4,0.3c0.3,0.1,0.4,0.2,0.5,0.2
				c0.7,0.3,0.6,0.9,0.6,0.9c0,0.9-1,1-1,1c-1.1,0-1.3-0.7-1.3-0.7l0.5-0.3c0.2,0.4,0.7,0.4,0.7,0.4
				C516.6,572.5,516.6,572.2,516.6,572.2z M513.1,572.2c0,0,0.1,0.3,0.5,0.3c0.3,0,0.3-0.4,0.3-0.5c0-0.6,0-2.2,0-2.2l0.7,0
				c0,0,0,1.9,0,2.5c0,0.2-0.1,0.5-0.4,0.7c0,0-0.6,0.4-1.3,0c-0.2-0.1-0.4-0.4-0.4-0.4L513.1,572.2z"/>
		</g>
	</g>
	<g>
		<g>
			<circle class="st4" cx="543.7" cy="551.8" r="1"/>
			<path class="st4" d="M548.2,551c-0.3-0.2-0.6-0.4-1.1-0.6c-0.2-0.1-0.4-0.1-0.6-0.2c0.1-0.2,0.1-0.4,0.1-0.6
				c0.1-0.5,0.1-0.9,0-1.2c0-0.3-0.2-0.6-0.5-0.8s-0.7-0.1-1,0c-0.3,0.1-0.7,0.3-1,0.6c-0.2,0.1-0.3,0.3-0.5,0.5
				c-0.2-0.2-0.3-0.3-0.5-0.5c-0.4-0.3-0.7-0.5-1.1-0.6c-0.3-0.1-0.6-0.1-1,0.1c-0.3,0.2-0.4,0.6-0.5,0.8c0,0.3,0,0.7,0.1,1.2
				c0,0.2,0.1,0.4,0.1,0.5c-0.2,0-0.4,0.1-0.5,0.2c-0.5,0.2-0.8,0.4-1.1,0.6c-0.2,0.2-0.5,0.5-0.5,0.9c0,0.4,0.3,0.7,0.5,0.9
				c0.3,0.2,0.6,0.4,1.1,0.6c0.2,0.1,0.4,0.1,0.6,0.2c-0.1,0.2-0.1,0.4-0.1,0.6c-0.1,0.5-0.1,0.9,0,1.2c0,0.3,0.2,0.6,0.5,0.8
				c0.2,0.1,0.3,0.1,0.5,0.1c0.2,0,0.4,0,0.5-0.1c0.3-0.1,0.7-0.3,1-0.6c0.2-0.1,0.3-0.3,0.5-0.5c0.2,0.2,0.3,0.3,0.5,0.5
				c0.4,0.3,0.7,0.5,1.1,0.6c0.1,0,0.3,0.1,0.5,0.1c0.2,0,0.3,0,0.5-0.1c0.3-0.2,0.4-0.6,0.5-0.8c0-0.3,0-0.7-0.1-1.2
				c0-0.2-0.1-0.4-0.1-0.5c0.2,0,0.4-0.1,0.5-0.2c0.5-0.2,0.8-0.4,1.1-0.6c0.2-0.2,0.5-0.5,0.5-0.9
				C548.6,551.4,548.4,551.1,548.2,551z M544.5,548.6c0.3-0.3,0.6-0.5,0.9-0.6c0.1,0,0.2-0.1,0.3-0.1c0.1,0,0.1,0,0.2,0.1
				c0.1,0.1,0.2,0.2,0.2,0.5c0,0.3,0,0.6,0,1c0,0.2-0.1,0.4-0.1,0.6c-0.4-0.1-0.8-0.1-1.2-0.2c-0.2-0.3-0.5-0.6-0.7-0.9
				C544.2,548.9,544.4,548.7,544.5,548.6z M545.6,552.4c0.1,0.2,0.2,0.4,0.3,0.6c-0.2,0-0.5,0.1-0.7,0.1c0.1-0.1,0.1-0.2,0.2-0.3
				C545.5,552.6,545.5,552.5,545.6,552.4z M544.9,552.5c-0.1,0.2-0.3,0.5-0.4,0.7c-0.3,0-0.5,0-0.8,0c-0.3,0-0.5,0-0.8,0
				c-0.1-0.2-0.3-0.4-0.4-0.6c-0.1-0.2-0.3-0.5-0.4-0.7c0.1-0.2,0.2-0.5,0.4-0.7c0.1-0.2,0.3-0.5,0.4-0.7c0.3,0,0.5,0,0.8,0
				c0.3,0,0.5,0,0.8,0c0.1,0.2,0.3,0.4,0.4,0.6c0.1,0.2,0.3,0.5,0.4,0.7C545.2,552,545.1,552.3,544.9,552.5z M543.7,554.2
				c-0.1-0.1-0.3-0.3-0.4-0.5c0.1,0,0.2,0,0.4,0c0.1,0,0.3,0,0.4,0C544,553.9,543.9,554.1,543.7,554.2z M542.1,552.8
				c0.1,0.1,0.1,0.2,0.2,0.3c-0.2,0-0.4-0.1-0.7-0.1c0.1-0.2,0.1-0.4,0.2-0.6C541.9,552.6,542,552.7,542.1,552.8z M541.8,551.2
				c-0.1-0.2-0.2-0.4-0.3-0.6c0.2,0,0.5-0.1,0.7-0.1c-0.1,0.1-0.1,0.2-0.2,0.3C542,551,541.9,551.1,541.8,551.2z M543.7,549.4
				c0.1,0.1,0.3,0.3,0.4,0.5c-0.1,0-0.2,0-0.4,0c-0.1,0-0.3,0-0.4,0C543.4,549.7,543.6,549.6,543.7,549.4z M545.4,550.8
				c-0.1-0.1-0.1-0.2-0.2-0.3c0.2,0,0.4,0.1,0.7,0.1c-0.1,0.2-0.1,0.4-0.2,0.6C545.5,551.1,545.4,550.9,545.4,550.8z M541.2,549.6
				c-0.1-0.4-0.1-0.8-0.1-1c0-0.2,0.1-0.4,0.2-0.5c0.1,0,0.1-0.1,0.2-0.1c0.1,0,0.2,0,0.3,0.1c0.3,0.1,0.6,0.3,0.9,0.5
				c0.2,0.1,0.3,0.3,0.5,0.4c-0.2,0.3-0.5,0.6-0.7,0.9c-0.4,0-0.9,0.1-1.2,0.2C541.3,549.9,541.3,549.7,541.2,549.6z M540.5,552.7
				c-0.4-0.1-0.7-0.3-0.9-0.5c-0.2-0.2-0.3-0.3-0.3-0.4s0.1-0.3,0.3-0.4c0.2-0.2,0.5-0.3,0.9-0.5c0.2-0.1,0.3-0.1,0.5-0.2
				c0.1,0.4,0.3,0.7,0.5,1.1c-0.2,0.4-0.3,0.7-0.4,1.1C540.9,552.9,540.7,552.8,540.5,552.7z M542.9,555.1c-0.3,0.3-0.6,0.5-0.9,0.6
				c-0.2,0.1-0.4,0.1-0.5,0c-0.1-0.1-0.2-0.2-0.2-0.5c0-0.3,0-0.6,0-1c0-0.2,0.1-0.4,0.1-0.6c0.4,0.1,0.8,0.1,1.2,0.2
				c0.2,0.3,0.5,0.6,0.7,0.9C543.2,554.8,543.1,554.9,542.9,555.1z M546.2,554.1c0.1,0.4,0.1,0.8,0.1,1c0,0.2-0.1,0.4-0.2,0.5
				c-0.1,0.1-0.3,0.1-0.5,0c-0.3-0.1-0.6-0.3-0.9-0.5c-0.2-0.1-0.3-0.3-0.5-0.4c0.2-0.3,0.5-0.6,0.7-0.9c0.4,0,0.9-0.1,1.2-0.2
				C546.1,553.7,546.1,553.9,546.2,554.1z M547.8,552.3c-0.2,0.2-0.5,0.3-0.9,0.5c-0.2,0.1-0.3,0.1-0.5,0.2
				c-0.1-0.4-0.3-0.7-0.5-1.1c0.2-0.4,0.3-0.7,0.4-1.1c0.2,0.1,0.4,0.1,0.6,0.2c0.4,0.1,0.7,0.3,0.9,0.5c0.2,0.2,0.3,0.3,0.3,0.4
				S548,552.1,547.8,552.3z"/>
		</g>
		<linearGradient id="SVGID_1_" gradientUnits="userSpaceOnUse" x1="540.266" y1="557.6216" x2="547.1599" y2="557.6216">
			<stop  offset="0" style="stop-color:#8500FF"/>
			<stop  offset="9.470098e-02" style="stop-color:#7C17FF"/>
			<stop  offset="0.2931" style="stop-color:#6651FF"/>
			<stop  offset="0.5762" style="stop-color:#42AEFF"/>
			<stop  offset="0.6991" style="stop-color:#32D8FF"/>
			<stop  offset="0.7964" style="stop-color:#32D8FF"/>
			<stop  offset="1" style="stop-color:#32D8FF"/>
		</linearGradient>
		<path class="st5" d="M547.2,557.5v-0.4h-0.3v-0.4h-0.5v0.4h-0.2v0.3c-0.1-0.2-0.3-0.3-0.6-0.3c-0.4,0-0.7,0.3-0.8,0.6v-0.1
			c0-0.4-0.2-0.5-0.7-0.5c-0.5,0-0.7,0.2-0.7,0.5h0.5c0-0.1,0-0.2,0.2-0.2c0.1,0,0.2,0.1,0.2,0.2v0.1c0,0-0.1,0-0.2,0
			c-0.3,0-0.6,0.1-0.7,0.3c0,0,0-0.1,0-0.1c0-0.4-0.2-0.8-0.8-0.8c-0.5,0-0.8,0.3-0.8,0.8c0,0,0,0,0,0c0-0.1-0.1-0.2-0.2-0.2
			c0.1-0.1,0.3-0.2,0.3-0.5c0-0.3-0.2-0.5-0.7-0.5h-1v2h0.6v-0.7h0.2c0.3,0,0.3,0.1,0.3,0.3v0.1c0,0.2,0,0.3,0,0.4h0.5
			c0-0.1,0-0.2,0-0.4v-0.1c0,0,0,0,0,0c0.1,0.3,0.3,0.5,0.7,0.5c0.4,0,0.6-0.2,0.7-0.4c0,0.2,0.2,0.4,0.5,0.4c0.2,0,0.3-0.1,0.4-0.2
			c0,0,0,0.1,0,0.1h0.5c0,0,0-0.3,0-0.4V558c0.1,0.3,0.3,0.6,0.7,0.6c0.5,0,0.7-0.3,0.7-0.6h-0.5c0,0.1-0.1,0.2-0.2,0.2
			c-0.1,0-0.2-0.1-0.2-0.4c0-0.3,0.1-0.4,0.2-0.4c0.1,0,0.2,0.1,0.2,0.2h0.5c0,0,0-0.1,0-0.1h0.2v0.7c0,0.3,0.1,0.5,0.4,0.5
			c0.1,0,0.2,0,0.3,0v-0.3c0,0-0.1,0-0.1,0c-0.1,0-0.1,0-0.1-0.1v-0.6H547.2z M541.1,557.4h-0.3V557h0.3c0.2,0,0.3,0.1,0.3,0.2
			C541.3,557.4,541.3,557.4,541.1,557.4z M542.6,557.4c0.2,0,0.2,0.1,0.2,0.3h-0.4C542.4,557.5,542.5,557.4,542.6,557.4z
			 M542.8,558.1c0,0.1-0.1,0.1-0.2,0.1c-0.2,0-0.2-0.1-0.2-0.3h1c0,0,0,0.1,0,0.2H542.8z M544.2,558c0,0.2,0,0.3-0.2,0.3
			c-0.1,0-0.2-0.1-0.2-0.2c0-0.1,0.1-0.2,0.3-0.2C544.1,557.9,544.2,557.9,544.2,558L544.2,558z"/>
	</g>
	<g>
		<g>
			<path class="st2" d="M517.5,588.9L517.5,588.9c-0.9,0.9-2.4,0.9-3.3,0l0,0c-0.9-0.9-0.9-2.4,0-3.3l0,0c0.9-0.9,2.4-0.9,3.3,0h0
				C518.4,586.5,518.4,588,517.5,588.9z"/>
			<path class="st1" d="M517.2,586.8c-0.1,0-0.1,0-0.2,0l-0.7-0.7c0-0.1,0-0.1,0-0.2c0-0.3-0.2-0.5-0.5-0.5c-0.1,0-0.1,0-0.2,0
				l-0.8-0.8l-0.2,0.2l0.8,0.8c0,0.1,0,0.1,0,0.2c0,0.2,0.1,0.4,0.3,0.4v1.7c-0.2,0.1-0.3,0.2-0.3,0.4c0,0.3,0.2,0.5,0.5,0.5
				c0.3,0,0.5-0.2,0.5-0.5c0-0.2-0.1-0.4-0.3-0.4v-1.7c0,0,0,0,0,0l0.7,0.7c0,0.1,0,0.1,0,0.2c0,0.3,0.2,0.5,0.5,0.5
				c0.3,0,0.5-0.2,0.5-0.5C517.6,587,517.4,586.8,517.2,586.8z"/>
		</g>
		<path d="M519.2,588.6c0-0.3,0.2-0.5,0.6-0.6v0c-0.2-0.1-0.3-0.2-0.3-0.4c0-0.2,0.2-0.4,0.4-0.6c-0.3-0.2-0.4-0.4-0.4-0.7v0
			c0-0.6,0.5-1,1.3-1c0.2,0,0.4,0,0.6,0.1h1v0.6h-0.4c0.1,0.1,0.1,0.2,0.1,0.3v0c0,0.6-0.5,0.9-1.3,0.9c-0.2,0-0.3,0-0.4,0
			c0,0-0.1,0.1-0.1,0.1c0,0.1,0.1,0.1,0.2,0.1h0.9c0.6,0,1,0.2,1,0.8c0,0.6-0.5,1-1.6,1C519.6,589.3,519.2,589,519.2,588.6z
			 M521.3,588.4c0-0.2-0.1-0.2-0.4-0.2h-0.6c-0.1,0-0.2,0.1-0.2,0.2c0,0.2,0.1,0.3,0.6,0.3C521.2,588.7,521.3,588.6,521.3,588.4z
			 M521.1,586.3L521.1,586.3c0-0.4-0.1-0.4-0.4-0.4c-0.2,0-0.4,0.1-0.4,0.4v0c0,0.3,0.1,0.4,0.4,0.4
			C520.9,586.7,521.1,586.6,521.1,586.3z"/>
		<path d="M522.5,584.3h1v0.8h-1V584.3z M522.5,585.4h1v3h-1V585.4z"/>
		<path d="M524.1,587.6v-1.5h-0.4v-0.7h0.4v-0.7h1v0.7h0.6v0.7h-0.6v1.4c0,0.2,0.1,0.3,0.3,0.3c0.1,0,0.2,0,0.3,0v0.6
			c-0.1,0.1-0.3,0.1-0.7,0.1C524.4,588.5,524.1,588.3,524.1,587.6z"/>
	</g>
	<path class="st6" d="M550.8,621.7c-0.2-0.4-0.6-0.7-1-0.8c-0.4-0.1-0.9,0-1.3,0.1c-0.2-0.3-0.3-0.8-0.2-1.2c-0.1-0.2-0.4-0.2-0.5,0
		c-0.2,0.4-0.1,0.4-0.3,0.6c-0.2,0.3-0.3,0.6-0.5,0.8c-0.2-0.1-0.2-0.5-0.2-0.7s0.1-0.4,0.1-0.5c-0.2-0.2-0.5-0.1-0.6,0.1l-1,2.3
		c0,0,0,0,0,0c0,0,0,0,0,0l0,0c0-0.5,0.2-0.9,0.2-1.3c0-0.2-0.3,0.1-0.3-0.1c0.1-0.5-0.3-0.6-0.4-0.6c-0.3,0-0.6,0.3-0.8,0.5
		c-0.2,0.2-0.7,0.5-1,0.6c-0.4-0.3-0.8-0.7-1.1-1c-0.5-0.4-0.5-1.2-0.1-1.7c1-1.2,2.6-1.9,4.1-1.8c0.4,0,0.7,0.4,0.6,0.7
		c0,0.1,0,0.1,0,0.2c-0.4,1.2-1.8,1.9-3,1.5c-0.1,0-0.2-0.1-0.4-0.2c0,0-0.1,0-0.1,0c0,0,0,0,0,0l0.1,0.2c0.2,0.3,1.2,0.6,1.9,0.4
		c0.7-0.2,1.2-0.6,1.7-1.2c0.4-0.4,0.5-1.2,0.1-1.7s-0.9-0.6-1.5-0.6c-0.6,0-1.2,0.2-1.7,0.4c-0.6,0.2-1.1,0.5-1.6,0.8
		c-0.7,0.5-1.6,1.3-1.3,2.1c0.3,0.8,1.2,1.5,2,1.9c-0.8,0.5-1.4,0.6-1.6,1.4c-0.1,0.2,0,0.6,0.1,0.8c0.1,0.2,0.4,0.3,0.6,0.3
		c0.5,0,1-0.3,1.3-0.8c0.3-0.5,0.4-1.1,0.2-1.6l0.5-0.3c-0.2,0.5-0.2,1,0,1.5c0.1,0.2,0.3,0.3,0.4,0.2c0,0,0,0,0,0
		c0.2-0.1,0.3-0.2,0.4-0.4c0.1-0.1,0.2-0.3,0.3-0.5c0,0,0,0,0,0s0,0,0,0c0,0.2,0,0.8,0.3,0.7c0.1,0,0.2-0.1,0.3-0.2
		c0.4-0.6,0.7-1.2,0.9-1.9c0,0,0,0,0,0c0,0,0,0,0,0c0.2,0.3,0.4,0.7,0.2,1c-0.1,0.3-0.3,0.5-0.6,0.7c-0.1,0-0.1,0.2-0.1,0.3
		c0,0,0,0.1,0.1,0.1c0.3,0.2,0.7-0.1,1-0.3c0.3-0.3,0.2-0.8,0.3-1.1c0.1-0.4,0.3-0.6,0.5-0.9c0,0,0,0,0,0c0,0,0,0,0,0l0.3,0.8
		c-0.4,0.2-0.8,1-0.4,1.1c0.3,0.1,0.5,0,0.7-0.3c0.3-0.2,0.3-0.7,0.1-1c0.4,0,0.7-0.1,1.1-0.1c0.3,0,0.8,0.2,0.9,0.5
		c0.1,0.3,0,0.4-0.2,0.8C550.2,623,551.1,622.2,550.8,621.7L550.8,621.7z M542.2,623.6c-0.2,0.1-0.4,0-0.5-0.2
		c-0.1-0.1-0.1-0.3,0-0.4c0.3-0.5,0.7-0.8,1.2-1.1c0,0,0.1,0,0.1,0.1C543.1,622.7,542.8,623.3,542.2,623.6z M545.1,620.9
		c-0.1,0.5-0.3,1.1-0.6,1.7c0,0.1-0.1,0.1-0.2,0c0,0-0.1-0.1-0.1-0.1c-0.1-0.7,0.2-1.3,0.7-1.8c0,0,0.1,0,0.2,0
		C545.1,620.8,545.1,620.9,545.1,620.9z M546.8,622.4c-0.1,0.1-0.2,0.2-0.4,0.2c0,0,0-0.2,0.1-0.2c0.2-0.1,0.3-0.3,0.4-0.4
		c0,0,0,0,0,0c0,0,0,0,0,0C547,622.1,546.9,622.3,546.8,622.4z M548.3,622c-0.1,0.1-0.2,0.2-0.3,0.3c0,0-0.1,0-0.1,0c0,0,0,0,0,0
		c0-0.3,0.2-0.5,0.4-0.6c0,0,0.1,0,0.1,0c0,0,0,0,0,0C548.4,621.8,548.3,621.9,548.3,622L548.3,622z"/>
	<g>
		<g>
			<path d="M527.7,609.1v1h-0.3v-1h-0.1v-0.3h0.1v-0.5h0.3v0.5h0.2v0.3H527.7z"/>
			<path d="M528.9,608.8h0.3v1.2h-0.3v-0.1c-0.1,0.1-0.2,0.2-0.4,0.2c-0.2,0-0.3-0.1-0.4-0.2c-0.1-0.1-0.2-0.3-0.2-0.5
				c0-0.2,0.1-0.3,0.2-0.5s0.2-0.2,0.4-0.2c0.1,0,0.3,0.1,0.4,0.2V608.8z M528.3,609.4c0,0.1,0,0.2,0.1,0.3c0.1,0.1,0.1,0.1,0.2,0.1
				c0.1,0,0.2,0,0.3-0.1c0.1-0.1,0.1-0.2,0.1-0.3c0-0.1,0-0.2-0.1-0.3c-0.1-0.1-0.1-0.1-0.3-0.1c-0.1,0-0.2,0-0.2,0.1
				C528.3,609.2,528.3,609.3,528.3,609.4z"/>
			<path d="M529.4,608.3c0,0,0-0.1,0.1-0.1c0,0,0.1-0.1,0.1-0.1c0.1,0,0.1,0,0.1,0.1c0,0,0.1,0.1,0.1,0.1s0,0.1-0.1,0.1
				c0,0-0.1,0.1-0.1,0.1c-0.1,0-0.1,0-0.1-0.1S529.4,608.3,529.4,608.3z M529.8,608.8v1.2h-0.3v-1.2H529.8z"/>
			<path d="M530.3,607.9v2.1H530v-2.1H530.3z"/>
			<path d="M530.8,608.8l0.3,0.7l0.3-0.8l0.4,0.8l0.3-0.7h0.3l-0.6,1.3l-0.3-0.8l-0.3,0.8l-0.6-1.3H530.8z"/>
			<path d="M532.5,608.3c0,0,0-0.1,0.1-0.1c0,0,0.1-0.1,0.1-0.1c0.1,0,0.1,0,0.1,0.1c0,0,0.1,0.1,0.1,0.1s0,0.1-0.1,0.1
				c0,0-0.1,0.1-0.1,0.1c-0.1,0-0.1,0-0.1-0.1C532.5,608.4,532.5,608.3,532.5,608.3z M532.8,608.8v1.2h-0.3v-1.2H532.8z"/>
			<path d="M533.1,608.8h0.3v0.1c0.1-0.1,0.2-0.1,0.3-0.1c0.1,0,0.3,0,0.3,0.1c0.1,0.1,0.1,0.2,0.1,0.4v0.8h-0.3v-0.7
				c0-0.1,0-0.2-0.1-0.3c0,0-0.1-0.1-0.2-0.1c-0.1,0-0.2,0-0.2,0.1c0,0.1-0.1,0.2-0.1,0.3v0.6h-0.3V608.8z"/>
			<path d="M535.3,607.9h0.3v2.1h-0.3v-0.1c-0.1,0.1-0.2,0.2-0.4,0.2c-0.2,0-0.3-0.1-0.4-0.2c-0.1-0.1-0.2-0.3-0.2-0.5
				c0-0.2,0.1-0.3,0.2-0.5c0.1-0.1,0.2-0.2,0.4-0.2c0.1,0,0.3,0.1,0.4,0.2V607.9z M534.6,609.4c0,0.1,0,0.2,0.1,0.3
				c0.1,0.1,0.1,0.1,0.2,0.1c0.1,0,0.2,0,0.3-0.1c0.1-0.1,0.1-0.2,0.1-0.3c0-0.1,0-0.2-0.1-0.3c-0.1-0.1-0.1-0.1-0.3-0.1
				c-0.1,0-0.2,0-0.2,0.1C534.7,609.2,534.6,609.3,534.6,609.4z"/>
			<path d="M536.8,608.8v0.4c-0.1-0.1-0.1-0.1-0.2-0.2c-0.1,0-0.1,0-0.2,0c-0.1,0-0.2,0-0.3,0.1c-0.1,0.1-0.1,0.2-0.1,0.3
				c0,0.1,0,0.2,0.1,0.3c0.1,0.1,0.2,0.1,0.3,0.1c0.1,0,0.1,0,0.2,0c0.1,0,0.1-0.1,0.2-0.2v0.4c-0.1,0.1-0.2,0.1-0.3,0.1
				c-0.2,0-0.3-0.1-0.5-0.2c-0.1-0.1-0.2-0.3-0.2-0.5s0.1-0.3,0.2-0.5c0.1-0.1,0.3-0.2,0.5-0.2C536.6,608.8,536.7,608.8,536.8,608.8
				z"/>
			<path d="M537.7,609l-0.2,0.1c0-0.1-0.1-0.1-0.1-0.1c0,0,0,0-0.1,0s0,0,0,0.1c0,0,0.1,0.1,0.2,0.1c0.2,0.1,0.3,0.1,0.3,0.2
				s0.1,0.1,0.1,0.2c0,0.1,0,0.2-0.1,0.3c-0.1,0.1-0.2,0.1-0.3,0.1c-0.2,0-0.4-0.1-0.4-0.3l0.2-0.1c0,0.1,0.1,0.1,0.1,0.1
				c0,0,0.1,0,0.1,0c0.1,0,0.1,0,0.1-0.1c0-0.1,0-0.1-0.1-0.1c0,0-0.1,0-0.1,0c0,0-0.1,0-0.1,0c-0.1,0-0.1-0.1-0.2-0.1
				c0-0.1-0.1-0.1-0.1-0.2c0-0.1,0-0.2,0.1-0.3c0.1-0.1,0.2-0.1,0.3-0.1C537.5,608.8,537.7,608.8,537.7,609z"/>
			<path d="M538.7,609l-0.2,0.1c0-0.1-0.1-0.1-0.1-0.1c0,0,0,0-0.1,0c0,0,0,0,0,0.1c0,0,0.1,0.1,0.2,0.1c0.2,0.1,0.3,0.1,0.3,0.2
				s0.1,0.1,0.1,0.2c0,0.1,0,0.2-0.1,0.3c-0.1,0.1-0.2,0.1-0.3,0.1c-0.2,0-0.4-0.1-0.4-0.3l0.2-0.1c0,0.1,0.1,0.1,0.1,0.1
				c0,0,0.1,0,0.1,0c0.1,0,0.1,0,0.1-0.1c0-0.1,0-0.1-0.1-0.1c0,0-0.1,0-0.1,0c0,0-0.1,0-0.1,0c-0.1,0-0.1-0.1-0.2-0.1
				c0-0.1-0.1-0.1-0.1-0.2c0-0.1,0-0.2,0.1-0.3c0.1-0.1,0.2-0.1,0.3-0.1C538.5,608.8,538.6,608.8,538.7,609z"/>
		</g>
		<g>
			<path class="st7" d="M533,603c-0.9,0-1.5,0.5-1.8,1.4c0.4-0.5,0.8-0.7,1.2-0.5c0.3,0.1,0.5,0.3,0.7,0.5c0.3,0.4,0.8,0.8,1.6,0.8
				c0.9,0,1.5-0.5,1.8-1.4c-0.4,0.5-0.8,0.7-1.2,0.5c-0.3-0.1-0.5-0.3-0.7-0.5C534.3,603.4,533.9,603,533,603z"/>
			<path class="st7" d="M531.2,605.1c-0.9,0-1.5,0.5-1.8,1.4c0.4-0.5,0.8-0.7,1.2-0.5c0.3,0.1,0.5,0.3,0.7,0.5
				c0.3,0.4,0.8,0.8,1.6,0.8c0.9,0,1.5-0.5,1.8-1.4c-0.4,0.5-0.8,0.7-1.2,0.5c-0.3-0.1-0.5-0.3-0.7-0.5
				C532.5,605.5,532.1,605.1,531.2,605.1z"/>
		</g>
	</g>
	<g>
		<g>
			<circle cx="573.6" cy="565.5" r="3"/>
			
				<linearGradient id="SVGID_00000116201255660468925420000014504833203694133897_" gradientUnits="userSpaceOnUse" x1="573.7124" y1="583.5774" x2="574.8915" y2="582.1159" gradientTransform="matrix(1 0 0 -1 0 1150.3464)">
				<stop  offset="0" style="stop-color:#FFFFFF"/>
				<stop  offset="1" style="stop-color:#FFFFFF;stop-opacity:0"/>
			</linearGradient>
			<path style="fill:url(#SVGID_00000116201255660468925420000014504833203694133897_);" d="M575.6,567.7l-2.7-3.4h-0.5v2.4h0.4
				v-1.9l2.5,3.2C575.4,567.9,575.5,567.8,575.6,567.7z"/>
			
				<linearGradient id="SVGID_00000181055458991554974260000016889780346609484438_" gradientUnits="userSpaceOnUse" x1="574.6393" y1="586.0767" x2="574.6327" y2="584.3204" gradientTransform="matrix(1 0 0 -1 0 1150.3464)">
				<stop  offset="0" style="stop-color:#FFFFFF"/>
				<stop  offset="1" style="stop-color:#FFFFFF;stop-opacity:0"/>
			</linearGradient>
			
				<rect x="574.4" y="564.3" style="fill:url(#SVGID_00000181055458991554974260000016889780346609484438_);" width="0.4" height="2.4"/>
		</g>
		<g>
			<path d="M567.2,570.8h0.7l0.7,1c0.1,0.2,0.2,0.4,0.3,0.6c0.1,0.2,0.2,0.4,0.3,0.5h0c0-0.2,0-0.4,0-0.6c0-0.2,0-0.4,0-0.6v-0.9
				h0.7v3.1h-0.7l-0.7-1c-0.1-0.2-0.2-0.3-0.3-0.5c-0.1-0.2-0.2-0.4-0.2-0.6h0c0,0.2,0,0.4,0,0.6c0,0.2,0,0.4,0,0.6v1h-0.7V570.8z"
				/>
			<path d="M572.3,572.9h-1.5v0c0,0.2,0.1,0.3,0.2,0.4c0.1,0.1,0.3,0.1,0.5,0.1c0.1,0,0.2,0,0.3,0c0.1,0,0.2-0.1,0.3-0.1l0.1,0.5
				c-0.1,0-0.2,0.1-0.3,0.1s-0.3,0-0.5,0c-0.2,0-0.3,0-0.5-0.1c-0.2,0-0.3-0.1-0.4-0.2c-0.1-0.1-0.2-0.2-0.3-0.4
				c-0.1-0.1-0.1-0.3-0.1-0.5c0-0.2,0-0.4,0.1-0.5c0.1-0.2,0.1-0.3,0.2-0.4c0.1-0.1,0.2-0.2,0.4-0.3c0.1-0.1,0.3-0.1,0.5-0.1
				c0.3,0,0.6,0.1,0.8,0.3c0.2,0.2,0.3,0.5,0.3,0.8V572.9z M571.5,572.4c0-0.1,0-0.1,0-0.2c0-0.1,0-0.1-0.1-0.1c0,0-0.1-0.1-0.1-0.1
				c0,0-0.1,0-0.2,0c-0.1,0-0.2,0-0.3,0.1c-0.1,0.1-0.1,0.2-0.1,0.3L571.5,572.4z"/>
			<path d="M573.9,572.7l0.8,1.2h-0.8l-0.2-0.3l-0.3-0.5l-0.2,0.5l-0.2,0.3h-0.8l0.8-1.2l-0.8-1.1h0.8l0.2,0.3l0.2,0.4l0.2-0.4
				l0.2-0.3h0.8L573.9,572.7z"/>
			<path d="M576.3,572.1h-0.6v1c0,0.1,0,0.2,0.1,0.2c0,0,0.1,0.1,0.2,0.1c0.1,0,0.1,0,0.2,0c0.1,0,0.1,0,0.2-0.1l0.1,0.5
				c-0.1,0-0.1,0.1-0.3,0.1c-0.1,0-0.2,0-0.4,0c-0.3,0-0.5-0.1-0.6-0.2c-0.1-0.1-0.2-0.3-0.2-0.5v-1.1h-0.4v-0.5h0.4v-0.7h0.7v0.7
				h0.6V572.1z"/>
			<path d="M576.5,573.5c0-0.1,0-0.2,0.1-0.3c0.1-0.1,0.2-0.1,0.3-0.1c0.1,0,0.2,0,0.3,0.1c0.1,0.1,0.1,0.2,0.1,0.3
				c0,0.1,0,0.2-0.1,0.3s-0.2,0.1-0.3,0.1c-0.1,0-0.2,0-0.3-0.1C576.5,573.8,576.5,573.6,576.5,573.5z"/>
			<path d="M577.5,571.6h0.7v2c0,0.2,0,0.4,0,0.5s-0.1,0.3-0.2,0.4c-0.1,0.1-0.2,0.3-0.3,0.4s-0.3,0.2-0.5,0.3l-0.3-0.5
				c0.1,0,0.2-0.1,0.2-0.1c0.1-0.1,0.1-0.1,0.2-0.2c0-0.1,0.1-0.2,0.1-0.3c0-0.1,0-0.3,0-0.4V571.6z M577.9,571.1
				c-0.1,0-0.2,0-0.3-0.1c-0.1-0.1-0.1-0.2-0.1-0.3s0-0.2,0.1-0.3c0.1-0.1,0.2-0.1,0.3-0.1c0.1,0,0.2,0,0.3,0.1
				c0.1,0.1,0.1,0.2,0.1,0.3c0,0.1,0,0.2-0.1,0.3C578.1,571.1,578,571.1,577.9,571.1z"/>
			<path d="M580.1,572.2c-0.1,0-0.2-0.1-0.3-0.1c-0.1,0-0.2,0-0.3,0c-0.1,0-0.2,0-0.2,0c-0.1,0-0.1,0.1-0.1,0.1c0,0.1,0,0.1,0.1,0.1
				c0.1,0,0.2,0.1,0.3,0.1l0.1,0c0.2,0.1,0.3,0.1,0.4,0.3c0.1,0.1,0.2,0.3,0.2,0.4c0,0.1,0,0.2-0.1,0.3c0,0.1-0.1,0.2-0.2,0.2
				c-0.1,0.1-0.2,0.1-0.3,0.2c-0.1,0-0.3,0.1-0.4,0.1c-0.2,0-0.3,0-0.4,0c-0.1,0-0.2-0.1-0.4-0.1l0.2-0.5c0.1,0,0.2,0.1,0.3,0.1
				c0.1,0,0.2,0,0.3,0c0.1,0,0.2,0,0.3-0.1c0.1,0,0.1-0.1,0.1-0.1c0,0,0-0.1,0-0.1c0,0,0,0-0.1-0.1c0,0-0.1,0-0.1-0.1
				s-0.1,0-0.2-0.1l-0.2,0c-0.2-0.1-0.3-0.1-0.4-0.3c-0.1-0.1-0.1-0.3-0.1-0.4c0-0.1,0-0.2,0.1-0.3c0-0.1,0.1-0.2,0.2-0.2
				c0.1-0.1,0.2-0.1,0.3-0.2c0.1,0,0.2-0.1,0.4-0.1c0.1,0,0.3,0,0.4,0c0.1,0,0.2,0.1,0.3,0.1L580.1,572.2z"/>
		</g>
	</g>
	<g>
		<circle class="st4" cx="572.4" cy="602.7" r="0.6"/>
		<path class="st4" d="M575.2,602.2c-0.1-0.1-0.1-0.1-0.2-0.2v-2.5c0-0.4-0.3-0.7-0.7-0.7h-3.8c-0.4,0-0.7,0.3-0.7,0.7v2.5
			c-0.1,0-0.2,0.1-0.2,0.2c-0.1,0.1-0.3,0.3-0.3,0.5c0,0.2,0.2,0.4,0.3,0.5c0.1,0.1,0.1,0.1,0.2,0.2v2.5c0,0.4,0.3,0.7,0.7,0.7h3.8
			c0.4,0,0.7-0.3,0.7-0.7v-2.5c0.1,0,0.2-0.1,0.2-0.2c0.1-0.1,0.3-0.3,0.3-0.5C575.5,602.5,575.3,602.3,575.2,602.2z M570.1,599.5
			c0-0.2,0.2-0.4,0.4-0.4h3.8c0.2,0,0.4,0.2,0.4,0.4v2.4c0,0-0.1,0-0.1-0.1c-0.1,0-0.2-0.1-0.4-0.1c0-0.1,0.1-0.3,0.1-0.4
			c0.1-0.3,0.1-0.6,0-0.8c0-0.2-0.1-0.4-0.3-0.5c-0.2-0.1-0.4-0.1-0.6,0c-0.2,0.1-0.4,0.2-0.6,0.4c-0.1,0.1-0.2,0.2-0.3,0.3
			c-0.1-0.1-0.2-0.2-0.3-0.3c-0.2-0.2-0.5-0.3-0.7-0.4c-0.2-0.1-0.4-0.1-0.6,0c-0.2,0.1-0.3,0.4-0.3,0.5c0,0.2,0,0.5,0,0.8
			c0,0.1,0.1,0.2,0.1,0.3c-0.1,0-0.2,0.1-0.3,0.1c0,0-0.1,0-0.1,0.1V599.5z M571.4,602.1c0,0.1-0.1,0.2-0.1,0.2
			c-0.1-0.1-0.1-0.3-0.2-0.4c0.1,0,0.3,0,0.4-0.1C571.4,602,571.4,602.1,571.4,602.1z M571.4,603.4c0,0.1,0.1,0.1,0.1,0.2
			c-0.1,0-0.3,0-0.4-0.1c0-0.1,0.1-0.2,0.1-0.4C571.3,603.2,571.3,603.3,571.4,603.4z M570.9,601.7c0-0.1-0.1-0.2-0.1-0.3
			c-0.1-0.3-0.1-0.5,0-0.6c0-0.1,0.1-0.2,0.1-0.3c0,0,0.1,0,0.1,0c0.1,0,0.1,0,0.2,0c0.2,0.1,0.4,0.2,0.6,0.3
			c0.1,0.1,0.2,0.2,0.3,0.3c-0.1,0.2-0.3,0.4-0.4,0.6C571.5,601.6,571.2,601.6,570.9,601.7z M571,602.8c-0.1,0.2-0.2,0.5-0.3,0.7
			c-0.1,0-0.3-0.1-0.4-0.1c-0.1,0-0.2-0.1-0.3-0.1v-0.9c0.1,0,0.2-0.1,0.3-0.1c0.1,0,0.2-0.1,0.3-0.1
			C570.8,602.3,570.9,602.5,571,602.8z M570.9,604.2c0-0.1,0.1-0.2,0.1-0.4c0.2,0,0.5,0.1,0.8,0.1c0.1,0.2,0.3,0.4,0.5,0.6
			c-0.1,0.1-0.2,0.2-0.3,0.3c-0.2,0.2-0.4,0.3-0.5,0.3c-0.1,0.1-0.2,0.1-0.3,0c-0.1,0-0.1-0.1-0.2-0.3
			C570.8,604.7,570.9,604.4,570.9,604.2z M572.2,603.9c0.1,0,0.1,0,0.2,0c0.1,0,0.2,0,0.3,0c-0.1,0.1-0.2,0.2-0.2,0.3
			C572.3,604.1,572.3,604,572.2,603.9z M572.4,603.6c-0.2,0-0.3,0-0.5,0c-0.1-0.1-0.2-0.3-0.3-0.4c-0.1-0.1-0.2-0.3-0.3-0.4
			c0.1-0.1,0.2-0.3,0.2-0.5c0.1-0.1,0.2-0.3,0.3-0.4c0.2,0,0.3,0,0.5,0c0.2,0,0.3,0,0.5,0c0.1,0.1,0.2,0.3,0.3,0.4
			c0.1,0.1,0.2,0.3,0.3,0.4c-0.1,0.1-0.2,0.3-0.2,0.5c-0.1,0.1-0.2,0.3-0.3,0.4C572.7,603.6,572.6,603.6,572.4,603.6z M573.4,603.3
			c0-0.1,0.1-0.2,0.1-0.2c0.1,0.1,0.1,0.3,0.2,0.4c-0.1,0-0.3,0-0.4,0.1C573.4,603.5,573.4,603.4,573.4,603.3z M573.4,602.1
			c0-0.1-0.1-0.1-0.1-0.2c0.1,0,0.3,0,0.4,0.1c0,0.1-0.1,0.2-0.1,0.4C573.5,602.3,573.5,602.2,573.4,602.1z M573.1,601.6
			c-0.1-0.2-0.3-0.4-0.5-0.6c0.1-0.1,0.2-0.2,0.3-0.3c0.2-0.2,0.4-0.3,0.5-0.3c0.1,0,0.1,0,0.2,0c0,0,0.1,0,0.1,0
			c0.1,0,0.1,0.1,0.2,0.3c0,0.2,0,0.4,0,0.6c0,0.1-0.1,0.2-0.1,0.4C573.6,601.6,573.3,601.6,573.1,601.6z M572.6,601.5
			c-0.1,0-0.1,0-0.2,0c-0.1,0-0.2,0-0.3,0c0.1-0.1,0.2-0.2,0.2-0.3C572.5,601.3,572.5,601.4,572.6,601.5z M573.1,603.9
			c0.3,0,0.5-0.1,0.8-0.1c0,0.1,0.1,0.2,0.1,0.3c0.1,0.3,0.1,0.5,0,0.6c0,0.1-0.1,0.2-0.1,0.3s-0.2,0-0.3,0
			c-0.2-0.1-0.4-0.2-0.6-0.3c-0.1-0.1-0.2-0.2-0.3-0.3C572.8,604.3,572.9,604.1,573.1,603.9z M573.8,602.7c0.1-0.2,0.2-0.5,0.3-0.7
			c0.1,0,0.3,0.1,0.4,0.1c0.1,0,0.2,0.1,0.3,0.1v0.9c-0.1,0-0.2,0.1-0.3,0.1c-0.1,0-0.2,0.1-0.3,0.1
			C574,603.2,573.9,603,573.8,602.7z M569.8,603c-0.1-0.1-0.2-0.2-0.2-0.3c0-0.1,0.1-0.2,0.2-0.3c0,0,0,0,0,0L569.8,603
			C569.8,603,569.8,603,569.8,603z M574.7,605.9c0,0.2-0.2,0.4-0.4,0.4h-3.8c-0.2,0-0.4-0.2-0.4-0.4v-2.4c0,0,0.1,0,0.1,0.1
			c0.1,0,0.2,0.1,0.4,0.1c0,0.1-0.1,0.3-0.1,0.4c-0.1,0.3-0.1,0.6,0,0.8c0,0.2,0.1,0.4,0.3,0.5c0.1,0.1,0.2,0.1,0.3,0.1
			c0.1,0,0.2,0,0.3-0.1c0.2-0.1,0.4-0.2,0.6-0.4c0.1-0.1,0.2-0.2,0.3-0.3c0.1,0.1,0.2,0.2,0.3,0.3c0.2,0.2,0.5,0.3,0.7,0.4
			c0.1,0,0.2,0.1,0.3,0.1c0.1,0,0.2,0,0.3-0.1c0.2-0.1,0.3-0.4,0.3-0.5c0-0.2,0-0.5,0-0.8c0-0.1-0.1-0.2-0.1-0.3
			c0.1,0,0.2-0.1,0.3-0.1c0,0,0.1,0,0.1-0.1V605.9z M575,603C575,603,575,603,575,603l0-0.6c0,0,0,0,0,0c0.1,0.1,0.2,0.2,0.2,0.3
			C575.2,602.8,575.1,602.9,575,603z"/>
		<path d="M570.8,607c0.1,0,0.1,0,0.2,0c0,0,0.1,0,0.1,0.1c0,0,0.1,0.1,0.1,0.1c0,0,0,0.1,0,0.1c0,0.1,0,0.1,0,0.2
			c0,0.1-0.1,0.1-0.2,0.1v0c0,0,0.1,0,0.1,0s0,0,0.1,0.1c0,0,0,0.1,0,0.1c0,0,0,0.1,0,0.1c0,0,0,0,0,0.1c0,0,0,0.1,0,0.1
			c0,0,0,0.1,0,0.1c0,0,0,0,0,0.1h-0.3c0,0,0-0.1,0-0.2c0-0.1,0-0.1,0-0.2c0-0.1,0-0.1-0.1-0.2s-0.1,0-0.2,0h-0.3v0.5h-0.3V607
			H570.8z M570.7,607.6c0.1,0,0.1,0,0.1,0c0,0,0-0.1,0-0.1c0-0.1,0-0.1,0-0.1c0,0-0.1,0-0.1,0h-0.3v0.4H570.7z"/>
		<path d="M571.6,608.1c0,0,0.1,0.1,0.2,0.1c0.1,0,0.1,0,0.1,0c0,0,0.1-0.1,0.1-0.1h0.2c0,0.1-0.1,0.2-0.2,0.2s-0.2,0.1-0.3,0.1
			c-0.1,0-0.1,0-0.2,0c-0.1,0-0.1-0.1-0.1-0.1c0,0-0.1-0.1-0.1-0.2c0-0.1,0-0.1,0-0.2c0-0.1,0-0.1,0-0.2c0-0.1,0.1-0.1,0.1-0.2
			s0.1-0.1,0.1-0.1c0.1,0,0.1,0,0.2,0c0.1,0,0.1,0,0.2,0c0.1,0,0.1,0.1,0.1,0.1c0,0.1,0.1,0.1,0.1,0.2c0,0.1,0,0.1,0,0.2h-0.7
			C571.6,608,571.6,608.1,571.6,608.1z M571.9,607.6c0,0-0.1-0.1-0.1-0.1c0,0-0.1,0-0.1,0s0,0-0.1,0.1s0,0,0,0.1c0,0,0,0,0,0.1h0.4
			C572,607.7,571.9,607.7,571.9,607.6z"/>
		<path d="M572.3,607.7c0-0.1,0-0.1,0-0.2c0,0,0.1-0.1,0.1-0.1c0,0,0.1,0,0.1-0.1c0.1,0,0.1,0,0.2,0c0,0,0.1,0,0.1,0s0.1,0,0.1,0
			c0,0,0.1,0,0.1,0.1c0,0,0,0.1,0,0.1v0.5c0,0,0,0.1,0,0.1c0,0,0,0.1,0,0.1h-0.3c0,0,0,0,0,0c0,0,0,0,0,0c0,0-0.1,0.1-0.1,0.1
			s-0.1,0-0.2,0c0,0-0.1,0-0.1,0c0,0-0.1,0-0.1-0.1s-0.1-0.1-0.1-0.1c0,0,0-0.1,0-0.1c0-0.1,0-0.1,0-0.1s0-0.1,0.1-0.1s0.1,0,0.1,0
			c0,0,0.1,0,0.1,0c0,0,0.1,0,0.1,0c0,0,0.1,0,0.1,0c0,0,0.1,0,0.1,0c0,0,0,0,0-0.1c0,0,0-0.1,0-0.1c0,0,0,0,0,0c0,0,0,0-0.1,0
			c0,0,0,0-0.1,0c0,0-0.1,0-0.1,0s0,0.1,0,0.1H572.3z M572.9,607.9C572.9,607.9,572.9,607.9,572.9,607.9
			C572.9,607.9,572.8,607.9,572.9,607.9c-0.1,0-0.1,0-0.1,0c0,0,0,0-0.1,0c0,0,0,0-0.1,0s0,0,0,0s0,0,0,0c0,0,0,0,0,0.1
			c0,0,0,0,0,0.1c0,0,0,0,0,0s0,0,0,0c0,0,0,0,0.1,0c0,0,0.1,0,0.1,0s0,0,0.1-0.1c0,0,0,0,0-0.1C572.9,608,572.9,608,572.9,607.9
			L572.9,607.9z"/>
		<path d="M573.8,607.6c0,0-0.1,0-0.1,0c0,0,0,0-0.1,0.1c0,0,0,0.1,0,0.1c0,0,0,0.1,0,0.1c0,0,0,0.1,0,0.1c0,0,0,0.1,0,0.1
			c0,0,0,0.1,0.1,0.1c0,0,0.1,0,0.1,0c0.1,0,0.1,0,0.1-0.1s0.1-0.1,0.1-0.1h0.2c0,0.1-0.1,0.2-0.1,0.3c-0.1,0.1-0.2,0.1-0.3,0.1
			c-0.1,0-0.1,0-0.2,0s-0.1-0.1-0.1-0.1c0,0-0.1-0.1-0.1-0.2s0-0.1,0-0.2c0-0.1,0-0.1,0-0.2c0-0.1,0.1-0.1,0.1-0.2s0.1-0.1,0.1-0.1
			s0.1,0,0.2,0c0.1,0,0.1,0,0.2,0c0.1,0,0.1,0,0.1,0.1c0,0,0.1,0.1,0.1,0.1c0,0,0,0.1,0,0.2H574
			C573.9,607.6,573.9,607.6,573.8,607.6z"/>
		<path d="M574.8,607.4v0.2h-0.2v0.5c0,0,0,0.1,0,0.1c0,0,0,0,0.1,0c0,0,0,0,0,0c0,0,0,0,0,0v0.2c0,0,0,0-0.1,0c0,0-0.1,0-0.1,0
			c0,0-0.1,0-0.1,0c0,0-0.1,0-0.1,0c0,0,0,0-0.1-0.1c0,0,0-0.1,0-0.1v-0.6h-0.2v-0.2h0.2v-0.3h0.3v0.3H574.8z"/>
		<path d="M570.2,608.7l0.5,0.9h0v-0.9h0.3v1.3h-0.3l-0.5-0.9h0v0.9h-0.3v-1.3H570.2z"/>
		<path d="M571.2,609.4c0-0.1,0-0.1,0-0.2c0,0,0.1-0.1,0.1-0.1c0,0,0.1,0,0.1-0.1c0.1,0,0.1,0,0.2,0c0,0,0.1,0,0.1,0
			c0,0,0.1,0,0.1,0c0,0,0.1,0,0.1,0.1c0,0,0,0.1,0,0.1v0.5c0,0,0,0.1,0,0.1c0,0,0,0.1,0,0.1h-0.3c0,0,0,0,0,0c0,0,0,0,0,0
			c0,0-0.1,0.1-0.1,0.1c-0.1,0-0.1,0-0.2,0c0,0-0.1,0-0.1,0c0,0-0.1,0-0.1-0.1s-0.1-0.1-0.1-0.1c0,0,0-0.1,0-0.1c0-0.1,0-0.1,0-0.1
			s0-0.1,0.1-0.1s0.1,0,0.1,0c0,0,0.1,0,0.1,0c0,0,0.1,0,0.1,0c0,0,0.1,0,0.1,0c0,0,0.1,0,0.1,0c0,0,0,0,0-0.1c0,0,0-0.1,0-0.1
			c0,0,0,0,0,0c0,0,0,0-0.1,0c0,0,0,0-0.1,0c0,0-0.1,0-0.1,0s0,0.1,0,0.1H571.2z M571.8,609.6C571.8,609.6,571.7,609.6,571.8,609.6
			C571.7,609.6,571.7,609.6,571.8,609.6c-0.1,0-0.1,0-0.1,0c0,0,0,0-0.1,0c0,0,0,0-0.1,0s0,0,0,0c0,0,0,0,0,0c0,0,0,0,0,0.1
			c0,0,0,0,0,0.1c0,0,0,0,0,0s0,0,0,0c0,0,0,0,0.1,0c0,0,0.1,0,0.1,0c0,0,0,0,0.1-0.1s0,0,0-0.1
			C571.8,609.7,571.8,609.7,571.8,609.6L571.8,609.6z"/>
		<path d="M572.7,609.1v0.2h-0.2v0.5c0,0,0,0.1,0,0.1s0,0,0.1,0c0,0,0,0,0,0c0,0,0,0,0,0v0.2c0,0,0,0-0.1,0c0,0-0.1,0-0.1,0
			c0,0-0.1,0-0.1,0c0,0-0.1,0-0.1,0c0,0,0,0-0.1-0.1c0,0,0-0.1,0-0.1v-0.6h-0.2v-0.2h0.2v-0.3h0.3v0.3H572.7z"/>
		<path d="M572.8,608.9v-0.2h0.3v0.2H572.8z M573,609.1v1h-0.3v-1H573z"/>
		<path d="M573.4,610.1l-0.3-1h0.3l0.2,0.7h0l0.2-0.7h0.3l-0.3,1H573.4z"/>
		<path d="M574.4,609.8c0,0,0.1,0.1,0.2,0.1c0.1,0,0.1,0,0.1,0c0,0,0.1-0.1,0.1-0.1h0.2c0,0.1-0.1,0.2-0.2,0.2
			c-0.1,0-0.2,0.1-0.3,0.1c-0.1,0-0.1,0-0.2,0c-0.1,0-0.1-0.1-0.1-0.1c0,0-0.1-0.1-0.1-0.2c0-0.1,0-0.1,0-0.2c0-0.1,0-0.1,0-0.2
			c0-0.1,0.1-0.1,0.1-0.2c0,0,0.1-0.1,0.1-0.1s0.1,0,0.2,0c0.1,0,0.1,0,0.2,0c0.1,0,0.1,0.1,0.1,0.1c0,0.1,0.1,0.1,0.1,0.2
			s0,0.1,0,0.2h-0.7C574.3,609.7,574.3,609.8,574.4,609.8z M574.7,609.3c0,0-0.1-0.1-0.1-0.1c0,0-0.1,0-0.1,0s0,0-0.1,0.1
			c0,0,0,0,0,0.1c0,0,0,0,0,0.1h0.4C574.7,609.4,574.7,609.3,574.7,609.3z"/>
	</g>
</g>
<g id="js_x26_react">
	<g>
		<g>
			<circle class="st10" cx="276.9" cy="586.8" r="40.3"/>
			<path d="M299.2,611.3c0.2-4-4.3-4-8.7-6.3c-6.9-3.6-5.8-9.7-5.8-9.7c0.5-7.6,9.1-8.1,9.1-8.1c7.6-0.3,10,5.6,10,5.6l-4.9,3.1
				c0,0-1.2-1.5-1.6-2c-1.2-1.2-2.8-1.5-4.1-0.8c-1.3,0.7-2.5,2.6-1.5,4.1c0.8,1.2,2.6,2.1,3.8,2.6c2.6,1.2,3.8,1.8,4.8,2.3
				c6.6,3.3,5.8,8.6,5.8,8.6c0,9.2-10,9.7-10,9.7c-10.7,0.3-13.2-6.7-13.2-6.7l5.4-3c2.3,4,6.9,3.8,6.9,3.8
				C299.2,613.9,299.2,611.3,299.2,611.3L299.2,611.3z M266,611c0,0,1.2,3.5,4.4,3.5c3.3,0,3.5-3.6,3.5-4.8c0-6.1,0-22.2,0-22.2h6.7
				c0,0,0,18.3-0.3,24.5c-0.2,1.8-0.5,4.6-3.6,6.6c0,0-6.3,3.8-12.7-0.3c-1.8-1.2-3.5-4-3.5-4L266,611L266,611z"/>
		</g>
		<g>
			<path class="st11" d="M538.4,597c1.8,0.2,3.8,0.2,5.8,0.2s4,0,5.9-0.2c1-1.6,2.1-3.3,3.1-4.9c1-1.8,2-3.6,3-5.4
				c-1-1.8-2-3.5-3-5.3c-1-1.6-2-3.3-3.1-4.8c-1.8-0.2-3.8-0.2-5.8-0.2s-4,0-5.9,0.2c-1,1.6-2.1,3.3-3.1,4.9c-1,1.8-2,3.6-3,5.4
				c1,1.8,2,3.5,3,5.3C536.3,593.9,537.4,595.5,538.4,597z M544.2,579.4c4.1,0,7.4,3.3,7.4,7.4s-3.3,7.4-7.4,7.4s-7.4-3.3-7.4-7.4
				S540.1,579.4,544.2,579.4z"/>
			<path class="st11" d="M558,582.2c0.7-1.5,1.2-3,1.6-4.4c-1.6-0.3-3.1-0.5-4.8-0.7c0.5,0.7,1,1.5,1.5,2.3
				C557,580.2,557.5,581.2,558,582.2L558,582.2z"/>
			<path class="st11" d="M546.8,572.5c-1-1.2-2-2.3-3-3.5c-1,1.2-1.8,2.3-2.8,3.5c1,0,2,0,3,0C545,572.5,546,572.5,546.8,572.5
				L546.8,572.5z"/>
			<path class="st11" d="M558.2,591.1c-0.5,1-1,2-1.6,3c-0.5,0.8-1,1.6-1.5,2.6c1.8-0.2,3.5-0.5,5.1-0.8
				C559.7,594.2,559,592.5,558.2,591.1L558.2,591.1z"/>
			<path class="st11" d="M561,573.9c0.5-1.5,0.8-3,1-4.4c0.5-3.1,0.7-5.8,0.3-7.7c-0.3-1.6-1-2.8-1.8-3.5c-0.5-0.2-1-0.3-1.5-0.3
				c-0.7,0-1.5,0.2-2.3,0.5c-1.8,0.7-4.1,2.1-6.6,4.1c-1.2,1-2.5,2.1-3.6,3.5c1.8,2,3.6,4.3,5.4,6.7
				C555.2,573,558.2,573.4,561,573.9L561,573.9z"/>
			<path class="st11" d="M532,594.4c-0.7-1-1.2-2-1.6-3c-0.7,1.5-1.2,3-1.6,4.4c1.6,0.3,3.1,0.5,4.8,0.7
				C532.8,595.8,532.3,595,532,594.4z"/>
			<path class="st11" d="M533.3,577.1c-1.8,0.2-3.5,0.5-5.1,0.8c0.7,1.5,1.3,3.1,2,4.8c0.5-1,1-2,1.6-3
				C532.2,578.7,532.8,577.9,533.3,577.1L533.3,577.1z"/>
			<path class="st11" d="M561.5,599.5c-3,0.7-5.9,1-9.2,1.3c-1.6,2.3-3.3,4.6-5.1,6.6c1.3,1.2,2.5,2.3,3.6,3.3c2.5,2,4.8,3.3,6.6,4
				c1.6,0.5,3,0.5,4,0c0.8-0.5,1.5-1.6,1.8-3.5c0.3-2,0.2-4.6-0.5-7.7C562.3,602.3,562,600.9,561.5,599.5L561.5,599.5z"/>
			<path class="st11" d="M574.8,583.5c-1.5-1.3-4-2.5-6.7-3.6c-1.3-0.5-2.8-1-4.3-1.3c-0.8,2.6-2,5.3-3.3,7.9
				c1.5,2.8,2.6,5.6,3.6,8.2c1.3-0.3,2.6-0.8,4-1.2c3-1,5.3-2.3,6.7-3.6c1.3-1.2,2-2.3,2-3.3C576.8,585.6,576.3,584.6,574.8,583.5
				L574.8,583.5z"/>
			<path class="st11" d="M526.7,574.1c3-0.7,5.9-1,9.2-1.3c1.6-2.3,3.3-4.6,5.1-6.6c-1.3-1.2-2.5-2.3-3.6-3.3c-2.5-2-4.8-3.3-6.6-4
				c-0.8-0.3-1.6-0.3-2.1-0.3c-0.5,0-1.2,0.2-1.6,0.3c-0.8,0.5-1.5,1.6-1.8,3.5c-0.3,2-0.2,4.6,0.5,7.7
				C526.1,571.3,526.4,572.6,526.7,574.1L526.7,574.1z"/>
			<path class="st11" d="M541.5,601.1c1,1.2,2,2.3,3,3.5c1-1.2,1.8-2.3,2.8-3.5c-1,0-2,0-3,0C543.2,601.1,542.4,601.1,541.5,601.1
				L541.5,601.1z"/>
			<path class="st11" d="M544.2,546.4c-22.2,0-40.3,18.1-40.3,40.3c0,22.2,18.1,40.3,40.3,40.3c22.2,0,40.3-18.1,40.3-40.3
				C584.5,564.6,566.4,546.4,544.2,546.4z M577.4,593c-2,1.6-4.6,3.1-8.1,4.3c-1.3,0.5-2.6,0.8-4,1.3c0.3,1.3,0.8,2.8,1,4.1
				c0.8,3.5,1,6.6,0.7,9.1c-0.3,2-1.2,4.8-3.6,6.3c-1.2,0.8-2.5,1-3.8,1s-2.5-0.3-3.5-0.7c-2.5-0.8-5.1-2.3-7.9-4.6
				c-1.3-1-2.6-2.1-4-3.5c-1.3,1.3-2.5,2.5-3.8,3.6c-2.8,2.3-5.4,4-7.7,4.8c-1,0.3-2.3,0.7-3.6,0.7c-1.2,0-2.3-0.2-3.5-0.8
				c-2.5-1.5-3.5-4.1-3.8-6.1c-0.5-2.5-0.3-5.6,0.3-9.1c0.3-1.5,0.7-3,1-4.6c-1.6-0.3-3.1-0.8-4.4-1.3c-3.5-1.2-6.1-2.6-8.1-4.3
				c-1.6-1.3-3.5-3.5-3.5-6.4s1.8-4.9,3.5-6.4c2-1.6,4.6-3.1,8.1-4.3c1.3-0.5,2.6-0.8,4-1.3c-0.3-1.3-0.8-2.8-1-4.1
				c-0.8-3.5-1-6.6-0.7-9.1c0.3-2,1.2-4.8,3.6-6.3c2.5-1.5,5.3-1,7.2-0.3c2.5,0.8,5.1,2.3,7.9,4.6c1.3,1,2.6,2.1,4,3.5
				c1.3-1.3,2.5-2.5,3.8-3.6c2.8-2.3,5.4-4,7.7-4.8c2-0.7,4.8-1.3,7.2,0.2c2.5,1.5,3.5,4.1,3.8,6.1c0.5,2.5,0.3,5.6-0.3,9.1
				c-0.3,1.5-0.7,3-1,4.6c1.6,0.3,3.1,0.8,4.4,1.3c3.5,1.2,6.1,2.6,8.1,4.3c1.6,1.3,3.5,3.5,3.5,6.4S579.1,591.9,577.4,593
				L577.4,593z"/>
			<path class="st11" d="M524.3,578.7c-1.3,0.3-2.6,0.8-4,1.2c-3,1-5.3,2.3-6.7,3.6c-1.3,1.2-2,2.3-2,3.3s0.7,2.1,2,3.3
				c1.5,1.3,4,2.5,6.7,3.6c1.3,0.5,2.8,1,4.3,1.3c0.8-2.6,2-5.3,3.3-7.9C526.4,584.1,525.3,581.3,524.3,578.7L524.3,578.7z"/>
			<path class="st11" d="M527.2,599.6c-0.5,1.5-0.8,3-1,4.4c-0.5,3.1-0.7,5.8-0.3,7.7c0.3,1.6,1,2.8,1.8,3.5c1,0.5,2.3,0.5,4-0.2
				c1.8-0.7,4.1-2.1,6.6-4.1c1.2-1,2.5-2.1,3.6-3.5c-1.8-2-3.6-4.3-5.4-6.7C533.2,600.6,530.2,600.3,527.2,599.6L527.2,599.6z"/>
		</g>
	</g>
</g>
<g id="Ret">
	<g>
		<rect x="330.7" y="907" width="155.2" height="24"/>
		<path d="M484,755.7c0-9.1-8-36.2-11.4-47.4l-26.2,8c4.2,13.8,8.9,30.9,10,37.5c-3.1,4.4-12.2,13.8-21.1,21.8l18.2,20.5
			C484,768.8,484,759.9,484,755.7z"/>
		<path d="M235,466.1l-64.2,26.5l10.4,25.3l56.6-23.3l110.5,21.3l5.5,22.5H203.6c-17.1,0-31,13.9-31,31v46.3c0,17.1,13.9,31,31,31
			L353,630.3c-14.4,50.5-29.5,105.9-29.1,115.1c0.5,11.1,13.2,28.1,37.6,50.5l18.5-20.2c-13.1-12-26-26.5-28.6-32
			c2-14.6,25.1-97,41.5-152.7l1-3.5l-23.1-95L235,466.1L235,466.1z"/>
		<polygon points="579.6,493.4 635.3,526.7 649.4,503.2 584.2,464.2 441.1,496.9 447.2,523.6 		"/>
		<path d="M462.5,629.6l155.4,17.1c17.1,0,31-13.9,31-31v-46.3c0-17.1-13.9-31-31-31H462.5c-17.1,0-23.7,18.7-26.5,30
			c-1.7,6.6-2.4,13.8-2.9,19.4C431.5,605.5,445.4,629.6,462.5,629.6L462.5,629.6z"/>
		<path d="M763.8,445.1c-6.4-4.5-13.8-6.3-21.3-5.5c7.8-78.5,12.3-124.3,12.3-165.9c0-66.9-33.8-127.2-95-169.7
			c-63-43.7-150.9-66.8-254.2-66.8s-188,23.8-252.8,69c-60.3,42-94.9,99.9-94.9,158.9c0,40.3,8.1,115.2,15.4,174.5
			c-7.2-0.5-14.1,1.3-20.3,5.6c-24.6,17-30.8,66.9-18,144.3c16.1,96.5,44,147.2,65.3,163.1c6.6,34.2,12.8,62.1,12.8,62.1
			c10.2,52.6,22.3,103.5,32.3,116.1c13.1,16.4,128,145.6,194.9,175.1l0.7,0.3c0.3,0.1,0.6,0.2,0.9,0.3l0.8,0.2
			c20.9,4.2,57.1,1.1,65.3,0.3c0.3,0,0.6,0,0.9,0c5,0.5,20.4,1.8,36.4,1.8c10.1,0,20.4-0.5,28.5-2.2l0.8-0.2
			c0.3-0.1,0.6-0.2,0.9-0.3l0.7-0.3c21.4-9.4,47.7-29.1,74-51.9h0.7v-0.6c41.2-35.9,82.4-79.7,104.6-104.5h0.4v-0.4
			c7.6-8.5,13-14.8,15.2-17.6c9.3-11.6,17-38.2,29.9-103.7c4.2-21.4,8.7-46.6,13-75.3l1.1,1.6c21.4-14.7,50.2-65.6,66.6-164.1
			C794.7,512,788.5,462.1,763.8,445.1z M58.7,585.4c-6.2-37-7.7-67-4.7-89.3c3.1-22.5,9.9-29.4,12.6-31.3c1.1-0.8,4.1-2.8,9.9,0.3
			c3.4,26.2,6.2,46.8,7.4,55.8c0,0.3,0,0.5,0,0.8c-0.2,6.3-3.2,86.7,1.3,136.7c1,11.2,2.9,24.7,5.2,39.2
			C79.3,673.8,67.4,637.5,58.7,585.4z M695.2,726c-10.2,62.7-27.9,155.4-39.1,183.1l0,0v-95.9c0-2.5-2-4.5-4.5-4.5h-18.3
			c-2.5,0-4.5,2-4.5,4.5v128.1c0,1.1-0.4,2.2-1.2,3.1c-4.9,5.3-10.3,11.2-16.1,17.3c-2.8,3-7.8,1-7.8-3.1v-88.8c0-2.5-2-4.5-4.5-4.5
			h-18.3c-2.5,0-4.5,2-4.5,4.5v127.5h0.3c-5.8,5.7-11.8,11.4-17.8,17c-2.9,2.7-7.6,0.7-7.6-3.3v-92.6c0-2.5-2-4.5-4.5-4.5h-18.3
			c-2.5,0-4.5,2-4.5,4.5v124.8c0,1.4-0.6,2.6-1.6,3.5c-5.5,4.5-10.9,8.8-16.2,12.8c-3,2.3-7.3,0.1-7.3-3.6v-66.5
			c0-2.5-2-4.5-4.5-4.5h-18.3c-2.5,0-4.5,2-4.5,4.5v89.6c0,1.8-1,3.3-2.6,4.1c-0.4,0.2-0.8,0.3-1.2,0.4c-4.8,0.8-10.6,1.2-16.7,1.3
			c-2.5,0.1-4.6-2-4.6-4.5v-52.5c0-2.5-2-4.5-4.5-4.5h-18.3c-2.5,0-4.5,2-4.5,4.5l0,51.1c0,2.7-2.3,4.8-4.9,4.5
			c-1.4-0.1-2.7-0.2-3.7-0.4l-0.7-0.1l-1.7,0.1c-0.1,0-0.2,0-0.3,0c-2.2,0.2-5.3,0.5-8.8,0.8c-2.6,0.2-4.9-1.9-4.9-4.5l0-51.5
			c0-2.5-2-4.5-4.5-4.5h-18.3c-2.5,0-4.5,2-4.5,4.5v52.3c0,2.6-2.2,4.7-4.7,4.5c-4.4-0.2-8.4-0.6-11.9-1.1c-0.4-0.1-0.8-0.2-1.2-0.4
			c-1.6-0.7-3.2-1.5-4.8-2.4c-1.5-0.8-2.5-2.3-2.5-4v-87.3c0-2.5-2-4.5-4.5-4.5h-18.3c-2.5,0-4.5,2-4.5,4.5v62.9
			c0,3.8-4.3,5.9-7.3,3.6c-5.3-4.1-10.7-8.5-16.2-13.1c-1-0.9-1.6-2.1-1.6-3.5V910.7c0-2.5-2-4.5-4.5-4.5h-18.3
			c-2.5,0-4.5,2-4.5,4.5v95.8c0,4-4.8,6-7.7,3.3c-5.5-5.2-10.8-10.4-16.1-15.6c-0.9-0.9-1.3-2-1.3-3.2V861.6c0-2.5-2-4.5-4.5-4.5
			H213c-2.5,0-4.5,2-4.5,4.5v92c0,4.1-5,6.1-7.8,3.1c-5.9-6.3-11.3-12.1-16.1-17.4c-0.8-0.8-1.2-1.9-1.2-3V805.6
			c0-2.5-2-4.5-4.5-4.5h-18.3c-2.5,0-4.5,2-4.5,4.5v91.1c0,0.6-1,0.9-1.2,0.1c-9-40.1-26.7-130.4-33.3-171c-0.7-4.5,4.8-7.1,7.9-3.7
			c14.8,16.6,32.8,36.7,51,56.7c90.6,99.7,96.8,100.4,103.2,101.1c0.6,0.1,1.3,0.1,2,0.1c9.7,0,26.3-6.7,59.3-20.9
			c12.6-5.4,29.7-12.8,34.2-13.7c20.8-6,42.2-6,59.3-0.1c0.1,0,0.3,0.1,0.4,0.1c4.8,1.1,21.6,8.3,34,13.7
			c35.4,15.3,51.9,21.8,61.4,20.8c6.5-0.7,12.6-1.4,103.3-102c17.6-19.6,35.1-39.2,49.6-55.7C690.3,718.8,695.9,721.5,695.2,726z
			 M707.9,643.9c-0.3,11.4-6.8,27.7-14.3,36.3c-66.3,75.9-135.7,151.1-158.9,171.9c-2.7,2.4-6.4,3.2-9.9,2.1
			c-11-3.6-29.9-11.8-42.3-17.1c-26.9-11.6-37.2-13.5-43.2-15.7c-13.3-4.7-46.7-4.7-60.6,0c-6,2.1-16.3,4.1-43.2,15.7
			c-12.5,5.4-31.4,13.5-42.4,17.2c-3.4,1.1-7.1,0.3-9.8-2c-23.2-20.5-92.3-93-159-168.6c-7.4-8.3-13.7-24.3-14.2-35.4
			c-1.8-45.2,1.5-115.5,1.5-116.5l0-4.8c0-0.3,0-0.6,0.1-1L138.6,272c0.3-3.3,3.5-5.6,6.7-4.9L403.4,321c1,0.2,2,0.3,2.7,0.2
			c0.3-0.1,0.7-0.2,1-0.3c6.9-3.2,87.6-39.8,133.6-51.4c48-12.1,124.8-19.8,124.8-19.8c4.7-0.4,6.6,1.4,6.9,4.8l34.2,298
			c0,0.4,0,0.8,0.1,1.2C706.4,574.3,708.8,612.7,707.9,643.9z M712.5,371.3l-15.1-137.8c-0.7-6.4-5.9-10.2-13-9.6
			c0,0-78.9,5.9-148.2,23.6c-63.1,16.1-119.5,43.1-129,47.8c-0.9,0.5-2,0.6-2.9,0.4l-29.2-6.3c8.3-5.3,61.9-38.6,130.1-57.7
			c55.3-15.5,146.9-31.7,166.4-33.5c3.2-0.3,5.4-3.1,5.1-6.3l-1.3-11.3c-0.4-3.1-3.1-5.3-6.2-5c-19.1,1.9-119.3,22.3-177.4,37.9
			c-58,15.6-128.1,56.3-149,68.9l-35-7.5c20.3-12.5,98.3-59.3,161.6-79.8c69.3-22.5,126.7-34,163.6-39.9c3.1-0.5,5.3-3.3,4.9-6.4
			l-1.7-11.2c-0.5-3.1-3.3-5.2-6.3-4.8c-40,5.7-102.5,18.9-170.5,42.9c-60.2,21.2-155.4,76.9-180.7,93l-24.8-5.4
			c21.2-15,74.4-51.4,122.1-74.1c69.1-32.8,151.8-58.9,188.1-67.6c3.1-0.7,5.1-3.7,4.3-6.8l-2.6-11c-0.7-3-3.7-4.9-6.7-4.2
			c-39.4,8.8-127.3,40-193.2,69.2c-53.1,23.6-112.8,68-139.5,88.7l-31.4-6.8c26.4-20.2,71.2-52.9,114.9-76.8
			c64.8-35.5,135.4-62.3,171-73.3c3-0.9,4.8-4,3.9-7.1l-3.3-10.9c-0.9-3-4-4.7-7-3.8c-38.8,11.3-122.2,46.7-186.1,80
			c-43.2,22.5-91.2,60.8-120.8,85.9l-24.3-5.2c15.8-15.6,49.7-46.8,96.2-75.7c51.7-32.2,90.5-51.5,128.1-67.3
			c2.9-1.2,4.3-4.6,3.1-7.5l-4.5-10.4c-1.2-2.8-4.5-4.2-7.3-3c-37.2,15.7-72.4,32.5-131.5,71c-55.7,36.3-110.9,88.9-111.4,89.5
			c-0.5,0.7-0.9,1.5-1,2.4l-13.6,126.4c-0.6,5.4-8.5,5.4-9,0c-4-38.7-7-75.8-7-99.5c0-49.9,30.3-99.6,83.1-136.4
			C227.8,87.3,312,64.6,405.6,64.6S585.8,86,644.2,126.5c54.5,37.8,83.3,88.7,83.3,147.2c0,20.8-2.5,57.7-5.9,97.5
			C721.1,376.7,713.1,376.8,712.5,371.3z M758.1,585.4c-10.4,62.5-25.6,102.2-38.4,125c6.3-50.8,11.5-110.6,13.8-179
			c0-0.1,0-0.2,0-0.3c2.3-24.1,4.5-46,6.5-65.9c5.9-3.3,9-1.2,10.2-0.4c2.8,1.9,9.6,8.8,12.6,31.3
			C765.8,518.4,764.3,548.5,758.1,585.4z"/>
	</g>
</g>
</svg>
