<?xml version="1.0" encoding="utf-8"?>
<!-- Generator: Adobe Illustrator 27.2.0, SVG Export Plug-In . SVG Version: 6.00 Build 0)  -->
<svg version="1.1" id="Layer_2_00000149376290768556608240000001692854643819236256_"
	 xmlns="http://www.w3.org/2000/svg" xmlns:xlink="http://www.w3.org/1999/xlink" x="0px" y="0px" viewBox="0 0 463.9 646.5"
	 style="enable-background:new 0 0 463.9 646.5;" xml:space="preserve">
<style type="text/css">
	.st0{fill:#E6CE1D;}
	.st1{fill:#61B5FB;}
</style>
<g>
	<circle class="st0" cx="151.3" cy="327.1" r="24.5"/>
	<path d="M164.9,342c0.1-2.4-2.6-2.4-5.3-3.8c-4.2-2.2-3.5-5.9-3.5-5.9c0.3-4.6,5.5-4.9,5.5-4.9c4.6-0.2,6.1,3.4,6.1,3.4l-3,1.9
		c0,0-0.7-0.9-1-1.2c-0.7-0.7-1.7-0.9-2.5-0.5s-1.5,1.6-0.9,2.5c0.5,0.7,1.6,1.3,2.3,1.6c1.6,0.7,2.3,1.1,2.9,1.4
		c4,2,3.5,5.2,3.5,5.2c0,5.6-6.1,5.9-6.1,5.9c-6.5,0.2-8-4.1-8-4.1l3.3-1.8c1.4,2.4,4.2,2.3,4.2,2.3
		C164.9,343.6,164.9,342,164.9,342L164.9,342z M144.7,341.8c0,0,0.7,2.1,2.7,2.1s2.1-2.2,2.1-2.9c0-3.7,0-13.5,0-13.5h4.1
		c0,0,0,11.1-0.2,14.9c-0.1,1.1-0.3,2.8-2.2,4c0,0-3.8,2.3-7.7-0.2c-1.1-0.7-2.1-2.4-2.1-2.4L144.7,341.8L144.7,341.8z"/>
</g>
<g>
	<path class="st1" d="M310.2,333.3c1.1,0.1,2.3,0.1,3.5,0.1s2.4,0,3.6-0.1c0.6-1,1.3-2,1.9-3c0.6-1.1,1.2-2.2,1.8-3.3
		c-0.6-1.1-1.2-2.1-1.8-3.2c-0.6-1-1.2-2-1.9-2.9c-1.1-0.1-2.3-0.1-3.5-0.1s-2.4,0-3.6,0.1c-0.6,1-1.3,2-1.9,3
		c-0.6,1.1-1.2,2.2-1.8,3.3c0.6,1.1,1.2,2.1,1.8,3.2C308.9,331.4,309.6,332.4,310.2,333.3z M313.7,322.6c2.5,0,4.5,2,4.5,4.5
		s-2,4.5-4.5,4.5s-4.5-2-4.5-4.5S311.2,322.6,313.7,322.6z"/>
	<path class="st1" d="M322.1,324.3c0.4-0.9,0.7-1.8,1-2.7c-1-0.2-1.9-0.3-2.9-0.4c0.3,0.4,0.6,0.9,0.9,1.4
		C321.5,323.1,321.8,323.7,322.1,324.3L322.1,324.3z"/>
	<path class="st1" d="M315.3,318.4c-0.6-0.7-1.2-1.4-1.8-2.1c-0.6,0.7-1.1,1.4-1.7,2.1c0.6,0,1.2,0,1.8,0
		C314.2,318.4,314.8,318.4,315.3,318.4L315.3,318.4z"/>
	<path class="st1" d="M322.2,329.7c-0.3,0.6-0.6,1.2-1,1.8c-0.3,0.5-0.6,1-0.9,1.6c1.1-0.1,2.1-0.3,3.1-0.5
		C323.1,331.6,322.7,330.6,322.2,329.7L322.2,329.7z"/>
	<path class="st1" d="M323.9,319.3c0.3-0.9,0.5-1.8,0.6-2.7c0.3-1.9,0.4-3.5,0.2-4.7c-0.2-1-0.6-1.7-1.1-2.1
		c-0.3-0.1-0.6-0.2-0.9-0.2c-0.4,0-0.9,0.1-1.4,0.3c-1.1,0.4-2.5,1.3-4,2.5c-0.7,0.6-1.5,1.3-2.2,2.1c1.1,1.2,2.2,2.6,3.3,4.1
		C320.4,318.7,322.2,319,323.9,319.3L323.9,319.3z"/>
	<path class="st1" d="M306.3,331.7c-0.4-0.6-0.7-1.2-1-1.8c-0.4,0.9-0.7,1.8-1,2.7c1,0.2,1.9,0.3,2.9,0.4
		C306.8,332.6,306.5,332.1,306.3,331.7z"/>
	<path class="st1" d="M307.1,321.2c-1.1,0.1-2.1,0.3-3.1,0.5c0.4,0.9,0.8,1.9,1.2,2.9c0.3-0.6,0.6-1.2,1-1.8
		C306.4,322.2,306.8,321.7,307.1,321.2L307.1,321.2z"/>
	<path class="st1" d="M324.2,334.8c-1.8,0.4-3.6,0.6-5.6,0.8c-1,1.4-2,2.8-3.1,4c0.8,0.7,1.5,1.4,2.2,2c1.5,1.2,2.9,2,4,2.4
		c1,0.3,1.8,0.3,2.4,0c0.5-0.3,0.9-1,1.1-2.1c0.2-1.2,0.1-2.8-0.3-4.7C324.7,336.5,324.5,335.7,324.2,334.8L324.2,334.8z"/>
	<path class="st1" d="M332.3,325.1c-0.9-0.8-2.4-1.5-4.1-2.2c-0.8-0.3-1.7-0.6-2.6-0.8c-0.5,1.6-1.2,3.2-2,4.8
		c0.9,1.7,1.6,3.4,2.2,5c0.8-0.2,1.6-0.5,2.4-0.7c1.8-0.6,3.2-1.4,4.1-2.2c0.8-0.7,1.2-1.4,1.2-2S333.2,325.8,332.3,325.1
		L332.3,325.1z"/>
	<path class="st1" d="M303.1,319.4c1.8-0.4,3.6-0.6,5.6-0.8c1-1.4,2-2.8,3.1-4c-0.8-0.7-1.5-1.4-2.2-2c-1.5-1.2-2.9-2-4-2.4
		c-0.5-0.2-1-0.2-1.3-0.2s-0.7,0.1-1,0.2c-0.5,0.3-0.9,1-1.1,2.1c-0.2,1.2-0.1,2.8,0.3,4.7C302.7,317.7,302.9,318.5,303.1,319.4
		L303.1,319.4z"/>
	<path class="st1" d="M312.1,335.8c0.6,0.7,1.2,1.4,1.8,2.1c0.6-0.7,1.1-1.4,1.7-2.1c-0.6,0-1.2,0-1.8,0
		C313.1,335.8,312.6,335.8,312.1,335.8L312.1,335.8z"/>
	<path class="st1" d="M313.7,302.6c-13.5,0-24.5,11-24.5,24.5s11,24.5,24.5,24.5s24.5-11,24.5-24.5S327.2,302.6,313.7,302.6z
		 M333.9,330.9c-1.2,1-2.8,1.9-4.9,2.6c-0.8,0.3-1.6,0.5-2.4,0.8c0.2,0.8,0.5,1.7,0.6,2.5c0.5,2.1,0.6,4,0.4,5.5
		c-0.2,1.2-0.7,2.9-2.2,3.8c-0.7,0.5-1.5,0.6-2.3,0.6s-1.5-0.2-2.1-0.4c-1.5-0.5-3.1-1.4-4.8-2.8c-0.8-0.6-1.6-1.3-2.4-2.1
		c-0.8,0.8-1.5,1.5-2.3,2.2c-1.7,1.4-3.3,2.4-4.7,2.9c-0.6,0.2-1.4,0.4-2.2,0.4c-0.7,0-1.4-0.1-2.1-0.5c-1.5-0.9-2.1-2.5-2.3-3.7
		c-0.3-1.5-0.2-3.4,0.2-5.5c0.2-0.9,0.4-1.8,0.6-2.8c-1-0.2-1.9-0.5-2.7-0.8c-2.1-0.7-3.7-1.6-4.9-2.6c-1-0.8-2.1-2.1-2.1-3.9
		s1.1-3,2.1-3.9c1.2-1,2.8-1.9,4.9-2.6c0.8-0.3,1.6-0.5,2.4-0.8c-0.2-0.8-0.5-1.7-0.6-2.5c-0.5-2.1-0.6-4-0.4-5.5
		c0.2-1.2,0.7-2.9,2.2-3.8s3.2-0.6,4.4-0.2c1.5,0.5,3.1,1.4,4.8,2.8c0.8,0.6,1.6,1.3,2.4,2.1c0.8-0.8,1.5-1.5,2.3-2.2
		c1.7-1.4,3.3-2.4,4.7-2.9c1.2-0.4,2.9-0.8,4.4,0.1s2.1,2.5,2.3,3.7c0.3,1.5,0.2,3.4-0.2,5.5c-0.2,0.9-0.4,1.8-0.6,2.8
		c1,0.2,1.9,0.5,2.7,0.8c2.1,0.7,3.7,1.6,4.9,2.6c1,0.8,2.1,2.1,2.1,3.9S334.9,330.2,333.9,330.9L333.9,330.9z"/>
	<path class="st1" d="M301.6,322.2c-0.8,0.2-1.6,0.5-2.4,0.7c-1.8,0.6-3.2,1.4-4.1,2.2c-0.8,0.7-1.2,1.4-1.2,2s0.4,1.3,1.2,2
		c0.9,0.8,2.4,1.5,4.1,2.2c0.8,0.3,1.7,0.6,2.6,0.8c0.5-1.6,1.2-3.2,2-4.8C302.9,325.5,302.2,323.8,301.6,322.2L301.6,322.2z"/>
	<path class="st1" d="M303.4,334.9c-0.3,0.9-0.5,1.8-0.6,2.7c-0.3,1.9-0.4,3.5-0.2,4.7c0.2,1,0.6,1.7,1.1,2.1
		c0.6,0.3,1.4,0.3,2.4-0.1c1.1-0.4,2.5-1.3,4-2.5c0.7-0.6,1.5-1.3,2.2-2.1c-1.1-1.2-2.2-2.6-3.3-4.1
		C307,335.5,305.2,335.3,303.4,334.9L303.4,334.9z"/>
</g>
<path d="M258.8,457.5l-11-12.9c5.4-5,10.9-11,12.8-13.8c-0.7-4.2-3.5-14.9-6-23.7l15.8-5.1c2.1,7.1,6.9,24.2,6.9,30
	C277.3,434.7,277.3,440.3,258.8,457.5L258.8,457.5z"/>
<path d="M203.3,457.4c-14.8-14.1-22.4-24.9-22.7-31.9c-0.4-7.6,15.3-65.1,25.2-100.3l-10.4-44.8L128.6,267l-34.2,14.8l-6.3-16
	l38.8-16.7l82.1,16.6l14,60.1l-0.6,2.2c-9.9,35.2-23.8,87.3-25.1,96.5c1.6,3.5,9.4,12.6,17.3,20.2L203.3,457.4L203.3,457.4z"/>
<polygon points="368.7,287.3 335.1,266.2 255.1,285.3 251.4,268.4 337.9,247.8 377.2,272.4 "/>
<g>
	<rect x="184.7" y="524.5" width="93.8" height="14.5"/>
	<path d="M450,309.1c-7.2-7.4-15.6-10.4-21.9-11.6c2.7-25.3,7.9-111,7.9-144.6c0-40.4-15.4-86.9-52.4-112.6
		C345.5,14,292.3,0,229.9,0S116.4,14.4,77.2,41.7C40.7,67,24.8,112,24.8,147.7c0,40.2,8.3,126.3,10.8,143.8
		c-6.3,1.4-14.6,4.6-21.7,12.1C2.4,315.7-2,334.6,0.8,359.7c7.1,65.1,31.9,101.8,52.4,109c6.2,31.8,13.5,62.6,19.5,70.2
		c7.9,9.9,77.3,88,117.8,105.8l0.7,0.3l0.8,0.2c12.9,2.6,35.3,0.6,39.7,0.2c2.7,0.3,12.3,1.1,22.3,1.1c6.1,0,12.3-0.3,17.2-1.3
		l0.8-0.2l0.7-0.3c12.9-5.7,28.8-17.6,44.7-31.4h0.4V613c24.9-21.7,49.8-48.2,63.2-63.2h0.2v-0.3c4.6-5.2,7.8-8.9,9.2-10.6
		c5.6-7,12.2-33.7,18-62.7c11-3.7,22.8-16.1,32.5-34c7.8-14.6,18-39.8,22.1-77.3C465.9,339.7,461.5,321,450,309.1L450,309.1z
		 M86.6,55.3c35.9-25,86.8-38.7,143.3-38.7S338.8,29.5,374.1,54c32.1,25.1,44.3,66.2,45.3,98.9c0.5,17.3,2.1,42.1-1,75.4
		l-11.9-124.6c0,0-142.8,20.9-176.4,20.9S54.7,98.7,54.7,98.7L43.4,221.9c-3.6-31.4-2-54.7-2-74.2C41.4,117.5,54.7,77.5,86.6,55.3z
		 M408.6,284.3l-39.4,19.1c-3.1-2.2-6.9-3.6-11-3.6H205.1v0.5c-1.1-0.3-2.2-0.5-3.4-0.5h-93.9c-4.9,0-9.3,1.9-12.6,4.9l-41.9-20.2
		L69,120.2c0,0,110,20.8,160.8,21.6s162.6-17.4,162.6-17.4L408.6,284.3L408.6,284.3z M15.2,358.1c-2.2-20.6,0.8-35.5,9.1-44.4
		c4.3-4.6,9.4-6.8,13.3-7.9l0.1,0.7c-0.1,19.4,0,64.9,2.1,82.3c0.5,4.6,4.5,31.1,9.8,60.8C36.3,437.3,20.5,406.5,15.2,358.1
		L15.2,358.1z M381.2,525.8v-60.7h-16.6v81.2c-4.4,4.8-9.6,10.3-15.2,16.2v-63.2h-16.6V579h0.2c-5,4.9-10.1,9.8-15.4,14.6v-65H301
		v79.5c-5.2,4.3-10.3,8.3-15.2,11.8v-48.3h-16.6v58.6c-0.6,0.3-1.3,0.6-1.9,0.9c-3.6,0.6-8.4,0.9-13.3,0.9v-37.2h-16.6v36.6
		c-2.1-0.2-3.9-0.3-5.2-0.5h-0.4h-1.1c-1.9,0.2-4.9,0.5-8.4,0.7v-36.8H206V632c-3.9-0.1-7.5-0.3-10.4-0.8c-1.5-0.7-3.1-1.5-4.7-2.4
		v-57.1h-16.6V618c-4.9-3.7-10-7.7-15.2-12.1v-81.7h-16.6v67c-5.2-4.8-10.3-9.7-15.2-14.6v-82.1h-16.6v65.2
		c-5.7-6-10.9-11.6-15.2-16.3v-82.7H79v56.9c-7.3-24.8-17.2-78.7-22.3-111.6c9.8,11.1,23.3,26.2,37,41.2
		c54.8,60.2,58.5,60.7,62.4,61.1c0.4,0,0.8,0.1,1.2,0.1c5.9,0,15.9-4,35.9-12.6c7.6-3.3,17.7-7.7,20.7-8.3c3-0.6,13.4-1.7,18-1.7
		s13.6,0.4,18,1.7s13.1,5,20.7,8.3C292,505,302,509,307.7,508.4c3.9-0.4,7.6-0.9,62.4-61.6c13.3-14.8,26.5-29.6,36.2-40.7
		C400.5,443.2,388.6,507.7,381.2,525.8L381.2,525.8z M409.6,380.1c-44,50.4-93.8,105.5-104.3,113.5c-5.3-1.1-19.9-7.4-28.9-11.3
		c-16.2-7-22.8-9-26.1-9.5s-14.1-1.9-18.3-1.8s-15,1-18.3,1.8s-9.9,2.5-26.1,9.5c-9,3.9-23.7,10.2-28.9,11.3
		c-10.6-8-60.9-63.1-105.1-113.3c-1.6-22.9-1.4-68.9-1.3-80.1L89.2,318c0,0.2,0,0.4,0,0.5v28c0,10.4,8.4,18.7,18.7,18.7l93.9-10.4
		c10.4,0,18.8-14.6,17.8-25.3c-0.3-3.4-0.7-7.7-1.7-11.7c-0.3-1.1-0.6-2.2-1-3.5h32.5c-0.4,1.2-0.7,2.4-1,3.5c-1,4-1.4,8.3-1.7,11.7
		c-1,10.7,7.4,25.3,17.8,25.3l93.9,10.4c10.4,0,18.7-8.4,18.7-18.7v-28c0-0.9-0.1-1.8-0.2-2.6l33.7-16.3l1.4,11
		C411.7,325.2,411.2,360.4,409.6,380.1L409.6,380.1z M448.7,363.4c-5.4,49.4-22.6,81.5-36.6,94c6-32.6,10.6-63.5,11.2-68.5
		c2-16.9,2.7-56.6,2.9-75.1l0.2-1.8c4,0.9,9,2.9,13.2,7.4C447.8,327.9,451,343.1,448.7,363.4L448.7,363.4z"/>
</g>
</svg>
