<?xml version="1.0" encoding="utf-8"?>
<!-- Generator: Adobe Illustrator 27.1.1, SVG Export Plug-In . SVG Version: 6.00 Build 0)  -->
<svg version="1.1" id="Layer_2_00000178162869224732798840000013145240492140740992_"
	 xmlns="http://www.w3.org/2000/svg" xmlns:xlink="http://www.w3.org/1999/xlink" x="0px" y="0px" viewBox="0 0 296.8 420"
	 style="enable-background:new 0 0 296.8 420;" xml:space="preserve">
<style type="text/css">
	.st0{fill:#0000FF;}
	.st1{fill:#FFFFFF;}
</style>
<g id="Layer_1-2">
	<polygon class="st0" points="252.3,120.3 44.5,120.3 63.9,332.5 149.1,357 233.2,332.9 	"/>
	<polygon class="st1" points="82.9,162.4 213.5,162.4 201.6,295.6 148.2,310.9 94.2,295.1 90.8,254.1 116.9,254.1 118.9,275.5 
		148.2,283 176.8,275.1 179.7,241 119.4,241.2 116.9,214.9 182.4,214.9 184.1,188.6 84.6,188.6 	"/>
	<polygon points="101.4,74.4 101.4,91.4 120,91.4 120,102.6 87.3,102.6 87.3,63 120,63 120,74.8 	"/>
	<polygon points="126.4,63 126.4,72.5 144.6,91.8 126.4,91.8 126.4,102.6 164,102.6 164,93.1 146.5,74.4 164,74.4 164,63 	"/>
	<polygon points="170.9,63 170.9,72.5 189,91.8 170.9,91.8 170.9,102.6 208.4,102.6 208.4,93.1 191,74.4 208.4,74.4 208.4,63 	"/>
</g>
</svg>
