<?xml version="1.0" encoding="UTF-8"?><svg id="Layer_2" xmlns="http://www.w3.org/2000/svg" viewBox="0 0 296.76 420"><defs><style>.cls-1{fill:blue;}.cls-2{fill:#fff;}</style></defs><g id="Layer_1-2"><polygon class="cls-1" points="296.76 81.85 0 81.85 27.7 385.01 149.39 420 269.6 385.64 296.76 81.85"/><polygon class="cls-2" points="54.77 141.85 241.41 141.85 224.35 332.27 148.09 354.06 70.88 331.64 66.14 272.9 103.41 272.9 106.25 303.53 148.09 314.27 188.98 302.9 193.09 254.27 106.88 254.58 103.41 217.01 196.88 217.01 199.41 179.43 57.3 179.43 54.77 141.85"/><polygon class="cls-1" points="81.3 16.16 81.3 40.48 107.83 40.48 107.83 56.59 61.09 56.59 61.09 0 107.83 0 107.83 16.8 81.3 16.16"/><polygon class="cls-1" points="116.98 0 116.98 13.64 142.88 41.11 116.98 41.11 116.98 56.59 170.67 56.59 170.67 43.01 145.72 16.16 170.67 16.16 170.67 0 116.98 0"/><polygon class="cls-1" points="180.46 0 180.46 13.64 206.35 41.11 180.46 41.11 180.46 56.59 234.14 56.59 234.14 43.01 209.19 16.16 234.14 16.16 234.14 0 180.46 0"/></g></svg>