<?xml version="1.0" encoding="utf-8"?>
<!-- Generator: Adobe Illustrator 27.1.1, SVG Export Plug-In . SVG Version: 6.00 Build 0)  -->
<svg version="1.1" id="Layer_2_00000178162869224732798840000013145240492140740992_"
	 xmlns="http://www.w3.org/2000/svg" xmlns:xlink="http://www.w3.org/1999/xlink" x="0px" y="0px" viewBox="0 0 296.8 420"
	 style="enable-background:new 0 0 296.8 420;" xml:space="preserve">
<style type="text/css">
	.st0{fill:#0000FF;}
	.st1{fill:#FFFFFF;}
</style>
<g id="Layer_1-2">
	<polygon class="st0" points="296.8,81.8 0,81.8 27.7,385 149.4,420 269.6,385.6 	"/>
	<polygon class="st1" points="54.8,141.9 241.4,141.9 224.4,332.3 148.1,354.1 70.9,331.6 66.1,272.9 103.4,272.9 106.2,303.5 
		148.1,314.3 189,302.9 193.1,254.3 106.9,254.6 103.4,217 196.9,217 199.4,179.4 57.3,179.4 	"/>
	<polygon points="81.3,16.2 81.3,40.5 107.8,40.5 107.8,56.6 61.1,56.6 61.1,0 107.8,0 107.8,16.8 	"/>
	<polygon points="117,0 117,13.6 142.9,41.1 117,41.1 117,56.6 170.7,56.6 170.7,43 145.7,16.2 170.7,16.2 170.7,0 	"/>
	<polygon points="180.5,0 180.5,13.6 206.4,41.1 180.5,41.1 180.5,56.6 234.1,56.6 234.1,43 209.2,16.2 234.1,16.2 234.1,0 	"/>
</g>
</svg>
