<?xml version="1.0" encoding="UTF-8"?><svg id="Layer_2" xmlns="http://www.w3.org/2000/svg" viewBox="0 0 94.13 94.13"><defs><style>.cls-1{fill:#fff;}.cls-2{stroke:#fff;stroke-miterlimit:10;stroke-width:4px;}</style></defs><g id="Layer_1-2"><circle class="cls-2" cx="51.39" cy="51.39" r="40.74"/><circle class="cls-2" cx="42.74" cy="42.74" r="40.74"/><g><path d="m67.86,61.86c1.57-.78,2.66-2.39,2.66-4.26v-29.72c0-2.11-1.37-3.87-3.26-4.51l-18.95,18.95,19.55,19.55Z"/><path class="cls-1" d="m67.35,63.47l-21.16-21.16,20.46-20.46,1.09.09c2.56.86,4.28,3.25,4.28,5.93v29.72c0,2.38-1.34,4.53-3.49,5.61l-1.18.27Zm-16.91-21.16l17.6,17.6c.62-.6.98-1.43.98-2.32v-29.72c0-1.1-.56-2.1-1.45-2.7l-17.14,17.14Z"/><path d="m18.21,23.37c-1.89.64-3.26,2.4-3.26,4.51v29.72c0,1.87,1.09,3.48,2.66,4.26l19.55-19.55-18.95-18.95Z"/><path class="cls-1" d="m18.13,63.46l-1.19-.26c-2.15-1.07-3.49-3.22-3.49-5.61v-29.72c0-2.68,1.72-5.07,4.28-5.93l1.09-.09,20.45,20.45-21.15,21.15Zm-.23-38.29c-.89.6-1.45,1.6-1.45,2.7v29.72c0,.89.36,1.72.98,2.32l17.6-17.6-17.14-17.14Z"/><path d="m65.74,62.38c.77,0,1.48-.2,2.12-.52l-19.55-19.55-2.12,2.12c-1.91,1.91-5.01,1.91-6.92,0l-2.12-2.12-19.55,19.55c.64.32,1.35.52,2.12.52h46.01Z"/><path class="cls-1" d="m65.74,63.88H19.73c-.96,0-1.89-.23-2.79-.67l-1.51-1.29,21.72-21.72,3.18,3.18c1.28,1.28,3.51,1.28,4.8,0l3.18-3.18,21.76,21.75-1.54,1.26c-.9.45-1.83.67-2.79.67Zm-45.03-3h44.04l-16.44-16.44-1.06,1.06c-1.21,1.21-2.81,1.87-4.52,1.87s-3.31-.67-4.52-1.87l-1.06-1.06-16.44,16.44Z"/><path d="m65.74,23.1H19.73c-.53,0-1.04.11-1.52.27l18.95,18.95,2.12,2.12c1.91,1.91,5.01,1.91,6.92,0l2.12-2.12,18.95-18.95c-.48-.16-.98-.27-1.52-.27Z"/><path class="cls-1" d="m42.74,47.37c-1.71,0-3.31-.67-4.52-1.87L15.92,23.2l1.81-1.26c.69-.23,1.35-.35,2-.35h46.01c.65,0,1.31.11,2,.35l1.83,1.23-22.32,22.32c-1.21,1.21-2.81,1.87-4.52,1.87Zm-21.17-22.77l18.77,18.78c1.32,1.32,3.48,1.32,4.8,0l18.77-18.78H21.56Z"/></g></g></svg>