<?xml version="1.0" encoding="UTF-8"?><svg id="Layer_2" xmlns="http://www.w3.org/2000/svg" viewBox="0 0 398.82 191.74"><defs><style>.cls-1{fill:#f15a24;}.cls-2{fill:#fff;}</style></defs><g id="Layer_1-2"><g><rect class="cls-1" x="23.81" y="23.81" width="144.11" height="144.11" rx="14.56" ry="14.56" transform="translate(-39.71 95.87) rotate(-45)"/><path class="cls-2" d="m136.1,82.39c-1.95,0-3.82.4-5.51,1.11l-21.34-21.34c.68-1.66,1.06-3.48,1.06-5.39,0-7.85-6.36-14.21-14.21-14.21-1.91,0-3.73.38-5.39,1.06l-23.33-23.33-7.59,7.59,23.26,23.26c-.74,1.72-1.16,3.62-1.16,5.62,0,5.95,3.66,11.03,8.84,13.15v53.49c-5.19,2.12-8.84,7.21-8.84,13.15,0,7.85,6.36,14.21,14.21,14.21s14.21-6.36,14.21-14.21c0-5.95-3.66-11.03-8.84-13.15v-53.49c.08-.03.17-.07.25-.1l21.27,21.27c-.71,1.69-1.11,3.56-1.11,5.51,0,7.85,6.36,14.21,14.21,14.21s14.21-6.36,14.21-14.21-6.36-14.21-14.21-14.21Z"/></g><path d="m198.44,139.34c0-9.2,7.4-14.07,17.32-17.14v-.9c-5.77-2.35-10.28-6.13-10.28-12.99,0-7.4,4.87-12.09,11.55-16.96-7.76-4.69-12.27-11.73-12.27-22.01v-.9c0-19.66,15.51-29.77,40.23-29.77,6.13,0,11.91.54,16.96,1.62h31.21v17.32h-11.73c1.98,2.89,3.07,5.77,3.07,10.1v.9c0,19.12-15.51,28.5-39.51,28.5-5.05,0-9.38-.36-13.53-1.26-1.08,1.44-1.8,1.8-1.8,3.61,0,3.25,1.98,4.33,7.04,4.33h26.52c19.66,0,31.21,7.04,31.21,24.71,0,19.48-15.88,31.75-50.33,31.75-31.93,0-45.64-8.3-45.64-20.93Zm65.85-6.13c0-5.41-2.35-5.95-11.91-5.95h-19.66c-3.79,1.26-6.31,2.89-6.31,7.22,0,5.05,3.61,7.94,17.5,7.94,15.52,0,20.39-3.79,20.39-9.2Zm-8.12-64.22v-1.44c0-9.56-4.15-11.73-11.19-11.73-7.4,0-11.37,2.89-11.37,11.55v1.44c0,8.84,3.97,11.55,11.37,11.55s11.19-2.71,11.19-11.37Z"/><path d="m299.95,6.39h31.21v23.45h-31.21V6.39Zm.18,33.92h30.85v93.09h-30.85V40.3Z"/><path d="m348.67,108.13v-46.36h-11.55v-21.29h11.55v-22.01h30.85v22.01h18.76v21.29h-18.76v41.85c0,6.49,2.71,8.48,10.1,8.48,3.25,0,6.67-.36,9.2-.9v19.84c-3.79,1.8-10.64,3.61-20.57,3.61-18.58,0-29.59-6.13-29.59-26.52Z"/></g></svg>