<?xml version="1.0" encoding="utf-8"?>
<!-- Generator: Adobe Illustrator 27.1.1, SVG Export Plug-In . SVG Version: 6.00 Build 0)  -->
<svg version="1.1" id="Layer_2_00000105404497687792960800000005316722251946415501_"
	 xmlns="http://www.w3.org/2000/svg" xmlns:xlink="http://www.w3.org/1999/xlink" x="0px" y="0px" viewBox="0 0 318.8 438.6"
	 style="enable-background:new 0 0 318.8 438.6;" xml:space="preserve">
<style type="text/css">
	.st0{fill:#F15A24;}
	.st1{fill:#FFFFFF;}
</style>
<g id="Layer_1-2">
	<path class="st0" d="M64.8,120.5l81.3-81.3c5.7-5.7,14.9-5.7,20.6,0l81.3,81.3c5.7,5.7,5.7,14.9,0,20.6l-81.3,81.3
		c-5.7,5.7-14.9,5.7-20.6,0l-81.3-81.3C59.1,135.4,59.1,126.2,64.8,120.5z"/>
	<path class="st1" d="M196.7,117.3c-1.9,0-3.8,0.4-5.5,1.1l-21.3-21.3c0.7-1.7,1.1-3.5,1.1-5.4c0-7.8-6.4-14.2-14.2-14.2
		c-1.9,0-3.7,0.4-5.4,1.1l-23.3-23.3l-7.6,7.6l23.3,23.3c-0.7,1.7-1.2,3.6-1.2,5.6c0,5.9,3.7,11,8.8,13.2v53.5
		c-5.2,2.1-8.8,7.2-8.8,13.1c0,7.9,6.4,14.2,14.2,14.2c7.9,0,14.2-6.4,14.2-14.2c0-5.9-3.7-11-8.8-13.2v-53.5c0.1,0,0.2-0.1,0.2-0.1
		l21.3,21.3c-0.7,1.7-1.1,3.6-1.1,5.5c0,7.9,6.4,14.2,14.2,14.2s14.2-6.4,14.2-14.2C210.9,123.7,204.5,117.3,196.7,117.3
		L196.7,117.3z"/>
	<path d="M52.8,381.1c0-9.2,7.4-14.1,17.3-17.1v-0.9c-5.8-2.4-10.3-6.1-10.3-13c0-7.4,4.9-12.1,11.5-17c-7.8-4.7-12.3-11.7-12.3-22
		v-0.9c0-19.7,15.5-29.8,40.2-29.8c6.1,0,11.9,0.5,17,1.6h31.2v17.3h-11.7c2,2.9,3.1,5.8,3.1,10.1v0.9c0,19.1-15.5,28.5-39.5,28.5
		c-5.1,0-9.4-0.4-13.5-1.3c-1.1,1.4-1.8,1.8-1.8,3.6c0,3.2,2,4.3,7,4.3h26.5c19.7,0,31.2,7,31.2,24.7c0,19.5-15.9,31.8-50.3,31.8
		C66.5,402.1,52.8,393.8,52.8,381.1L52.8,381.1z M118.6,375c0-5.4-2.4-5.9-11.9-5.9H87c-3.8,1.3-6.3,2.9-6.3,7.2
		c0,5,3.6,7.9,17.5,7.9C113.8,384.2,118.6,380.4,118.6,375L118.6,375z M110.5,310.8v-1.4c0-9.6-4.1-11.7-11.2-11.7
		c-7.4,0-11.4,2.9-11.4,11.5v1.4c0,8.8,4,11.6,11.4,11.6S110.5,319.5,110.5,310.8z"/>
	<path d="M154.3,248.2h31.2v23.5h-31.2V248.2z M154.5,282.1h30.9v93.1h-30.9V282.1L154.5,282.1z"/>
	<path d="M203,349.9v-46.4h-11.5v-21.3H203v-22h30.9v22h18.8v21.3h-18.8v41.8c0,6.5,2.7,8.5,10.1,8.5c3.2,0,6.7-0.4,9.2-0.9v19.8
		c-3.8,1.8-10.6,3.6-20.6,3.6C214,376.5,203,370.3,203,349.9L203,349.9z"/>
</g>
</svg>
