<?xml version="1.0" encoding="UTF-8"?><svg id="Layer_2" xmlns="http://www.w3.org/2000/svg" viewBox="0 0 296.76 420.25"><defs><style>.cls-1{fill:#f15a24;}.cls-2{fill:#fff;}</style></defs><g id="Layer_1-2"><polygon class="cls-1" points="296.76 82.1 0 82.1 27.7 385.26 149.39 420.25 269.6 385.89 296.76 82.1"/><polygon class="cls-2" points="67.07 275.57 104.97 275.57 107.49 305.05 148.33 315.99 190.79 305.82 194.93 257.47 65.39 257.47 56.12 144.21 242.65 144.21 238.86 181.68 96.55 181.68 99.57 220.49 234.81 220.68 224.97 335.36 149.39 356.42 71.7 334.52 67.07 275.57"/><path class="cls-1" d="m65.53,57.09v-20.19h-14.5v20.19h-19.33V0h19.33v20.19h14.5V0h19.33v57.09h-19.33Z"/><path class="cls-1" d="m145.28,17.91h-17.26v39.18h-17.84V17.91h-17.47V0h52.57v17.91Z"/><path class="cls-1" d="m270.94,57.09h-44.67V0h17.33v40.18h27.34v16.91Z"/><polygon class="cls-1" points="153.81 57.09 153.81 0 173.86 0 185.7 19.67 197.86 0 218.23 0 218.23 57.09 198.81 57.09 198.81 28.54 186.02 49.35 172.12 28.54 172.12 57.09 153.81 57.09"/></g></svg>