<?xml version="1.0" encoding="utf-8"?>
<!-- Generator: Adobe Illustrator 27.1.1, SVG Export Plug-In . SVG Version: 6.00 Build 0)  -->
<svg version="1.1" id="Layer_2_00000156557837665929689190000002029353921459822513_"
	 xmlns="http://www.w3.org/2000/svg" xmlns:xlink="http://www.w3.org/1999/xlink" x="0px" y="0px" viewBox="0 0 296.8 420.2"
	 style="enable-background:new 0 0 296.8 420.2;" xml:space="preserve">
<style type="text/css">
	.st0{fill:#F15A24;}
	.st1{fill:#FFFFFF;}
</style>
<g id="Layer_1-2">
	<polygon class="st0" points="252.3,120.5 44.5,120.5 63.9,332.7 149.1,357.1 233.2,333.1 	"/>
	<polygon class="st1" points="91.5,255.9 118,255.9 119.8,276.5 148.3,284.2 178.1,277.1 181,243.2 90.3,243.2 83.8,163.9 
		214.3,163.9 211.8,190.2 112.1,190.2 114.2,217.3 208.9,217.5 202,297.8 149.1,312.5 94.7,297.1 	"/>
	<path d="M90.4,103V88.8H80.2V103H66.7V63h13.5v14.1h10.1V63h13.5v40H90.4z"/>
	<path d="M146.2,75.5h-12.1V103h-12.5V75.5h-12.2V63h36.8L146.2,75.5L146.2,75.5z"/>
	<path d="M234.2,103h-31.3V63H215v28.1h19.1L234.2,103L234.2,103z"/>
	<polygon points="152.2,103 152.2,63 166.3,63 174.5,76.8 183.1,63 197.3,63 197.3,103 183.7,103 183.7,82.9 174.7,97.5 165,82.9 
		165,103 	"/>
</g>
</svg>
