<?xml version="1.0" encoding="utf-8"?>
<!-- Generator: Adobe Illustrator 27.1.1, SVG Export Plug-In . SVG Version: 6.00 Build 0)  -->
<svg version="1.1" id="Layer_2_00000180326429172448570630000004040405273598047893_"
	 xmlns="http://www.w3.org/2000/svg" xmlns:xlink="http://www.w3.org/1999/xlink" x="0px" y="0px" viewBox="0 0 292.4 291.3"
	 style="enable-background:new 0 0 292.4 291.3;" xml:space="preserve">
<style type="text/css">
	.st0{fill:#FFDD00;}
</style>
<g id="Layer_1-2">
	<g>
		<path d="M107.9,226.1c18.3,12.2,36.5,1.1,36.5,1.1c9-6,10.3-14.1,10.6-19.2c1-18.1,0.8-71.1,0.8-71.1l-19.6,0.2
			c0,0,0.1,46.5,0.1,63.9c0,3-0.3,13.7-9.8,13.7c-9.5,0.1-13-9.9-13-9.9l-15.9,9.7C97.7,214.4,102.8,222.6,107.9,226.1z"/>
		<path d="M201.6,214.6c0,0-13.4,0.6-20.1-10.9l-15.5,8.6c0,0,6.9,20.2,37.9,19.5c0,0,29-1.3,29.1-27.9c0,0,2.2-15.3-16.7-25
			c-3.1-1.6-6.3-3.4-14-6.7c-3.1-1.3-8.6-4.2-10.9-7.6c-3-4.3,0.5-10.2,4.3-11.9c4.1-1.8,9-0.9,12.1,2.4c1.3,1.3,4.7,5.6,4.7,5.6
			l14.4-9c0,0-7-17.2-29-16c0,0-24.7,1.3-26.3,23.4c0,0-3.1,17.9,16.9,28.3c12.9,6.7,25.6,6.6,25.1,18.2
			C213.6,205.6,213.8,213.4,201.6,214.6L201.6,214.6z"/>
		<path class="st0" d="M43.9,43.7v203.9h204.7V43.7H43.9z"/>
		<path d="M213.6,205.6c0.4-11.6-12.2-11.5-25.1-18.2c-19.9-10.4-16.9-28.4-16.9-28.4c1.6-22.1,26.3-23.4,26.3-23.4
			c22-1.1,29,16,29,16l-14.4,9c0,0-3.4-4.3-4.7-5.6c-3.1-3.3-8-4.2-12.1-2.4c-3.8,1.7-7.3,7.6-4.3,11.9c2.3,3.4,7.8,6.3,10.9,7.6
			c7.7,3.3,10.8,5,14,6.7c18.9,9.7,16.7,25,16.7,25c-0.1,26.7-29.1,27.9-29.1,27.9c-31.1,0.8-37.9-19.5-37.9-19.5l15.5-8.6
			c6.7,11.5,20.1,10.9,20.1,10.9C213.8,213.4,213.6,205.6,213.6,205.6L213.6,205.6z M113.6,204.8c0,0,3.4,9.9,12.9,9.9
			c9.5-0.1,9.8-10.7,9.8-13.7c-0.1-17.4-0.1-63.9-0.1-63.9l19.6-0.2c0,0,0.1,53.1-0.8,71.1c-0.3,5.2-1.6,13.2-10.6,19.2
			c0,0-18.2,11.1-36.5-1.1c-5.2-3.4-10.2-11.6-10.2-11.6L113.6,204.8L113.6,204.8z"/>
	</g>
</g>
</svg>
