<?xml version="1.0" encoding="utf-8"?>
<!-- Generator: Adobe Illustrator 27.2.0, SVG Export Plug-In . SVG Version: 6.00 Build 0)  -->
<svg version="1.1" id="Layer_1" xmlns="http://www.w3.org/2000/svg" xmlns:xlink="http://www.w3.org/1999/xlink" x="0px" y="0px"
	 viewBox="0 0 783.2 770.5" style="enable-background:new 0 0 783.2 770.5;" xml:space="preserve">
<style type="text/css">
	.st0{fill:#0000FF;}
	.st1{fill:#FFFFFF;}
	.st2{fill:#F15A24;}
	.st3{fill:#FFDD00;}
	.st4{fill:#32D8FF;}
	.st5{fill:url(#SVGID_1_);}
	.st6{fill:#BF4080;}
	.st7{fill-rule:evenodd;clip-rule:evenodd;fill:#38BDF8;}
	.st8{fill:url(#SVGID_00000131350011468699903640000014073538714460063380_);}
	.st9{fill:url(#SVGID_00000170244798946950706030000001203083183805661315_);}
</style>
<g id="Layer_1_00000016775159834316823370000012600366716508264634_">
	<g>
		<polygon class="st0" points="291.4,71.5 222.6,71.5 229.1,141.7 257.3,149.9 285.1,141.9 		"/>
		<polygon class="st1" points="235.3,85.4 278.6,85.4 274.6,129.5 257,134.6 239.1,129.4 238,115.8 246.6,115.8 247.3,122.9 
			257,125.4 266.4,122.7 267.4,111.4 247.4,111.5 246.6,102.8 268.3,102.8 268.9,94.1 235.9,94.1 		"/>
		<polygon points="241.5,56.3 241.5,61.9 247.6,61.9 247.6,65.6 236.8,65.6 236.8,52.5 247.6,52.5 247.6,56.4 		"/>
		<polygon points="249.8,52.5 249.8,55.7 255.8,62 249.8,62 249.8,65.6 262.2,65.6 262.2,62.5 256.4,56.3 262.2,56.3 262.2,52.5 		
			"/>
		<polygon points="264.5,52.5 264.5,55.7 270.5,62 264.5,62 264.5,65.6 276.9,65.6 276.9,62.5 271.1,56.3 276.9,56.3 276.9,52.5 		
			"/>
	</g>
	<g>
		<polygon class="st2" points="596.8,576.7 525.8,576.7 532.5,649.2 561.6,657.6 590.3,649.4 		"/>
		<polygon class="st1" points="541.9,623 550.9,623 551.5,630 561.3,632.6 571.5,630.2 572.5,618.6 541.5,618.6 539.2,591.5 
			583.9,591.5 583,600.5 548.9,600.5 549.7,609.8 582,609.8 579.7,637.3 561.6,642.3 543,637.1 		"/>
		<path d="M541.5,570.7v-4.8H538v4.8h-4.6V557h4.6v4.8h3.5V557h4.6v13.7H541.5z"/>
		<path d="M560.6,561.3h-4.1v9.4h-4.3v-9.4H548V557h12.6V561.3z"/>
		<path d="M590.7,570.7H580V557h4.2v9.6h6.5V570.7L590.7,570.7z"/>
		<polygon points="562.6,570.7 562.6,557 567.4,557 570.3,561.7 573.2,557 578,557 578,570.7 573.4,570.7 573.4,563.8 570.3,568.8 
			567,563.8 567,570.7 		"/>
	</g>
	<g>
		<path d="M436.5,118.9c8.7,5.8,17.3,0.5,17.3,0.5c4.3-2.9,4.9-6.7,5-9.1c0.5-8.6,0.4-33.8,0.4-33.8l-9.3,0.1c0,0,0,22.1,0.1,30.4
			c0,1.4-0.1,6.5-4.7,6.5s-6.1-4.7-6.1-4.7l-7.5,4.6C431.7,113.3,434.1,117.2,436.5,118.9L436.5,118.9z"/>
		<path d="M481,113.4c0,0-6.4,0.3-9.5-5.2l-7.4,4.1c0,0,3.3,9.6,18,9.2c0,0,13.8-0.6,13.8-13.3c0,0,1.1-7.3-7.9-11.9
			c-1.5-0.8-3-1.6-6.6-3.2c-1.5-0.6-4.1-2-5.2-3.6c-1.4-2.1,0.2-4.9,2-5.7c2-0.9,4.3-0.4,5.8,1.1c0.6,0.6,2.2,2.7,2.2,2.7l6.9-4.3
			c0,0-3.3-8.1-13.8-7.6c0,0-11.7,0.6-12.5,11.1c0,0-1.5,8.5,8,13.5c6.1,3.2,12.1,3.1,11.9,8.6C486.7,109.1,486.8,112.8,481,113.4
			L481,113.4z"/>
		<path class="st3" d="M406.1,32.2v96.9h97.3V32.2L406.1,32.2L406.1,32.2z"/>
		<path d="M486.7,109.1c0.2-5.5-5.8-5.5-11.9-8.6c-9.5-5-8-13.5-8-13.5c0.8-10.5,12.5-11.1,12.5-11.1c10.5-0.5,13.8,7.6,13.8,7.6
			l-6.9,4.3c0,0-1.6-2-2.2-2.7c-1.5-1.6-3.8-2-5.8-1.1c-1.8,0.8-3.5,3.6-2,5.7c1.1,1.6,3.7,3,5.2,3.6c3.7,1.6,5.2,2.4,6.6,3.2
			c9,4.6,7.9,11.9,7.9,11.9c-0.1,12.7-13.8,13.3-13.8,13.3c-14.8,0.4-18-9.2-18-9.2l7.4-4.1c3.2,5.5,9.5,5.2,9.5,5.2
			C486.9,112.9,486.7,109.2,486.7,109.1L486.7,109.1z M439.2,108.7c0,0,1.6,4.7,6.1,4.7s4.7-5.1,4.7-6.5c0-8.3-0.1-30.4-0.1-30.4
			l9.3-0.1c0,0,0.1,25.2-0.4,33.8c-0.1,2.5-0.8,6.3-5,9.1c0,0-8.6,5.3-17.3-0.5c-2.5-1.6-4.9-5.5-4.9-5.5L439.2,108.7L439.2,108.7z"
			/>
	</g>
	<g>
		<g>
			<circle class="st4" cx="658.4" cy="201" r="14.3"/>
			<path class="st4" d="M722.8,188.7c-3.7-3.1-9-5.9-15.6-8.3c-2.7-1-5.6-1.8-8.7-2.6c0.8-3,1.5-6,2.1-8.8
				c1.3-6.9,1.5-12.8,0.6-17.6c-0.7-3.9-2.5-9.1-7.3-11.9c-4.8-2.8-10.2-1.7-13.9-0.4c-4.6,1.7-9.6,4.8-15,9.4
				c-2.4,2.1-4.8,4.4-7.3,6.9c-2.5-2.5-5-4.7-7.5-6.7c-5.5-4.4-10.6-7.4-15.2-8.9c-3.8-1.2-9.2-2.1-13.9,0.8
				c-4.7,2.9-6.4,8.2-6.9,12.1c-0.7,4.8-0.3,10.8,1.1,17.6c0.5,2.5,1.2,5.1,2,7.8c-2.7,0.7-5.3,1.5-7.7,2.4
				c-6.6,2.4-11.8,5.1-15.6,8.3c-3,2.5-6.7,6.8-6.7,12.3s3.6,9.7,6.7,12.3c3.7,3.1,9,5.9,15.6,8.3c2.7,1,5.6,1.8,8.7,2.6
				c-0.8,3-1.5,6-2.1,8.8c-1.3,6.9-1.5,12.8-0.6,17.6c0.7,3.9,2.5,9.1,7.3,11.9c2.2,1.3,4.5,1.7,6.8,1.7c2.6,0,5.1-0.6,7.2-1.4
				c4.6-1.7,9.6-4.8,15-9.4c2.4-2.1,4.8-4.4,7.3-6.9c2.5,2.5,5,4.7,7.5,6.7c5.5,4.4,10.6,7.4,15.2,8.9c1.9,0.6,4.2,1.2,6.7,1.2
				c2.4,0,4.9-0.5,7.2-1.9c4.7-2.9,6.4-8.2,6.9-12.1c0.7-4.8,0.3-10.8-1.1-17.6c-0.5-2.5-1.2-5.1-2-7.8c2.7-0.7,5.3-1.5,7.7-2.4
				c6.6-2.4,11.8-5.1,15.6-8.3c3-2.5,6.7-6.8,6.7-12.3S725.9,191.3,722.8,188.7L722.8,188.7z M670,154.3c4.6-3.9,8.9-6.6,12.6-8
				c1.7-0.6,3.2-0.9,4.5-0.9c1.2,0,2.2,0.2,3,0.7c1.8,1,3,3.2,3.6,6.6c0.7,3.9,0.5,9-0.6,14.9c-0.5,2.7-1.2,5.6-2,8.5
				c-5.5-1.1-11.4-1.8-17.5-2.3c-3.4-4.7-6.9-9-10.5-12.9C665.4,158.5,667.7,156.3,670,154.3L670,154.3z M685.7,209.2
				c1.4,3.1,2.7,6.1,3.8,9.1c-3.2,0.6-6.5,1.1-10,1.5c1-1.6,2-3.3,3-5C683.6,213,684.7,211.1,685.7,209.2L685.7,209.2z M675.9,211
				c-1.9,3.4-3.9,6.6-6,9.7c-3.7,0.2-7.5,0.4-11.4,0.4s-7.4-0.1-11-0.3c-2.1-3-4.1-6-6.1-9.2c-2.1-3.4-4.1-6.8-5.9-10.2
				c1.7-3.5,3.6-6.9,5.6-10.4c1.9-3.4,3.9-6.6,6-9.7c3.7-0.2,7.5-0.4,11.4-0.4s7.4,0.1,11,0.3c2.1,3,4.1,6,6.1,9.2
				c2.1,3.4,4.1,6.8,5.9,10.2C679.7,204.1,677.9,207.6,675.9,211z M659,235.3c-1.9-2.1-3.8-4.3-5.6-6.7c1.7,0,3.4,0.1,5.1,0.1
				c2,0,3.9,0,5.8-0.1C662.5,231,660.7,233.2,659,235.3z M634.8,215.6c0.9,1.5,1.8,2.9,2.7,4.3c-3.2-0.4-6.4-0.9-9.4-1.4
				c1-2.8,2.1-5.6,3.3-8.5C632.6,211.8,633.7,213.7,634.8,215.6L634.8,215.6z M631.2,192.8c-1.4-3.1-2.7-6.1-3.8-9.1
				c3.2-0.6,6.5-1.1,10-1.5c-1,1.6-2,3.3-3,5C633.3,189,632.2,190.9,631.2,192.8L631.2,192.8z M658,166.6c1.9,2.1,3.8,4.3,5.6,6.7
				c-1.7,0-3.4-0.1-5.1-0.1c-2,0-3.9,0-5.8,0.1C654.4,171,656.2,168.7,658,166.6z M682.1,186.4c-0.9-1.5-1.8-2.9-2.7-4.3
				c3.2,0.4,6.4,0.9,9.4,1.4c-1,2.8-2.1,5.6-3.3,8.5C684.3,190.1,683.2,188.2,682.1,186.4L682.1,186.4z M622.9,168.6
				c-1.3-5.9-1.6-11-1-14.9c0.5-3.4,1.6-5.6,3.4-6.7c0.9-0.5,2-0.8,3.2-0.8s2.7,0.3,4.3,0.8c3.7,1.2,8.2,3.9,12.8,7.6
				c2.3,1.9,4.7,4,7.1,6.4c-3.3,3.9-6.7,8.2-9.8,12.8c-6.3,0.5-12.3,1.4-17.9,2.5C624.1,173.7,623.4,171.1,622.9,168.6L622.9,168.6z
				 M612.2,214.3c-5.7-2-10.2-4.4-13.2-6.9c-2.6-2.2-3.9-4.3-3.9-6.4s1.3-4.2,3.9-6.4c3-2.5,7.6-4.9,13.2-6.9
				c2.4-0.9,4.9-1.6,7.6-2.3c1.9,5.2,4.3,10.6,7.1,16.1c-2.4,5.2-4.5,10.4-6.3,15.4C617.7,216.1,614.8,215.2,612.2,214.3
				L612.2,214.3z M646.9,247.7c-4.6,3.9-8.9,6.6-12.6,8c-3.2,1.2-5.7,1.2-7.5,0.2c-1.8-1-3-3.2-3.6-6.6c-0.7-3.9-0.5-9,0.6-14.9
				c0.5-2.7,1.2-5.6,2-8.5c5.5,1.1,11.4,1.8,17.5,2.3c3.4,4.7,6.9,9,10.5,12.9C651.5,243.5,649.2,245.7,646.9,247.7L646.9,247.7z
				 M694.1,233.3c1.3,5.9,1.6,11,1,14.9c-0.5,3.4-1.6,5.6-3.4,6.7s-4.3,1.1-7.5,0c-3.7-1.2-8.2-3.9-12.8-7.6c-2.3-1.9-4.7-4-7.1-6.4
				c3.3-3.9,6.7-8.2,9.8-12.8c6.3-0.5,12.3-1.4,17.9-2.5C692.8,228.3,693.5,230.8,694.1,233.3L694.1,233.3z M717.9,207.4
				c-3,2.5-7.6,4.9-13.2,6.9c-2.4,0.9-4.9,1.6-7.6,2.3c-1.9-5.2-4.3-10.6-7.1-16.1c2.4-5.2,4.5-10.4,6.3-15.4c3,0.8,5.8,1.6,8.4,2.5
				c5.7,2,10.2,4.4,13.2,6.9c2.6,2.2,3.9,4.3,3.9,6.4S720.5,205.2,717.9,207.4L717.9,207.4z"/>
		</g>
		
			<linearGradient id="SVGID_1_" gradientUnits="userSpaceOnUse" x1="608.81" y1="495.7382" x2="708.0701" y2="495.7382" gradientTransform="matrix(1 0 0 -1 0 780.3165)">
			<stop  offset="0" style="stop-color:#8500FF"/>
			<stop  offset="9.000000e-02" style="stop-color:#7C16FF"/>
			<stop  offset="0.29" style="stop-color:#6550FF"/>
			<stop  offset="0.58" style="stop-color:#42ADFF"/>
			<stop  offset="0.7" style="stop-color:#32D8FF"/>
			<stop  offset="0.8" style="stop-color:#32D8FF"/>
			<stop  offset="1" style="stop-color:#32D8FF"/>
		</linearGradient>
		<path class="st5" d="M708.1,282.4V277h-3.8v-5.5h-7.9v5.5h-3.1v3.7c-1.4-2.2-4-4.2-9-4.2c-6.3,0-10.1,3.8-10.9,9.1v-1.2
			c0-5.1-2.8-7.9-9.8-7.9c-7.6,0-9.7,3.5-10,7h7.3c0.2-1.4,0.7-2.2,2.5-2.2c1.9,0,2.4,1,2.4,2.4v1.2h-2.6c-4.8,0-8.3,1.2-9.8,3.9
			c0-0.4,0-0.8,0-1.3c0-5.3-2.5-10.9-10.8-10.9c-7.8,0-11.2,5-11.2,11.4c0,0.1,0,0.3,0,0.4c-0.7-2.1-1.9-3.1-3.2-3.5
			c2-0.8,4.2-2.8,4.2-6.7c0-4.2-3.2-7.8-9.8-7.8h-13.9v28.1h8v-10.6h2.9c3.6,0,4.2,1.3,4.2,3.8v0.7c0,2.9,0.1,4.9,0.6,6.1h7.8
			c-0.3-1.2-0.4-3.5-0.4-5.2V292c0-0.1,0-0.2,0-0.3c1.2,4,4.3,7.2,10.5,7.2s9-3.1,10.2-5.7c0.5,3.3,3,5.7,7.3,5.7c3.4,0,5-1.2,6-2.5
			c0,0.5,0.2,1.5,0.3,2h7.3c-0.1-0.7-0.3-3.9-0.3-6.3v-1.8c0.8,5,4.1,8.7,10.7,8.7c7.4,0,9.9-4.1,10.5-7.9h-7.6
			c-0.3,1.4-1,2.7-2.7,2.7c-1.9,0-3-1.6-3-6c0-3.9,1-5.8,3-5.8c1.8,0,2.4,1.2,2.6,2.7h7.6c0-0.6-0.2-1.3-0.5-2.1h2.2v9.9
			c0,4,1.4,6.5,6.5,6.5c1.3,0,3.4-0.1,4.6-0.5v-4.9c-0.4,0-0.8,0-1.1,0c-1.7,0-2.1-0.5-2.1-1.8v-9.2L708.1,282.4L708.1,282.4z
			 M620.6,282h-3.8v-6h3.8c2.5,0,3.7,1.1,3.7,3S623.3,282,620.6,282z M642.6,281.4c2.3,0,2.8,1.7,2.9,3.7h-6
			C639.7,283,640.5,281.4,642.6,281.4L642.6,281.4z M645.5,291.6c-0.4,1.1-0.9,1.9-2.8,1.9c-2.3,0-3.2-2.2-3.2-4.3h13.7
			c-0.3,0.7-0.5,1.5-0.5,2.4L645.5,291.6L645.5,291.6z M665.8,289.5c0,2.3-0.4,4.1-3.1,4.1c-1.6,0-2.3-1-2.3-2.3
			c0-1.6,0.9-2.5,3.6-2.5h1.8V289.5L665.8,289.5z"/>
	</g>
	<g>
		<g>
			<path class="st2" d="M76.1,227.7l18.8-18.8c5.7-5.7,14.9-5.7,20.6,0l18.8,18.8c5.7,5.7,5.7,14.9,0,20.6l-18.8,18.8
				c-5.7,5.7-14.9,5.7-20.6,0l-18.8-18.8C70.4,242.6,70.4,233.4,76.1,227.7z"/>
			<path class="st1" d="M120.8,232.8c-0.8,0-1.5,0.1-2.1,0.4l-8.3-8.3c0.3-0.6,0.4-1.4,0.4-2.1c0-3-2.5-5.5-5.5-5.5
				c-0.7,0-1.4,0.1-2.1,0.4l-9-9l-2.9,2.9l9,9c-0.3,0.7-0.4,1.4-0.4,2.2c0,2.3,1.4,4.3,3.4,5.1v20.7c-2,0.8-3.4,2.8-3.4,5.1
				c0,3,2.5,5.5,5.5,5.5s5.5-2.5,5.5-5.5c0-2.3-1.4-4.3-3.4-5.1v-20.7c0,0,0.1,0,0.1,0l8.2,8.2c-0.3,0.7-0.4,1.4-0.4,2.1
				c0,3,2.5,5.5,5.5,5.5s5.5-2.5,5.5-5.5S123.8,232.7,120.8,232.8L120.8,232.8z"/>
		</g>
		<path d="M144.9,254.8c0-3.6,2.9-5.4,6.7-6.6v-0.4c-2.2-0.9-4-2.4-4-5c0-2.9,1.9-4.7,4.5-6.6c-3-1.8-4.8-4.5-4.8-8.5v-0.4
			c0-7.6,6-11.5,15.6-11.5c2.4,0,4.6,0.2,6.6,0.6h12.1v6.7H177c0.8,1.1,1.2,2.2,1.2,3.9v0.4c0,7.4-6,11-15.3,11
			c-1.9,0-3.6-0.1-5.2-0.5c-0.4,0.6-0.7,0.7-0.7,1.4c0,1.3,0.8,1.7,2.7,1.7H170c7.6,0,12.1,2.7,12.1,9.6c0,7.5-6.1,12.3-19.5,12.3
			C150.2,262.9,144.9,259.7,144.9,254.8L144.9,254.8z M170.4,252.4c0-2.1-0.9-2.3-4.6-2.3h-7.6c-1.5,0.5-2.4,1.1-2.4,2.8
			c0,2,1.4,3.1,6.8,3.1C168.5,256,170.4,254.5,170.4,252.4L170.4,252.4z M167.2,227.6V227c0-3.7-1.6-4.5-4.3-4.5
			c-2.9,0-4.4,1.1-4.4,4.5v0.6c0,3.4,1.5,4.5,4.4,4.5S167.2,230.9,167.2,227.6z"/>
		<path d="M184.2,203.4h12.1v9.1h-12.1L184.2,203.4L184.2,203.4z M184.2,216.5h11.9v36h-11.9L184.2,216.5L184.2,216.5z"/>
		<path d="M203,242.7v-17.9h-4.5v-8.2h4.5V208H215v8.5h7.3v8.2H215V241c0,2.5,1.1,3.3,3.9,3.3c1.3,0,2.6-0.1,3.6-0.4v7.7
			c-1.5,0.7-4.1,1.4-8,1.4C207.3,253,203,250.6,203,242.7L203,242.7z"/>
	</g>
	<path class="st6" d="M256.2,601.1c-2.1-4.3-6.1-7.6-10.8-8.5s-9.6,0.1-14.3,1.2c-2.2-3.6-3.1-8.7-1.9-13.3
		c-1.4-2.2-4.8-2.2-5.4-0.5c-1.7,4.8-1.5,4.6-2.7,6.9c-1.7,3.1-3.8,6.4-5.2,9.2c-1.6-1.4-2-5.5-1.8-7.6s1.3-4.5,0.6-5.1
		c-1.8-1.7-5.1-1.5-6.1,0.8l-11.1,24.7c0,0.1-0.1,0.2-0.2,0.2s-0.1-0.1-0.1-0.2l0,0c0.4-5.2,1.9-9.6,2.2-14.8
		c0.4-1.8-3.6,1.1-3.2-0.6c1.5-5.8-3-6.4-4.8-6.1c-3.6,0.5-6.4,3.1-9.1,5.7s-7.1,5.9-10.7,6.2c-4.7-3.3-8.4-7.2-12.4-10.7
		c-5.3-4.6-5.9-12.8-1.5-18.2c10.9-13,28.1-20.4,45-19.3c4.2,0.3,7.3,3.9,7,8c0,0.7-0.2,1.3-0.4,2c-4.6,13.5-19.2,20.7-32.8,16.2
		c-1.4-0.5-2.7-1-4-1.7c-0.3-0.2-0.6,0-0.7,0.2c-0.1,0.2-0.1,0.3,0,0.5l1.2,1.7c2.6,3.7,12.7,6.6,20.5,3.9c7.4-2.5,13.1-7,18.5-12.6
		c4.6-4.7,5.3-13,1.4-18.3s-10.1-6.5-16.6-6.3c-6.4,0.2-12.7,2.3-18.8,4.2c-6.3,2-11.7,4.9-17,8.7c-7.9,5.7-17.9,14-14.5,23.1
		c3.3,8.9,13.1,16.7,21.4,20.8c-8.6,5.2-14.9,7-18,15c-0.8,2.2,0,6.6,1.4,8.5s4.4,3,6.7,2.8c6-0.5,10.6-3.3,13.9-8.3
		c3.3-5.1,4.1-11.5,2.2-17.3l5.9-3.6c-1.9,5.3-1.8,11.1,0.1,16.4c0.8,2,3,3,4.9,2.2c1.3-0.5,1.3-0.5,0.1,0c1.9-0.8,3-2.5,3.9-4.3
		c0.8-1.6,1.8-3.8,2.8-5.3c0-0.1,0.1-0.1,0.2,0c0,0,0.1,0.1,0.1,0.2c-0.2,2-0.5,8.8,3.7,7.6c1.2-0.3,2.1-1,2.8-2.1
		c4.4-6.5,7.8-13.5,9.9-21.1c0-0.1,0.1-0.2,0.3-0.2c0,0,0.1,0,0.1,0.1c2.1,2.9,4,7.4,2.5,10.7c-1.6,3.5-3,6-6.6,7.9
		c-1.1,0.5-1.4,1.8-0.9,2.8c0.1,0.3,0.4,0.6,0.7,0.8c3.4,2.2,7.4-0.6,10.5-3.2c3.5-3,2.4-8.2,3.1-12.2s3-6.8,5.6-9.9
		c0,0,0.1,0,0.1,0l0,0l3.2,8.9c-4.1,2.7-8.7,11.4-4.4,12.3c3.1,0.7,5.1-0.3,8.1-2.9c2.8-2.5,3-7.2,1.4-10.6c4-0.5,7.9-1.2,11.8-0.7
		s8.8,2.2,9.9,5.9s0.4,4.5-1.8,8.2C249,614.6,258.8,606.7,256.2,601.1L256.2,601.1L256.2,601.1z M162.1,621.6c-2,1-4.5,0.2-5.5-1.8
		c-0.7-1.3-0.6-2.9,0.2-4.2c3.4-5.1,8.1-9.2,13.6-11.9c0.3-0.2,1.1,0.5,1.1,1.3C171.9,611.7,168.1,618.5,162.1,621.6L162.1,621.6z
		 M193.4,592.3c-1.2,5.2-3.1,12.5-6.6,18.1c-0.4,0.6-1.2,0.8-1.9,0.4c-0.3-0.2-0.6-0.6-0.6-0.9c-1-7.2,1.6-14.4,7.1-19.1
		c0.5-0.4,1.2-0.4,1.6,0C193.5,591,193.5,591.7,193.4,592.3L193.4,592.3z M212.7,608.5c-1.1,1.3-2.6,2.1-4.2,2.5
		c-0.1,0,0.4-2,1.2-2.4c1.9-1,3.4-2.7,4.2-4.8c0.1-0.2,0.3-0.3,0.5-0.2c0.1,0.1,0.2,0.2,0.2,0.3
		C214.5,605.6,213.8,607.2,212.7,608.5L212.7,608.5z M228.3,604.3c-0.8,1.3-2,2.3-3.4,2.8c-0.3,0.1-0.6,0-0.7-0.3c0-0.1,0-0.2,0-0.3
		c0.2-2.8,1.7-5.3,4-7c0.3-0.2,0.6-0.1,0.8,0.2c0,0,0.1,0.1,0.1,0.2C229.4,601.4,229.1,603,228.3,604.3L228.3,604.3L228.3,604.3z"/>
	<g>
		<g>
			<path d="M312.1,703.4v12.8h-3.8v-12.8h-1.6v-3.5h1.6v-6h3.8v6h2.9v3.5H312.1z"/>
			<path d="M328.9,699.8h3.8v16.4h-3.8v-1.7c-1.6,1.5-3.2,2.2-5,2.2c-2.3,0-4.1-0.8-5.6-2.5c-1.5-1.7-2.2-3.8-2.2-6.2
				s0.7-4.5,2.2-6.1s3.3-2.5,5.5-2.5c1.9,0,3.6,0.8,5.1,2.3L328.9,699.8L328.9,699.8z M319.9,708c0,1.6,0.4,2.8,1.3,3.8
				c0.9,1,2,1.5,3.3,1.5c1.4,0,2.5-0.5,3.4-1.4c0.9-1,1.3-2.3,1.3-3.8s-0.4-2.8-1.3-3.8c-0.9-1-2-1.5-3.4-1.5
				c-1.3,0-2.4,0.5-3.3,1.5C320.3,705.3,319.9,706.5,319.9,708L319.9,708z"/>
			<path d="M335.7,693c0-0.7,0.2-1.2,0.7-1.7s1.1-0.7,1.7-0.7s1.3,0.2,1.8,0.7c0.5,0.5,0.7,1,0.7,1.7s-0.2,1.3-0.7,1.8
				c-0.5,0.5-1,0.7-1.7,0.7s-1.3-0.2-1.8-0.7S335.7,693.7,335.7,693L335.7,693z M340,699.8v16.4h-3.8v-16.4H340z"/>
			<path d="M347.4,687.8v28.4h-3.8v-28.4H347.4z"/>
			<path d="M353.1,699.8l4.3,9.3l4.6-10.8l4.6,10.8l4.2-9.3h4.2l-8.6,17.6l-4.5-10.5l-4.6,10.5l-8.5-17.6H353.1L353.1,699.8z"/>
			<path d="M375.9,693c0-0.7,0.2-1.2,0.7-1.7s1.1-0.7,1.7-0.7s1.3,0.2,1.8,0.7c0.5,0.5,0.7,1,0.7,1.7s-0.2,1.3-0.7,1.8
				c-0.5,0.5-1,0.7-1.7,0.7s-1.3-0.2-1.8-0.7S375.9,693.7,375.9,693L375.9,693z M380.3,699.8v16.4h-3.8v-16.4H380.3z"/>
			<path d="M383.9,699.8h3.8v1.5c1.3-1.3,2.8-2,4.5-2c1.9,0,3.4,0.6,4.5,1.8c0.9,1,1.4,2.7,1.4,5v10h-3.8v-9.1
				c0-1.6-0.2-2.7-0.7-3.3c-0.4-0.6-1.2-0.9-2.4-0.9c-1.2,0-2.1,0.4-2.7,1.2c-0.5,0.8-0.8,2.2-0.8,4.3v7.9h-3.8V699.8L383.9,699.8z"
				/>
			<path d="M413.7,687.8h3.8v28.4h-3.8v-1.7c-1.5,1.5-3.2,2.2-5.1,2.2c-2.2,0-4.1-0.8-5.6-2.5c-1.5-1.7-2.2-3.8-2.2-6.2
				s0.7-4.5,2.2-6.1c1.5-1.7,3.3-2.5,5.5-2.5c1.9,0,3.6,0.8,5.1,2.3L413.7,687.8L413.7,687.8z M404.7,708c0,1.6,0.4,2.8,1.3,3.8
				c0.9,1,2,1.5,3.3,1.5c1.4,0,2.5-0.5,3.4-1.4c0.9-1,1.3-2.3,1.3-3.8s-0.4-2.8-1.3-3.8c-0.9-1-2-1.5-3.4-1.5
				c-1.3,0-2.4,0.5-3.3,1.5C405.1,705.3,404.7,706.5,404.7,708L404.7,708z"/>
			<path d="M433.8,700.5v5c-0.9-1-1.6-1.8-2.3-2.2c-0.7-0.4-1.5-0.6-2.4-0.6c-1.4,0-2.6,0.5-3.5,1.5s-1.4,2.2-1.4,3.8
				s0.5,2.8,1.4,3.8c0.9,1,2.1,1.5,3.5,1.5c0.9,0,1.7-0.2,2.4-0.6c0.7-0.4,1.5-1.1,2.4-2.2v5c-1.5,0.8-3.1,1.2-4.6,1.2
				c-2.5,0-4.6-0.8-6.4-2.5c-1.7-1.7-2.5-3.7-2.5-6.1s0.9-4.5,2.6-6.2s3.8-2.5,6.4-2.5C430.8,699.4,432.4,699.8,433.8,700.5
				L433.8,700.5z"/>
			<path d="M445.8,702.6l-3.1,1.7c-0.5-1-1.1-1.5-1.8-1.5c-0.4,0-0.6,0.1-0.9,0.3s-0.4,0.5-0.4,0.9c0,0.6,0.7,1.2,2.2,1.9
				c2,0.9,3.4,1.7,4,2.4s1,1.7,1,2.9c0,1.6-0.6,2.9-1.8,4c-1.1,1-2.5,1.5-4.1,1.5c-2.7,0-4.7-1.3-5.8-4l3.2-1.5
				c0.5,0.8,0.8,1.3,1,1.5c0.5,0.4,1,0.6,1.6,0.6c1.3,0,1.9-0.6,1.9-1.8c0-0.7-0.5-1.3-1.5-1.9c-0.4-0.2-0.8-0.4-1.1-0.5
				s-0.8-0.4-1.2-0.5c-1.1-0.5-1.9-1.1-2.3-1.6c-0.6-0.7-0.9-1.6-0.9-2.6c0-1.4,0.5-2.6,1.5-3.5c1-0.9,2.2-1.4,3.6-1.4
				C443.2,699.4,444.8,700.5,445.8,702.6L445.8,702.6z"/>
			<path d="M458.6,702.6l-3.1,1.7c-0.5-1-1.1-1.5-1.8-1.5c-0.4,0-0.6,0.1-0.9,0.3s-0.4,0.5-0.4,0.9c0,0.6,0.7,1.2,2.2,1.9
				c2,0.9,3.4,1.7,4,2.4s1,1.7,1,2.9c0,1.6-0.6,2.9-1.8,4c-1.1,1-2.5,1.5-4.1,1.5c-2.7,0-4.7-1.3-5.8-4l3.2-1.5
				c0.5,0.8,0.8,1.3,1,1.5c0.5,0.4,1,0.6,1.6,0.6c1.3,0,1.9-0.6,1.9-1.8c0-0.7-0.5-1.3-1.5-1.9c-0.4-0.2-0.8-0.4-1.1-0.5
				s-0.8-0.4-1.2-0.5c-1.1-0.5-1.9-1.1-2.3-1.6c-0.6-0.7-0.9-1.6-0.9-2.6c0-1.4,0.5-2.6,1.5-3.5c1-0.9,2.2-1.4,3.6-1.4
				C456,699.4,457.6,700.5,458.6,702.6L458.6,702.6z"/>
		</g>
		<g>
			<path class="st7" d="M382.8,622.7c-12.6,0-20.5,6.3-23.6,18.9c4.7-6.3,10.2-8.7,16.5-7.1c3.6,0.9,6.2,3.5,9,6.4
				c4.6,4.7,10,10.1,21.7,10.1c12.6,0,20.5-6.3,23.6-18.9c-4.7,6.3-10.2,8.7-16.5,7.1c-3.6-0.9-6.2-3.5-9-6.4
				C399.8,628.1,394.5,622.7,382.8,622.7z"/>
			<path class="st7" d="M359.2,651c-12.6,0-20.5,6.3-23.6,18.9c4.7-6.3,10.2-8.7,16.5-7.1c3.6,0.9,6.2,3.5,9,6.4
				c4.6,4.7,10,10.1,21.7,10.1c12.6,0,20.5-6.3,23.6-18.9c-4.7,6.3-10.2,8.7-16.5,7.1c-3.6-0.9-6.2-3.5-9-6.4
				C376.2,656.4,370.9,651,359.2,651z"/>
		</g>
	</g>
	<g>
		<g>
			<circle cx="688.9" cy="418.9" r="27.7"/>
			
				<linearGradient id="SVGID_00000093878114980172801480000000889685327599488641_" gradientUnits="userSpaceOnUse" x1="689.9294" y1="1716.6506" x2="700.8594" y2="1730.1907" gradientTransform="matrix(1 0 0 1 0 -1285.65)">
				<stop  offset="0" style="stop-color:#FFFFFF"/>
				<stop  offset="1" style="stop-color:#FFFFFF;stop-opacity:0"/>
			</linearGradient>
			<path style="fill:url(#SVGID_00000093878114980172801480000000889685327599488641_);" d="M707.2,439.7l-24.7-31.9h-4.7V430h3.7
				v-17.4l22.7,29.4C705.4,441.3,706.3,440.5,707.2,439.7L707.2,439.7z"/>
			
				<linearGradient id="SVGID_00000088851694846653790720000016653672580536520383_" gradientUnits="userSpaceOnUse" x1="698.5059" y1="1693.4916" x2="698.4459" y2="1709.7616" gradientTransform="matrix(1 0 0 1 0 -1285.65)">
				<stop  offset="0" style="stop-color:#FFFFFF"/>
				<stop  offset="1" style="stop-color:#FFFFFF;stop-opacity:0"/>
			</linearGradient>
			
				<rect x="696.6" y="407.8" style="fill:url(#SVGID_00000088851694846653790720000016653672580536520383_);" width="3.7" height="22.2"/>
		</g>
		<g>
			<path d="M629.2,468.6h6.3l6.2,9.5c1.1,1.7,2.2,3.5,3.2,5.2s1.8,3.4,2.4,4.8h0.1c-0.2-1.8-0.2-3.6-0.3-5.4s0-3.6,0-5.4v-8.7h6.3
				V497h-6.3l-6.6-9.7c-1.1-1.6-2.1-3.2-3-4.9c-0.9-1.7-1.7-3.4-2.3-5.2h-0.1c0.2,1.9,0.2,3.7,0.3,5.5s0,3.5,0,5.3v9h-6.3V468.6
				L629.2,468.6z"/>
			<path d="M676.5,488.1h-14v0.2c0,1.5,0.6,2.6,1.8,3.3s2.6,1,4.4,1c1.2,0,2.3-0.1,3.2-0.4s1.7-0.5,2.3-0.9l1.2,4.6
				c-0.8,0.4-1.8,0.7-3.1,1c-1.2,0.3-2.8,0.5-4.6,0.5c-1.6,0-3.2-0.2-4.6-0.7c-1.5-0.4-2.7-1.1-3.8-2c-1.1-0.9-2-2-2.6-3.4
				c-0.7-1.4-1-3-1-5c0-1.7,0.3-3.3,0.8-4.7c0.5-1.4,1.3-2.7,2.2-3.7c1-1,2.1-1.8,3.4-2.4c1.3-0.5,2.8-0.8,4.4-0.8
				c3,0,5.3,0.9,7.1,2.7c1.8,1.8,2.7,4.4,2.7,7.7L676.5,488.1L676.5,488.1z M669.7,483.6c0-0.5-0.1-1-0.2-1.5s-0.3-0.9-0.6-1.3
				c-0.3-0.4-0.6-0.7-1-0.9c-0.4-0.2-0.9-0.3-1.5-0.3c-1,0-1.9,0.4-2.6,1.1c-0.7,0.7-1.1,1.7-1.2,3L669.7,483.6L669.7,483.6z"/>
			<path d="M691.6,485.9l7.7,11.1h-7.7l-1.8-2.7l-2.4-4.3l-2.2,4.2l-1.7,2.8H676l7.6-11.1l-7.1-10.5h7.4l1.8,2.8l2.1,4.1l2-4.1
				l1.7-2.8h7.3L691.6,485.9L691.6,485.9z"/>
			<path d="M713.7,480.1h-5.5v9.1c0,1,0.2,1.7,0.7,2.1c0.4,0.4,1,0.6,1.8,0.6c0.6,0,1.2-0.1,1.8-0.2s1.1-0.3,1.4-0.5l1,4.5
				c-0.5,0.3-1.3,0.5-2.3,0.8c-1,0.3-2.1,0.4-3.3,0.4c-2.8,0-4.8-0.5-5.9-1.6c-1.2-1.1-1.7-2.7-1.7-4.9v-10.3h-3.4v-4.8h3.4v-6.6
				h6.6v6.6h5.5L713.7,480.1L713.7,480.1z"/>
			<path d="M715.6,493.5c0-1.1,0.4-2.1,1.2-2.8c0.8-0.7,1.7-1.1,2.7-1.1s2,0.4,2.7,1.1c0.8,0.7,1.1,1.7,1.1,2.8
				c0,1.2-0.4,2.2-1.1,2.9c-0.8,0.7-1.7,1.1-2.7,1.1s-2-0.3-2.7-1.1C716,495.7,715.6,494.8,715.6,493.5z"/>
			<path d="M725.4,475.4h6.7V494c0,1.7-0.1,3.3-0.4,4.7s-0.8,2.8-1.4,4.1c-0.7,1.2-1.6,2.4-2.7,3.3c-1.1,1-2.5,1.8-4.3,2.5l-2.8-4.5
				c0.8-0.4,1.6-0.9,2.2-1.3s1.2-1.1,1.5-1.8c0.4-0.7,0.7-1.6,0.9-2.7c0.2-1.1,0.3-2.4,0.3-4L725.4,475.4L725.4,475.4z M728.8,471.1
				c-1.1,0-2-0.3-2.6-1c-0.6-0.7-0.9-1.4-0.9-2.3s0.3-1.7,0.9-2.3c0.6-0.7,1.5-1,2.6-1s2,0.3,2.6,1c0.6,0.6,0.9,1.4,0.9,2.3
				s-0.3,1.7-0.9,2.3C730.8,470.8,729.9,471.1,728.8,471.1L728.8,471.1z"/>
			<path d="M749.1,480.9c-0.8-0.4-1.7-0.7-2.6-0.9s-1.8-0.3-2.6-0.3c-0.8,0-1.4,0.1-1.9,0.4c-0.5,0.3-0.7,0.7-0.7,1.1
				c0,0.5,0.2,0.9,0.7,1.3c0.5,0.3,1.4,0.7,2.8,1.1l1.3,0.4c1.8,0.5,3.2,1.3,4.1,2.4c0.9,1,1.4,2.4,1.4,4c0,1.1-0.2,2.1-0.7,3
				c-0.5,0.9-1.1,1.6-1.9,2.3c-0.8,0.6-1.8,1.1-3,1.4c-1.2,0.3-2.4,0.5-3.8,0.5c-1.5,0-2.9-0.1-4.1-0.4c-1.2-0.3-2.3-0.7-3.3-1.2
				l1.4-4.8c0.9,0.5,1.8,0.8,2.7,1.1c1,0.3,1.9,0.4,2.9,0.4c1.1,0,1.9-0.2,2.4-0.5c0.5-0.3,0.7-0.7,0.7-1.2c0-0.3,0-0.5-0.2-0.7
				c-0.1-0.2-0.3-0.4-0.6-0.6s-0.7-0.3-1.2-0.5c-0.5-0.2-1.1-0.4-1.9-0.6l-1.4-0.4c-1.8-0.6-3.1-1.4-3.9-2.4c-0.8-1-1.2-2.4-1.2-4.1
				c0-1,0.2-1.9,0.6-2.7c0.4-0.8,1-1.5,1.7-2.2c0.7-0.6,1.6-1.1,2.7-1.4s2.3-0.5,3.7-0.5s2.7,0.1,3.8,0.4c1.2,0.3,2.3,0.6,3.2,1.1
				L749.1,480.9L749.1,480.9z"/>
		</g>
	</g>
	<g>
		
			<ellipse transform="matrix(0.3827 -0.9239 0.9239 0.3827 -303.9479 312.7891)" class="st4" cx="82.1" cy="383.8" rx="8.7" ry="8.7"/>
		<path class="st4" d="M121.1,376.4c-0.9-0.8-2-1.5-3.2-2.2v-35c0-5.2-4.3-9.5-9.5-9.5H55.8c-5.2,0-9.5,4.3-9.5,9.5v35
			c-1.2,0.7-2.3,1.4-3.2,2.2c-1.8,1.5-4,4.1-4,7.4s2.2,5.9,4,7.4c0.9,0.8,2,1.5,3.2,2.2v35c0,5.2,4.3,9.5,9.5,9.5h52.7
			c5.2,0,9.5-4.3,9.5-9.5v-35c1.2-0.7,2.3-1.4,3.2-2.2c1.8-1.5,4-4.1,4-7.4S122.9,378,121.1,376.4z M50.5,339.3
			c0-2.9,2.3-5.2,5.2-5.2h52.7c2.9,0,5.2,2.4,5.2,5.2v32.9c-0.6-0.3-1.3-0.5-2-0.8c-1.7-0.6-3.4-1.1-5.2-1.6
			c0.5-1.8,0.9-3.6,1.2-5.3c0.8-4.2,0.9-7.8,0.4-10.7c-0.4-2.4-1.5-5.5-4.4-7.2s-6.2-1-8.4-0.2c-2.8,1-5.8,2.9-9.1,5.7
			c-1.5,1.2-2.9,2.6-4.4,4.2c-1.5-1.5-3-2.8-4.5-4c-3.3-2.7-6.4-4.5-9.2-5.4c-2.3-0.8-5.6-1.3-8.4,0.5c-2.8,1.8-3.8,5-4.2,7.3
			c-0.4,2.9-0.2,6.5,0.7,10.7c0.3,1.5,0.7,3.1,1.2,4.7c-1.6,0.4-3.2,0.9-4.7,1.4c-0.7,0.2-1.3,0.5-2,0.8L50.5,339.3L50.5,339.3z
			 M67.5,375.4c-0.7,1.2-1.3,2.3-1.9,3.5c-0.9-1.9-1.6-3.7-2.3-5.5c1.9-0.4,4-0.7,6.1-0.9C68.7,373.4,68.1,374.4,67.5,375.4
			L67.5,375.4z M67.8,392.7c0.5,0.9,1.1,1.8,1.7,2.6c-2-0.2-3.8-0.5-5.7-0.9c0.6-1.7,1.3-3.4,2-5.1
			C66.4,390.4,67.1,391.5,67.8,392.7z M61.7,368.9c-0.5-1.6-0.9-3.2-1.2-4.7c-0.8-3.6-1-6.7-0.6-9c0.3-2,1-3.4,2-4
			c0.5-0.3,1.2-0.5,1.9-0.5s1.6,0.2,2.6,0.5c2.2,0.7,4.9,2.3,7.8,4.6c1.4,1.1,2.9,2.4,4.3,3.9c-2,2.4-4,5-6,7.8
			C68.8,367.7,65.1,368.2,61.7,368.9L61.7,368.9z M63,384.1c-1.5,3.2-2.8,6.3-3.8,9.3c-1.8-0.5-3.5-1-5.1-1.5
			c-1.3-0.5-2.5-1-3.5-1.5v-13.2c1.1-0.5,2.3-1,3.5-1.5c1.5-0.5,3-1,4.6-1.4C59.9,377.5,61.3,380.8,63,384.1L63,384.1z M61.1,404.1
			c0.3-1.7,0.7-3.4,1.2-5.2c3.3,0.6,6.9,1.1,10.6,1.4c2.1,2.8,4.2,5.5,6.4,7.8c-1.4,1.5-2.8,2.8-4.2,4c-2.8,2.4-5.4,4-7.6,4.8
			c-1.9,0.7-3.5,0.7-4.5,0.1s-1.8-2-2.2-4C60.3,410.8,60.4,407.6,61.1,404.1L61.1,404.1z M79,400.6c1,0,2.1,0,3.1,0
			c1.2,0,2.3,0,3.5,0c-1.1,1.4-2.1,2.8-3.2,4C81.2,403.4,80.1,402,79,400.6L79,400.6z M82.1,396c-2.3,0-4.5-0.1-6.7-0.2
			c-1.3-1.8-2.5-3.7-3.7-5.6c-1.3-2.1-2.5-4.1-3.6-6.2c1-2.1,2.2-4.2,3.4-6.3c1.2-2,2.4-4,3.6-5.9c2.3-0.1,4.6-0.2,6.9-0.2
			s4.5,0.1,6.7,0.2c1.3,1.8,2.5,3.7,3.7,5.6c1.3,2.1,2.5,4.1,3.6,6.2c-1,2.1-2.2,4.2-3.4,6.3c-1.2,2-2.4,4-3.6,5.9
			C86.7,395.9,84.4,396,82.1,396z M96.6,392.3c0.7-1.2,1.3-2.3,1.9-3.5c0.9,1.9,1.6,3.7,2.3,5.5c-1.9,0.4-4,0.7-6.1,0.9
			C95.4,394.3,96.1,393.3,96.6,392.3L96.6,392.3z M96.4,375c-0.5-0.9-1.1-1.8-1.7-2.6c2,0.2,3.8,0.5,5.7,0.9c-0.6,1.7-1.3,3.4-2,5.1
			C97.8,377.3,97.1,376.1,96.4,375z M91.3,367.4c-2.1-2.8-4.2-5.5-6.4-7.8c1.4-1.5,2.8-2.8,4.2-4c2.8-2.4,5.4-4,7.6-4.8
			c1-0.4,1.9-0.6,2.7-0.6c0.7,0,1.3,0.2,1.8,0.4c1.1,0.6,1.8,2,2.2,4c0.4,2.3,0.3,5.5-0.4,9c-0.3,1.7-0.7,3.4-1.2,5.2
			C98.5,368.1,95,367.7,91.3,367.4z M85.2,367c-1,0-2.1,0-3.1,0c-1.2,0-2.3,0-3.5,0c1.1-1.4,2.1-2.8,3.2-4
			C82.9,364.3,84.1,365.6,85.2,367L85.2,367z M91.6,400.3c3.8-0.3,7.4-0.8,10.9-1.5c0.5,1.6,0.9,3.2,1.2,4.7c0.8,3.6,1,6.7,0.6,9
			c-0.3,2-1,3.4-2,4c-1.1,0.7-2.6,0.7-4.5,0c-2.2-0.7-4.9-2.3-7.8-4.6c-1.4-1.1-2.9-2.4-4.3-3.9C87.6,405.7,89.6,403.1,91.6,400.3z
			 M101.2,383.6c1.5-3.2,2.8-6.3,3.8-9.3c1.8,0.5,3.5,1,5.1,1.5c1.3,0.5,2.5,1,3.6,1.5v13.2c-1.1,0.5-2.3,1-3.6,1.5
			c-1.4,0.5-3,1-4.6,1.4C104.3,390.1,102.9,386.9,101.2,383.6L101.2,383.6z M46.1,387.7c-1.6-1.3-2.4-2.6-2.4-3.9s0.8-2.5,2.4-3.9
			c0.1,0,0.1-0.1,0.2-0.2v8C46.2,387.8,46.1,387.8,46.1,387.7L46.1,387.7z M113.6,428.4c0,2.9-2.3,5.2-5.2,5.2H55.7
			c-2.9,0-5.2-2.3-5.2-5.2v-32.9c0.6,0.3,1.3,0.5,2,0.8c1.7,0.6,3.4,1.1,5.2,1.6c-0.5,1.8-0.9,3.6-1.2,5.3
			c-0.8,4.2-0.9,7.8-0.4,10.7c0.4,2.4,1.5,5.5,4.4,7.2c1.3,0.8,2.8,1,4.1,1c1.6,0,3.1-0.4,4.3-0.8c2.8-1,5.8-2.9,9.1-5.7
			c1.5-1.2,2.9-2.6,4.4-4.2c1.5,1.5,3,2.8,4.5,4c3.3,2.7,6.4,4.5,9.2,5.4c1.2,0.4,2.6,0.7,4.1,0.7c1.4,0,3-0.3,4.4-1.2
			c2.8-1.8,3.8-5,4.2-7.3c0.4-2.9,0.2-6.5-0.7-10.7c-0.3-1.5-0.7-3.1-1.2-4.7c1.6-0.4,3.2-0.9,4.7-1.4c0.7-0.2,1.3-0.5,2-0.8
			L113.6,428.4L113.6,428.4z M118.1,387.7c-0.1,0-0.1,0.1-0.2,0.2v-8c0.1,0,0.1,0.1,0.2,0.2c1.6,1.3,2.4,2.6,2.4,3.9
			S119.7,386.4,118.1,387.7L118.1,387.7z"/>
		<path d="M59.7,443.9c0.8,0,1.5,0.1,2.2,0.4c0.6,0.3,1.2,0.6,1.6,1.1s0.8,1,1,1.6s0.4,1.3,0.4,2c0,1.1-0.2,2-0.7,2.8
			c-0.4,0.8-1.2,1.4-2.2,1.8v0c0.5,0.1,0.9,0.3,1.2,0.6c0.3,0.3,0.6,0.6,0.8,1c0.2,0.4,0.3,0.8,0.4,1.3c0.1,0.5,0.2,0.9,0.2,1.4
			c0,0.3,0,0.6,0.1,1c0,0.4,0.1,0.8,0.1,1.2c0,0.4,0.1,0.8,0.2,1.2s0.2,0.7,0.4,1h-3.9c-0.2-0.6-0.3-1.3-0.4-2.1
			c0-0.8-0.1-1.6-0.2-2.3c-0.1-1-0.4-1.7-0.8-2.1s-1.1-0.7-2.1-0.7h-3.9v7.3h-3.9v-18.6L59.7,443.9L59.7,443.9z M58.4,452.3
			c0.9,0,1.6-0.2,2-0.6s0.7-1.1,0.7-2s-0.2-1.6-0.7-2c-0.5-0.4-1.1-0.6-2-0.6h-4.3v5.2L58.4,452.3L58.4,452.3z"/>
		<path d="M71.1,459.3c0.5,0.5,1.3,0.8,2.3,0.8c0.7,0,1.3-0.2,1.8-0.6c0.5-0.4,0.8-0.8,0.9-1.2h3.1c-0.5,1.6-1.3,2.8-2.3,3.5
			c-1,0.7-2.3,1-3.7,1c-1,0-1.9-0.2-2.7-0.5c-0.8-0.3-1.5-0.8-2.1-1.4s-1-1.4-1.3-2.2c-0.3-0.9-0.5-1.8-0.5-2.9s0.2-1.9,0.5-2.8
			s0.8-1.6,1.3-2.2c0.6-0.6,1.3-1.1,2.1-1.5c0.8-0.4,1.7-0.5,2.7-0.5c1.1,0,2,0.2,2.9,0.7c0.8,0.4,1.5,1,2,1.8
			c0.5,0.8,0.9,1.6,1.1,2.5c0.2,1,0.3,2,0.2,3h-9.3C70.3,457.9,70.6,458.7,71.1,459.3L71.1,459.3z M75.1,452.2
			c-0.4-0.5-1.1-0.7-1.9-0.7c-0.6,0-1,0.1-1.4,0.3s-0.7,0.5-0.9,0.7c-0.2,0.3-0.4,0.6-0.5,0.9c-0.1,0.3-0.2,0.6-0.2,0.9H76
			C75.8,453.4,75.5,452.7,75.1,452.2L75.1,452.2z"/>
		<path d="M81,453.2c0.1-0.9,0.3-1.6,0.6-2.2c0.4-0.6,0.8-1,1.4-1.4s1.2-0.6,1.9-0.7c0.7-0.2,1.4-0.2,2.1-0.2c0.7,0,1.3,0,2,0.1
			c0.7,0.1,1.3,0.3,1.8,0.6c0.6,0.3,1,0.7,1.3,1.2c0.3,0.5,0.5,1.2,0.5,2v7c0,0.6,0,1.2,0.1,1.7c0.1,0.6,0.2,1,0.3,1.2h-3.6
			c-0.1-0.2-0.1-0.4-0.2-0.6c0-0.2-0.1-0.4-0.1-0.7c-0.6,0.6-1.2,1-2,1.3c-0.8,0.2-1.5,0.4-2.3,0.4c-0.6,0-1.2-0.1-1.7-0.2
			c-0.5-0.2-1-0.4-1.4-0.7c-0.4-0.3-0.7-0.8-0.9-1.2s-0.3-1.1-0.3-1.8c0-0.8,0.1-1.4,0.4-1.9c0.3-0.5,0.6-0.9,1-1.2
			c0.4-0.3,0.9-0.5,1.4-0.7c0.5-0.2,1.1-0.3,1.6-0.3c0.5-0.1,1.1-0.2,1.6-0.2c0.5,0,1-0.1,1.4-0.2s0.7-0.3,0.9-0.5s0.3-0.5,0.3-0.9
			c0-0.4-0.1-0.7-0.2-1s-0.3-0.4-0.5-0.5s-0.4-0.2-0.7-0.3s-0.6-0.1-0.9-0.1c-0.7,0-1.2,0.2-1.6,0.5s-0.6,0.8-0.7,1.6L81,453.2
			L81,453.2z M89.1,455.9c-0.2,0.1-0.3,0.2-0.6,0.3s-0.5,0.1-0.7,0.2c-0.3,0-0.5,0.1-0.8,0.1c-0.3,0-0.6,0.1-0.8,0.1
			c-0.3,0-0.5,0.1-0.8,0.2c-0.3,0.1-0.5,0.2-0.7,0.3c-0.2,0.2-0.3,0.3-0.5,0.6s-0.2,0.5-0.2,0.9s0.1,0.6,0.2,0.8
			c0.1,0.2,0.3,0.4,0.5,0.5c0.2,0.1,0.4,0.2,0.7,0.3c0.3,0,0.5,0.1,0.8,0.1c0.7,0,1.2-0.1,1.6-0.4s0.7-0.5,0.8-0.9
			c0.2-0.3,0.3-0.7,0.3-1c0-0.3,0.1-0.6,0.1-0.8V455.9L89.1,455.9z"/>
		<path d="M101.1,451.5c-0.6,0-1,0.1-1.4,0.4c-0.4,0.3-0.7,0.6-0.9,1c-0.2,0.4-0.4,0.9-0.5,1.4s-0.2,1-0.2,1.5s0.1,1,0.2,1.5
			s0.3,1,0.5,1.4s0.5,0.7,0.9,1c0.4,0.3,0.8,0.4,1.4,0.4c0.8,0,1.5-0.2,1.9-0.7s0.7-1.2,0.9-2h3.4c-0.2,1.8-0.9,3.2-2,4.1
			c-1.1,0.9-2.5,1.4-4.2,1.4c-1,0-1.8-0.2-2.6-0.5s-1.5-0.8-2.1-1.4c-0.6-0.6-1-1.3-1.3-2.2c-0.3-0.8-0.5-1.8-0.5-2.8s0.1-2,0.4-2.9
			s0.7-1.7,1.3-2.3s1.2-1.2,2.1-1.5c0.8-0.4,1.7-0.5,2.8-0.5c0.8,0,1.5,0.1,2.2,0.3c0.7,0.2,1.3,0.5,1.9,1c0.6,0.4,1,1,1.3,1.6
			c0.3,0.6,0.6,1.4,0.6,2.2h-3.4C103.5,452.3,102.6,451.5,101.1,451.5L101.1,451.5z"/>
		<path d="M115.8,449.1v2.5h-2.6v6.7c0,0.6,0.1,1,0.3,1.2s0.6,0.3,1.2,0.3c0.2,0,0.4,0,0.6,0c0.2,0,0.4,0,0.5-0.1v2.9
			c-0.3,0-0.6,0.1-1,0.1c-0.4,0-0.7,0-1.1,0c-0.6,0-1.1,0-1.6-0.1c-0.5-0.1-0.9-0.2-1.3-0.5c-0.4-0.2-0.7-0.5-0.9-1
			c-0.2-0.4-0.3-1-0.3-1.6v-7.9h-2.1v-2.5h2.1v-4h3.5v4L115.8,449.1L115.8,449.1z"/>
		<path d="M51.5,467.4l7.4,12.5h0v-12.5h3.7V486h-3.9l-7.4-12.4h0V486h-3.7v-18.6H51.5z"/>
		<path d="M65.1,476.6c0.1-0.9,0.3-1.6,0.6-2.2c0.4-0.6,0.8-1,1.4-1.4s1.2-0.6,1.9-0.7c0.7-0.2,1.4-0.2,2.1-0.2c0.7,0,1.3,0,2,0.1
			c0.7,0.1,1.3,0.3,1.8,0.6c0.6,0.3,1,0.7,1.3,1.2c0.3,0.5,0.5,1.2,0.5,2v7c0,0.6,0,1.2,0.1,1.7c0.1,0.6,0.2,1,0.3,1.2h-3.6
			c-0.1-0.2-0.1-0.4-0.2-0.6c0-0.2-0.1-0.4-0.1-0.7c-0.6,0.6-1.2,1-2,1.3c-0.8,0.2-1.5,0.4-2.3,0.4c-0.6,0-1.2-0.1-1.7-0.2
			c-0.5-0.2-1-0.4-1.4-0.7c-0.4-0.3-0.7-0.8-0.9-1.2s-0.3-1.1-0.3-1.8c0-0.8,0.1-1.4,0.4-1.9c0.3-0.5,0.6-0.9,1-1.2
			c0.4-0.3,0.9-0.5,1.4-0.7c0.5-0.2,1.1-0.3,1.6-0.3c0.5-0.1,1.1-0.2,1.6-0.2c0.5,0,1-0.1,1.4-0.2s0.7-0.3,0.9-0.5s0.3-0.5,0.3-0.9
			c0-0.4-0.1-0.7-0.2-1c-0.1-0.2-0.3-0.4-0.5-0.5s-0.4-0.2-0.7-0.3s-0.6-0.1-0.9-0.1c-0.7,0-1.2,0.2-1.6,0.5s-0.6,0.8-0.7,1.6
			L65.1,476.6L65.1,476.6z M73.2,479.4c-0.2,0.1-0.3,0.2-0.6,0.3s-0.5,0.1-0.7,0.2c-0.3,0-0.5,0.1-0.8,0.1c-0.3,0-0.6,0.1-0.8,0.1
			c-0.3,0-0.5,0.1-0.8,0.2c-0.3,0.1-0.5,0.2-0.7,0.3c-0.2,0.2-0.3,0.3-0.5,0.6s-0.2,0.5-0.2,0.9s0.1,0.6,0.2,0.8
			c0.1,0.2,0.3,0.4,0.5,0.5c0.2,0.1,0.4,0.2,0.7,0.3c0.3,0,0.5,0.1,0.8,0.1c0.7,0,1.2-0.1,1.6-0.4s0.7-0.5,0.8-0.9
			c0.2-0.3,0.3-0.7,0.3-1c0-0.3,0.1-0.6,0.1-0.8V479.4L73.2,479.4z"/>
		<path d="M86.1,472.5v2.5h-2.6v6.7c0,0.6,0.1,1,0.3,1.2s0.6,0.3,1.2,0.3c0.2,0,0.4,0,0.6,0c0.2,0,0.4,0,0.5-0.1v2.9
			c-0.3,0-0.6,0.1-1,0.1c-0.4,0-0.7,0-1.1,0c-0.6,0-1.1,0-1.6-0.1c-0.5-0.1-0.9-0.2-1.3-0.5c-0.4-0.2-0.7-0.5-0.9-1
			c-0.2-0.4-0.3-1-0.3-1.6V475h-2.1v-2.5H80v-4h3.5v4L86.1,472.5L86.1,472.5z"/>
		<path d="M87.5,470.4v-3H91v3H87.5z M91,472.5V486h-3.5v-13.5H91z"/>
		<path d="M96.5,486l-4.4-13.5h3.7l2.7,9.2h0.1l2.7-9.2h3.5l-4.3,13.5H96.5L96.5,486z"/>
		<path d="M109.6,482.7c0.5,0.5,1.3,0.8,2.3,0.8c0.7,0,1.3-0.2,1.8-0.6c0.5-0.4,0.8-0.8,0.9-1.2h3.1c-0.5,1.6-1.3,2.8-2.3,3.5
			c-1,0.7-2.3,1-3.7,1c-1,0-1.9-0.2-2.7-0.5c-0.8-0.3-1.5-0.8-2.1-1.4s-1-1.4-1.3-2.2c-0.3-0.9-0.5-1.8-0.5-2.9s0.2-1.9,0.5-2.8
			s0.8-1.6,1.3-2.2c0.6-0.6,1.3-1.1,2.1-1.5c0.8-0.4,1.7-0.5,2.7-0.5c1.1,0,2,0.2,2.9,0.7c0.8,0.4,1.5,1,2,1.8
			c0.5,0.8,0.9,1.6,1.1,2.5c0.2,1,0.3,2,0.2,3h-9.3C108.8,481.3,109.1,482.2,109.6,482.7L109.6,482.7z M113.6,475.6
			c-0.4-0.5-1.1-0.7-1.9-0.7c-0.6,0-1,0.1-1.4,0.3s-0.7,0.5-0.9,0.7c-0.2,0.3-0.4,0.6-0.5,0.9c-0.1,0.3-0.1,0.6-0.2,0.9h5.7
			C114.3,476.8,114,476.1,113.6,475.6L113.6,475.6z"/>
	</g>
</g>
</svg>
