<?xml version="1.0" encoding="utf-8"?>
<!-- Generator: Adobe Illustrator 27.1.1, SVG Export Plug-In . SVG Version: 6.00 Build 0)  -->
<svg version="1.1" id="Layer_2_00000110463078508915548260000002919689033815665292_"
	 xmlns="http://www.w3.org/2000/svg" xmlns:xlink="http://www.w3.org/1999/xlink" x="0px" y="0px" viewBox="0 0 176.9 169.6"
	 style="enable-background:new 0 0 176.9 169.6;" xml:space="preserve">
<style type="text/css">
	.st0{fill:url(#SVGID_1_);}
	.st1{fill:url(#SVGID_00000140716579314997779510000006089448120062892681_);}
</style>
<g id="Layer_1-2">
	<g>
		<circle cx="84.3" cy="40" r="40"/>
		
			<linearGradient id="SVGID_1_" gradientUnits="userSpaceOnUse" x1="85.7187" y1="417.6511" x2="101.4987" y2="437.201" gradientTransform="matrix(1 0 0 1 0 -360.22)">
			<stop  offset="0" style="stop-color:#FFFFFF"/>
			<stop  offset="1" style="stop-color:#FFFFFF;stop-opacity:0"/>
		</linearGradient>
		<path class="st0" d="M110.7,70L75,24h-6.7v32h5.4V30.8l32.8,42.4C108,72.3,109.4,71.2,110.7,70z"/>
		
			<linearGradient id="SVGID_00000036952996955360506510000009403284484628216754_" gradientUnits="userSpaceOnUse" x1="98.1163" y1="384.21" x2="98.0263" y2="407.71" gradientTransform="matrix(1 0 0 1 0 -360.22)">
			<stop  offset="0" style="stop-color:#FFFFFF"/>
			<stop  offset="1" style="stop-color:#FFFFFF;stop-opacity:0"/>
		</linearGradient>
		<rect x="95.4" y="24" style="fill:url(#SVGID_00000036952996955360506510000009403284484628216754_);" width="5.3" height="32"/>
	</g>
	<path d="M22.1,118.3h6.8l6.7,10.3c1.2,1.9,2.4,3.8,3.5,5.7s2,3.7,2.6,5.2h0.1c-0.2-2-0.3-3.9-0.3-5.9c0-2,0-3.9,0-5.9v-9.5h6.8V149
		h-6.8l-7.1-10.5c-1.2-1.7-2.2-3.5-3.2-5.3s-1.8-3.7-2.5-5.7h-0.1c0.2,2,0.3,4,0.3,5.9c0,1.9,0,3.8,0,5.8v9.8h-6.8V118.3L22.1,118.3
		z"/>
	<path d="M73.4,139.4H58.2v0.2c0,1.6,0.6,2.8,1.9,3.6c1.3,0.8,2.9,1.1,4.8,1.1c1.3,0,2.5-0.1,3.5-0.4c1-0.3,1.9-0.6,2.5-0.9l1.3,5
		c-0.9,0.4-2,0.8-3.3,1.1c-1.3,0.3-3,0.5-4.9,0.5c-1.8,0-3.4-0.2-5-0.7c-1.6-0.5-3-1.2-4.1-2.2c-1.2-1-2.1-2.2-2.8-3.7
		c-0.7-1.5-1-3.3-1-5.4c0-1.9,0.3-3.6,0.9-5.1c0.6-1.5,1.4-2.9,2.4-4c1-1.1,2.3-2,3.7-2.6c1.4-0.6,3-0.9,4.8-0.9
		c3.2,0,5.8,1,7.7,2.9c1.9,1.9,2.9,4.7,2.9,8.3L73.4,139.4L73.4,139.4z M66,134.4c0-0.6-0.1-1.1-0.2-1.6c-0.1-0.5-0.3-1-0.6-1.4
		c-0.3-0.4-0.6-0.7-1.1-1c-0.4-0.2-1-0.4-1.6-0.4c-1.1,0-2.1,0.4-2.8,1.2s-1.2,1.9-1.3,3.2L66,134.4L66,134.4z"/>
	<path d="M89.8,137l8.3,12h-8.3l-1.9-2.9l-2.6-4.6l-2.4,4.6l-1.9,3h-8.2l8.2-12l-7.7-11.4h8l1.9,3l2.3,4.4l2.1-4.4l1.8-3h7.9
		L89.8,137L89.8,137z"/>
	<path d="M113.6,130.7h-6v9.9c0,1.1,0.2,1.8,0.7,2.2s1.1,0.6,2,0.6c0.7,0,1.3-0.1,1.9-0.2c0.7-0.1,1.2-0.3,1.5-0.5l1.1,4.9
		c-0.6,0.3-1.4,0.6-2.5,0.9s-2.3,0.4-3.6,0.4c-3,0-5.2-0.6-6.4-1.8c-1.3-1.2-1.9-2.9-1.9-5.3v-11.2h-3.7v-5.2h3.7v-7.1h7.2v7.1h6
		V130.7L113.6,130.7z"/>
	<path d="M115.7,145.2c0-1.2,0.4-2.2,1.2-3s1.8-1.2,2.9-1.2s2.1,0.4,2.9,1.2c0.8,0.8,1.2,1.8,1.2,3c0,1.3-0.4,2.4-1.2,3.1
		c-0.8,0.8-1.8,1.1-2.9,1.1s-2.1-0.4-2.9-1.1C116.2,147.6,115.7,146.6,115.7,145.2z"/>
	<path d="M126.3,125.6h7.2v20.2c0,1.8-0.2,3.5-0.5,5.1c-0.3,1.6-0.8,3.1-1.6,4.4c-0.7,1.4-1.7,2.5-2.9,3.6c-1.2,1.1-2.8,2-4.6,2.8
		l-3-4.8c0.9-0.5,1.7-0.9,2.4-1.5c0.7-0.5,1.2-1.2,1.7-2c0.4-0.8,0.8-1.8,1-2.9c0.2-1.2,0.3-2.6,0.3-4.4L126.3,125.6L126.3,125.6z
		 M130,121c-1.2,0-2.2-0.4-2.8-1.1c-0.7-0.7-1-1.5-1-2.5c0-1,0.3-1.8,1-2.5c0.7-0.7,1.6-1,2.8-1s2.1,0.3,2.8,1s1,1.5,1,2.5
		s-0.3,1.9-1,2.5C132.2,120.6,131.2,121,130,121z"/>
	<path d="M152,131.6c-0.9-0.4-1.8-0.8-2.8-1c-1-0.2-1.9-0.4-2.8-0.4c-0.8,0-1.5,0.1-2,0.4c-0.5,0.3-0.8,0.7-0.8,1.2
		c0,0.6,0.2,1,0.8,1.4c0.5,0.4,1.5,0.8,3,1.2l1.5,0.4c2,0.6,3.4,1.4,4.4,2.6c1,1.1,1.5,2.6,1.5,4.3c0,1.2-0.2,2.2-0.7,3.2
		c-0.5,1-1.2,1.8-2.1,2.5c-0.9,0.7-2,1.2-3.2,1.6c-1.3,0.4-2.6,0.5-4.2,0.5c-1.7,0-3.1-0.1-4.4-0.4c-1.3-0.3-2.5-0.7-3.6-1.3
		l1.6-5.2c0.9,0.5,1.9,0.9,2.9,1.2c1,0.3,2.1,0.5,3.1,0.5c1.2,0,2.1-0.2,2.6-0.5c0.5-0.4,0.8-0.8,0.8-1.3c0-0.3-0.1-0.5-0.2-0.8
		c-0.1-0.2-0.3-0.4-0.6-0.6c-0.3-0.2-0.7-0.4-1.2-0.6c-0.5-0.2-1.2-0.4-2.1-0.7l-1.5-0.4c-1.9-0.6-3.3-1.5-4.2-2.6s-1.3-2.6-1.3-4.4
		c0-1.1,0.2-2.1,0.6-2.9c0.4-0.9,1-1.7,1.8-2.3c0.8-0.7,1.8-1.2,2.9-1.6c1.2-0.4,2.5-0.6,4-0.6s2.9,0.1,4.2,0.4
		c1.3,0.3,2.4,0.7,3.5,1.1L152,131.6L152,131.6z"/>
</g>
</svg>
