<?xml version="1.0" encoding="UTF-8"?><svg id="Layer_2" xmlns="http://www.w3.org/2000/svg" xmlns:xlink="http://www.w3.org/1999/xlink" viewBox="0 0 295.96 335.73"><defs><style>.cls-1{fill:url(#linear-gradient);}.cls-2{fill:#32d8ff;}</style><linearGradient id="linear-gradient" x1="44.58" y1="305.94" x2="251.37" y2="305.94" gradientUnits="userSpaceOnUse"><stop offset="0" stop-color="#8500ff"/><stop offset=".09" stop-color="#7c16ff"/><stop offset=".29" stop-color="#6550ff"/><stop offset=".58" stop-color="#42adff"/><stop offset=".7" stop-color="#32d8ff"/><stop offset=".8" stop-color="#32d8ff"/><stop offset="1" stop-color="#32d8ff"/></linearGradient></defs><g id="Layer_1-2"><g><circle class="cls-2" cx="147.98" cy="131.76" r="29.79"/><path class="cls-2" d="m282.11,106.23c-7.78-6.56-18.71-12.37-32.47-17.27-5.66-2.02-11.7-3.84-18.06-5.47,1.77-6.32,3.21-12.47,4.29-18.37,2.63-14.37,3.06-26.73,1.28-36.75-1.45-8.13-5.26-19.03-15.19-24.76-9.93-5.73-21.27-3.58-29.03-.77-9.57,3.46-20.06,10.02-31.19,19.48-5.04,4.28-10.1,9.09-15.16,14.33-5.2-5.1-10.41-9.75-15.57-13.88-11.4-9.14-22.08-15.38-31.75-18.56-7.85-2.58-19.24-4.4-29,1.62-9.75,6.02-13.25,17.02-14.46,25.19-1.49,10.07-.7,22.42,2.35,36.7,1.12,5.26,2.54,10.7,4.22,16.29-5.64,1.5-11.01,3.15-16.08,4.96-13.76,4.9-24.68,10.71-32.47,17.27-6.32,5.32-13.85,14.07-13.85,25.53s7.53,20.21,13.85,25.53c7.78,6.56,18.71,12.37,32.47,17.27,5.66,2.02,11.7,3.84,18.06,5.47-1.77,6.32-3.21,12.47-4.29,18.37-2.63,14.37-3.06,26.73-1.28,36.75,1.45,8.13,5.26,19.03,15.19,24.76,4.58,2.64,9.45,3.61,14.14,3.61,5.48,0,10.7-1.32,14.89-2.84,9.57-3.46,20.06-10.02,31.19-19.48,5.04-4.28,10.1-9.09,15.16-14.33,5.2,5.1,10.41,9.75,15.57,13.88,11.4,9.14,22.08,15.38,31.75,18.56,3.97,1.31,8.84,2.41,13.95,2.41,5,0,10.22-1.06,15.05-4.04,9.75-6.02,13.25-17.02,14.46-25.19,1.49-10.07.7-22.42-2.35-36.7-1.12-5.26-2.54-10.7-4.22-16.29,5.64-1.5,11.01-3.15,16.08-4.96,13.76-4.9,24.68-10.71,32.47-17.27,6.32-5.32,13.85-14.07,13.85-25.53s-7.53-20.21-13.85-25.53Zm-110-71.72c9.53-8.11,18.61-13.85,26.26-16.62,3.53-1.28,6.66-1.92,9.38-1.92,2.4,0,4.48.5,6.21,1.5,3.69,2.13,6.19,6.74,7.43,13.71,1.43,8.02.99,18.75-1.26,31.06-1.04,5.69-2.45,11.64-4.18,17.76-11.45-2.21-23.67-3.84-36.38-4.86-7.11-9.7-14.47-18.74-21.9-26.94,4.82-5.03,9.65-9.62,14.44-13.69Zm32.56,114.35c2.97,6.44,5.65,12.79,8.02,19.02-6.67,1.28-13.62,2.35-20.8,3.21,2.11-3.41,4.18-6.87,6.21-10.39,2.27-3.94,4.47-7.89,6.58-11.84Zm-20.43,3.84c-4.03,6.97-8.21,13.73-12.5,20.21-7.76.48-15.7.72-23.75.72s-15.47-.23-22.98-.68c-4.33-6.16-8.56-12.58-12.65-19.2-4.37-7.08-8.45-14.2-12.22-21.29,3.56-7.19,7.43-14.43,11.59-21.63,4.03-6.97,8.21-13.73,12.5-20.21,7.76-.48,15.7-.72,23.75-.72s15.47.23,22.98.68c4.33,6.16,8.56,12.58,12.65,19.2,4.37,7.08,8.45,14.2,12.22,21.29-3.56,7.19-7.43,14.43-11.59,21.63Zm-35.21,50.67c-3.92-4.38-7.83-9.01-11.68-13.87,3.52.09,7.07.14,10.64.14,4.06,0,8.1-.06,12.1-.18-3.64,4.86-7.33,9.51-11.05,13.91Zm-50.3-41.21c1.87,3.03,3.77,6.03,5.7,8.98-6.72-.8-13.25-1.79-19.53-2.95,2.05-5.79,4.36-11.7,6.9-17.67,2.22,3.89,4.53,7.77,6.92,11.65Zm-7.44-47.48c-2.97-6.44-5.65-12.79-8.02-19.02,6.67-1.28,13.62-2.35,20.8-3.21-2.11,3.41-4.18,6.87-6.21,10.39-2.27,3.94-4.47,7.89-6.58,11.84Zm55.65-54.51c3.92,4.38,7.83,9.01,11.68,13.87-3.52-.09-7.07-.14-10.64-.14-4.06,0-8.1.06-12.1.18,3.64-4.86,7.33-9.51,11.05-13.91Zm50.3,41.21c-1.87-3.03-3.77-6.03-5.7-8.98,6.72.8,13.25,1.79,19.53,2.95-2.05,5.79-4.36,11.7-6.9,17.67-2.22-3.89-4.53-7.77-6.92-11.65Zm-123.41-37c-2.61-12.23-3.37-22.95-2.17-31.01,1.04-7,3.4-11.68,7.03-13.92,1.83-1.13,4.06-1.69,6.68-1.69s5.57.55,8.91,1.65c7.73,2.55,16.98,8.03,26.74,15.85,4.91,3.93,9.87,8.38,14.83,13.26-6.98,8.17-13.86,17.13-20.5,26.71-13.07,1.08-25.61,2.82-37.32,5.16-1.69-5.5-3.09-10.86-4.2-16.02Zm-22.13,95.12c-11.78-4.2-21.3-9.19-27.53-14.43-5.41-4.56-8.15-9.03-8.15-13.29s2.74-8.73,8.15-13.29c6.23-5.25,15.75-10.24,27.53-14.43,4.97-1.77,10.26-3.38,15.83-4.84,4.04,10.89,8.99,22.15,14.72,33.52-5.09,10.87-9.48,21.61-13.08,32.02-6.17-1.56-12.02-3.32-17.47-5.26Zm72.16,69.53c-9.53,8.11-18.61,13.85-26.26,16.62-6.65,2.41-11.9,2.55-15.59.42-3.69-2.13-6.19-6.74-7.43-13.71-1.43-8.01-.99-18.75,1.26-31.06,1.04-5.69,2.45-11.64,4.18-17.76,11.45,2.21,23.67,3.84,36.38,4.86,7.11,9.7,14.47,18.74,21.9,26.94-4.82,5.03-9.65,9.62-14.44,13.69Zm98.29-29.86c2.61,12.23,3.37,22.95,2.17,31.01-1.04,7-3.4,11.68-7.03,13.92-3.63,2.24-8.87,2.25-15.59.04-7.73-2.55-16.98-8.03-26.74-15.85-4.91-3.93-9.87-8.38-14.83-13.26,6.98-8.17,13.86-17.13,20.5-26.71,13.07-1.08,25.61-2.82,37.32-5.16,1.69,5.5,3.09,10.86,4.2,16.02Zm49.66-54.1c-6.23,5.25-15.75,10.24-27.53,14.43-4.97,1.77-10.26,3.38-15.83,4.84-4.04-10.89-8.99-22.15-14.72-33.52,5.09-10.87,9.48-21.61,13.08-32.02,6.17,1.56,12.02,3.32,17.47,5.26,11.78,4.2,21.3,9.19,27.53,14.43,5.41,4.56,8.15,9.03,8.15,13.29s-2.74,8.73-8.15,13.29Z"/></g><path class="cls-1" d="m251.37,301.28v-11.17h-7.81v-11.54h-16.38v11.54h-6.42v7.67c-2.84-4.52-8.4-8.75-18.66-8.75-13.05,0-21.04,8.01-22.79,19.03v-2.61c0-10.74-5.91-16.36-20.51-16.42-15.83-.06-20.24,7.25-20.83,14.68h15.29c.39-2.87,1.38-4.59,5.12-4.59,3.99,0,5.01,2.09,5.01,4.95v2.46h-5.46c-10.11,0-17.33,2.51-20.38,8.09.06-.85.08-1.72.08-2.79,0-11.11-5.27-22.79-22.52-22.79-16.21,0-23.31,10.31-23.31,23.73,0,.27,0,.54.01.81-1.42-4.38-4.05-6.48-6.56-7.35,4.06-1.66,8.78-5.8,8.78-13.88,0-8.83-6.67-16.2-20.44-16.2h-28.99v58.5h16.64v-22.11h6.04c7.56,0,8.77,2.77,8.77,7.82v1.51c0,6.01.25,10.26,1.24,12.77h16.34c-.65-2.53-.76-7.25-.76-10.89v-2.44c0-.22-.01-.42-.02-.63,2.39,8.36,9.03,15.04,21.94,15.04s18.84-6.38,21.31-11.93c.94,6.82,6.2,11.93,15.22,11.93,7.17,0,10.44-2.42,12.57-5.19.06,1.09.34,3.2.68,4.11h15.28c-.28-1.5-.54-8.19-.54-13.21v-3.8c1.6,10.33,8.57,18.09,22.19,18.09,15.35,0,20.56-8.48,21.89-16.5h-15.74c-.73,2.98-2.2,5.54-5.57,5.54-3.89,0-6.19-3.38-6.19-12.55,0-8.15,2.11-12.09,6.28-12.09,3.64,0,5,2.48,5.44,5.61h15.78c-.07-1.24-.35-2.79-.93-4.45h4.63v20.53c0,8.41,2.95,13.55,13.48,13.55,2.76,0,7.08-.18,9.65-1.03v-10.23c-.88.08-1.69.08-2.31.08-3.48,0-4.35-1.04-4.35-3.8v-19.11h7.81Zm-182.21-.69h-7.93v-12.5h8.01c5.24,0,7.71,2.28,7.71,6.19s-2.08,6.31-7.79,6.31Zm45.87-1.26c4.74,0,5.93,3.52,5.99,7.68h-12.39c.28-4.42,1.98-7.68,6.4-7.68Zm5.92,21.3c-.84,2.34-1.96,4.01-5.89,4.01-4.88,0-6.6-4.5-6.6-8.98h28.59c-.63,1.47-.99,3.12-1.08,4.98h-15.02Zm42.43-4.38c0,4.79-.79,8.63-6.4,8.63-3.3,0-4.85-2.1-4.85-4.72,0-3.29,1.88-5.29,7.58-5.29h3.67v1.37Z"/></g></svg>