<?xml version="1.0" encoding="utf-8"?>
<!-- Generator: Adobe Illustrator 27.1.1, SVG Export Plug-In . SVG Version: 6.00 Build 0)  -->
<svg version="1.1" id="Layer_2_00000135661575184550340800000003417741987577818810_"
	 xmlns="http://www.w3.org/2000/svg" xmlns:xlink="http://www.w3.org/1999/xlink" x="0px" y="0px" viewBox="0 0 390 536"
	 style="enable-background:new 0 0 390 536;" xml:space="preserve">
<style type="text/css">
	.st0{fill:#32D8FF;}
</style>
<g id="Layer_1-2">
	<circle class="st0" cx="201.2" cy="225.3" r="24.4"/>
	<path class="st0" d="M311.1,204.4c-2.6-2.2-5.6-4.2-9-6.2V99.7c0-14.7-12-26.7-26.7-26.7H127.1c-14.7,0-26.7,12-26.7,26.7v98.4
		c-3.4,2-6.4,4-9,6.2c-5.2,4.4-11.3,11.5-11.3,20.9s6.2,16.6,11.3,20.9c2.6,2.2,5.6,4.2,9,6.2v98.5c0,14.7,12,26.7,26.7,26.7h148.4
		c14.7,0,26.7-12,26.7-26.7v-98.4c3.4-2,6.4-4,9-6.2c5.2-4.4,11.3-11.5,11.3-20.9S316.3,208.8,311.1,204.4L311.1,204.4z M112.3,99.7
		c0-8.1,6.6-14.7,14.7-14.7h148.4c8.1,0,14.7,6.6,14.7,14.7v92.7c-1.8-0.7-3.7-1.4-5.6-2.1c-4.6-1.7-9.6-3.2-14.8-4.5
		c1.5-5.2,2.6-10.2,3.5-15.1c2.2-11.8,2.5-21.9,1-30.1c-1.2-6.7-4.3-15.6-12.4-20.3s-17.4-2.9-23.8-0.6c-7.8,2.8-16.4,8.2-25.6,16
		c-4.1,3.5-8.3,7.4-12.4,11.7c-4.3-4.2-8.5-8-12.8-11.4c-9.3-7.5-18.1-12.6-26-15.2c-6.4-2.1-15.8-3.6-23.8,1.3
		s-10.9,13.9-11.8,20.6c-1.2,8.2-0.6,18.4,1.9,30.1c0.9,4.3,2.1,8.8,3.5,13.3c-4.6,1.2-9,2.6-13.2,4.1c-1.9,0.7-3.8,1.4-5.6,2.1
		L112.3,99.7L112.3,99.7z M160.2,201.6c-1.9,3.2-3.7,6.5-5.4,9.7c-2.4-5.3-4.6-10.5-6.6-15.6c5.5-1.1,11.2-1.9,17-2.6
		C163.5,195.9,161.8,198.7,160.2,201.6L160.2,201.6z M160.9,250.2c1.5,2.5,3.1,4.9,4.7,7.4c-5.5-0.6-10.9-1.5-16-2.4
		c1.7-4.7,3.6-9.6,5.7-14.5C157,243.9,158.9,247,160.9,250.2z M143.9,183.2c-1.4-4.5-2.5-8.9-3.4-13.1c-2.1-10-2.8-18.8-1.8-25.4
		c0.9-5.7,2.8-9.6,5.8-11.4c1.5-0.9,3.3-1.4,5.5-1.4s4.6,0.5,7.3,1.4c6.3,2.1,13.9,6.6,21.9,13c4,3.2,8.1,6.9,12.2,10.9
		c-5.7,6.7-11.4,14-16.8,21.9C163.8,179.9,153.5,181.3,143.9,183.2L143.9,183.2z M147.4,226.1c-4.2,8.9-7.8,17.7-10.7,26.2
		c-5.1-1.3-9.9-2.7-14.3-4.3c-3.6-1.3-7-2.7-10-4.1v-37.2c3.1-1.4,6.4-2.8,10-4.1c4.1-1.4,8.4-2.8,13-4
		C138.6,207.5,142.7,216.8,147.4,226.1L147.4,226.1z M142.1,282.3c0.9-4.7,2-9.5,3.4-14.6c9.4,1.8,19.4,3.1,29.8,4
		c5.8,7.9,11.8,15.4,17.9,22.1c-3.9,4.1-7.9,7.9-11.8,11.2c-7.8,6.6-15.2,11.4-21.5,13.6c-5.4,2-9.8,2.1-12.8,0.3
		c-3-1.8-5.1-5.5-6.1-11.2C139.9,301.2,140.3,292.4,142.1,282.3L142.1,282.3z M192.5,272.6c2.9,0.1,5.8,0.1,8.7,0.1
		c3.3,0,6.6-0.1,9.9-0.1c-3,4-6,7.8-9.1,11.4C198.9,280.4,195.7,276.6,192.5,272.6L192.5,272.6z M201.2,259.6
		c-6.4,0-12.7-0.2-18.8-0.6c-3.6-5.1-7-10.3-10.4-15.7c-3.6-5.8-6.9-11.6-10-17.4c2.9-5.9,6.1-11.8,9.5-17.7
		c3.3-5.7,6.7-11.2,10.2-16.6c6.4-0.4,12.9-0.6,19.5-0.6s12.7,0.2,18.8,0.6c3.6,5.1,7,10.3,10.4,15.7c3.6,5.8,6.9,11.6,10,17.4
		c-2.9,5.9-6.1,11.8-9.5,17.7c-3.3,5.7-6.7,11.2-10.2,16.6C214.3,259.4,207.8,259.6,201.2,259.6L201.2,259.6z M242.3,249
		c1.9-3.2,3.7-6.5,5.4-9.7c2.4,5.3,4.6,10.5,6.6,15.6c-5.5,1.1-11.2,1.9-17,2.6C238.9,254.7,240.6,251.9,242.3,249L242.3,249z
		 M241.6,200.4c-1.5-2.5-3.1-4.9-4.7-7.4c5.5,0.7,10.9,1.5,16,2.4c-1.7,4.7-3.6,9.6-5.7,14.5C245.4,206.8,243.5,203.6,241.6,200.4z
		 M227.1,178.9c-5.8-8-11.9-15.4-17.9-22.1c3.9-4.1,7.9-7.9,11.8-11.2c7.8-6.6,15.2-11.3,21.5-13.6c2.9-1.1,5.5-1.6,7.7-1.6
		c2,0,3.7,0.4,5.1,1.2c3,1.8,5.1,5.5,6.1,11.2c1.2,6.6,0.8,15.4-1,25.4c-0.9,4.7-2,9.5-3.4,14.6
		C247.5,181.1,237.5,179.7,227.1,178.9L227.1,178.9z M210,178c-2.9-0.1-5.8-0.1-8.7-0.1c-3.3,0-6.6,0.1-9.9,0.2c3-4,6-7.8,9.1-11.4
		C203.6,170.2,206.8,174,210,178L210,178z M228,271.6c10.7-0.9,21-2.3,30.6-4.2c1.4,4.5,2.5,8.9,3.4,13.1c2.1,10,2.8,18.8,1.8,25.4
		c-0.8,5.7-2.8,9.6-5.8,11.4s-7.3,1.8-12.8,0c-6.3-2.1-13.9-6.6-21.9-13c-4-3.2-8.1-6.9-12.1-10.9
		C216.9,286.8,222.6,279.5,228,271.6L228,271.6z M255.1,224.5c4.2-8.9,7.8-17.7,10.7-26.2c5.1,1.3,9.8,2.7,14.3,4.3
		c3.6,1.3,7,2.7,10,4.1v37.2c-3,1.4-6.4,2.8-10,4.1c-4.1,1.4-8.4,2.8-13,4C263.9,243.1,259.8,233.8,255.1,224.5L255.1,224.5z
		 M99.8,236.2c-4.4-3.7-6.7-7.4-6.7-10.9s2.2-7.2,6.7-10.9c0.2-0.1,0.4-0.3,0.6-0.4v22.7C100.2,236.5,100,236.3,99.8,236.2
		L99.8,236.2z M290.1,350.9c0,8.1-6.6,14.7-14.7,14.7H127.1c-8.1,0-14.7-6.6-14.7-14.7v-92.6c1.8,0.7,3.7,1.4,5.6,2.1
		c4.6,1.6,9.6,3.1,14.8,4.5c-1.4,5.2-2.6,10.2-3.5,15.1c-2.2,11.8-2.5,21.9-1.1,30.1c1.2,6.7,4.3,15.6,12.4,20.3
		c3.8,2.2,7.8,3,11.6,3c4.5,0,8.8-1.1,12.2-2.3c7.8-2.8,16.4-8.2,25.6-16c4.1-3.5,8.3-7.4,12.4-11.7c4.3,4.2,8.5,8,12.8,11.4
		c9.3,7.5,18.1,12.6,26,15.2c3.2,1.1,7.2,2,11.4,2c4.1,0,8.4-0.9,12.3-3.3c8-4.9,10.9-13.9,11.8-20.6c1.2-8.2,0.6-18.4-1.9-30.1
		c-0.9-4.3-2.1-8.8-3.5-13.3c4.6-1.2,9-2.6,13.2-4.1c1.9-0.7,3.8-1.4,5.6-2.1V350.9L290.1,350.9z M302.7,236.2
		c-0.2,0.1-0.4,0.3-0.5,0.4V214c0.2,0.1,0.4,0.3,0.5,0.4c4.4,3.7,6.7,7.4,6.7,10.9S307.1,232.5,302.7,236.2L302.7,236.2z"/>
	<path d="M138.3,394.6c2.2,0,4.2,0.4,6,1.1c1.8,0.8,3.3,1.8,4.6,3.1c1.3,1.3,2.3,2.9,2.9,4.6c0.7,1.7,1,3.6,1,5.6
		c0,3.1-0.6,5.7-1.8,8c-1.2,2.2-3.2,4-6.1,5.1v0.1c1.4,0.4,2.5,1,3.4,1.8s1.6,1.8,2.2,2.9c0.6,1.1,1,2.3,1.2,3.6
		c0.3,1.3,0.4,2.6,0.5,4c0.1,0.8,0.1,1.8,0.1,2.9s0.1,2.3,0.2,3.4c0.1,1.2,0.3,2.3,0.6,3.3s0.6,1.9,1.1,2.7h-11
		c-0.6-1.7-1-3.6-1.1-5.9s-0.3-4.5-0.6-6.6c-0.4-2.7-1.2-4.7-2.4-6s-3.2-1.9-5.9-1.9h-11v20.5h-11v-52.3L138.3,394.6L138.3,394.6z
		 M134.4,418.3c2.5,0,4.4-0.6,5.7-1.8c1.3-1.2,1.9-3.1,1.9-5.7s-0.6-4.4-1.9-5.5c-1.3-1.1-3.2-1.7-5.7-1.7h-12v14.7H134.4z"/>
	<path d="M170.2,437.8c1.5,1.5,3.6,2.3,6.4,2.3c2,0,3.7-0.5,5.2-1.6c1.4-1,2.3-2.2,2.7-3.3h8.7c-1.4,4.5-3.5,7.8-6.4,9.8
		s-6.4,2.9-10.5,2.9c-2.8,0-5.4-0.5-7.7-1.4c-2.3-1-4.2-2.3-5.8-4.1c-1.6-1.8-2.8-3.9-3.7-6.3s-1.3-5.1-1.3-8.1s0.4-5.5,1.3-7.9
		c0.9-2.4,2.1-4.5,3.8-6.3c1.6-1.8,3.6-3.2,5.8-4.2c2.3-1,4.8-1.5,7.5-1.5c3.1,0,5.8,0.6,8,1.9s4.2,2.9,5.6,5
		c1.5,2.1,2.5,4.5,3.2,7.2c0.6,2.7,0.9,5.5,0.7,8.4h-26.1C168,433.9,168.8,436.3,170.2,437.8L170.2,437.8z M181.5,417.9
		c-1.2-1.4-3-2-5.4-2c-1.6,0-2.9,0.3-3.9,0.8s-1.9,1.3-2.5,2.1c-0.6,0.8-1.1,1.7-1.3,2.6c-0.3,0.9-0.4,1.8-0.5,2.5H184
		C183.5,421.3,182.7,419.3,181.5,417.9L181.5,417.9z"/>
	<path d="M198.1,420.7c0.1-2.4,0.7-4.5,1.8-6.1s2.3-2.9,3.9-3.9c1.6-1,3.4-1.7,5.3-2.1c2-0.4,4-0.6,6-0.6c1.8,0,3.7,0.1,5.5,0.4
		c1.9,0.3,3.6,0.8,5.1,1.6c1.5,0.8,2.8,1.9,3.8,3.3s1.5,3.2,1.5,5.5v19.7c0,1.7,0.1,3.4,0.3,4.9s0.5,2.7,1,3.5h-10.1
		c-0.2-0.6-0.3-1.2-0.4-1.8c-0.1-0.6-0.2-1.2-0.2-1.9c-1.6,1.7-3.4,2.9-5.6,3.6c-2.1,0.7-4.3,1-6.6,1c-1.7,0-3.3-0.2-4.8-0.7
		c-1.5-0.4-2.8-1.1-3.9-2c-1.1-0.9-2-2.1-2.6-3.5s-0.9-3.1-0.9-5.1c0-2.1,0.4-3.9,1.1-5.3c0.7-1.4,1.6-2.5,2.8-3.3
		c1.1-0.8,2.5-1.5,3.9-1.9c1.5-0.4,2.9-0.7,4.4-1c1.5-0.2,3-0.4,4.4-0.6c1.4-0.1,2.7-0.4,3.9-0.7c1.1-0.3,2-0.7,2.7-1.3
		c0.6-0.6,1-1.4,0.9-2.5c0-1.1-0.2-2-0.5-2.7s-0.8-1.2-1.4-1.5c-0.6-0.4-1.3-0.6-2-0.7s-1.6-0.2-2.5-0.2c-2,0-3.5,0.4-4.6,1.3
		s-1.8,2.3-2,4.4L198.1,420.7L198.1,420.7z M221.1,428.4c-0.4,0.4-0.9,0.7-1.6,0.9s-1.3,0.4-2,0.5s-1.5,0.3-2.3,0.4
		s-1.6,0.2-2.4,0.4c-0.8,0.1-1.5,0.3-2.2,0.6s-1.4,0.6-1.9,1s-1,0.9-1.3,1.6c-0.3,0.6-0.5,1.4-0.5,2.4s0.2,1.7,0.5,2.3
		c0.3,0.6,0.8,1.1,1.3,1.5c0.6,0.4,1.2,0.6,2,0.8s1.5,0.2,2.3,0.2c2,0,3.5-0.3,4.6-1s1.9-1.5,2.4-2.5s0.8-1.9,0.9-2.9
		c0.1-1,0.2-1.8,0.2-2.4V428.4L221.1,428.4z"/>
	<path d="M254.8,415.9c-1.6,0-2.9,0.4-4,1.1c-1.1,0.8-1.9,1.7-2.6,2.9c-0.7,1.2-1.1,2.5-1.4,4s-0.4,2.9-0.4,4.3s0.1,2.8,0.4,4.2
		c0.3,1.4,0.7,2.7,1.4,3.9s1.5,2.1,2.6,2.8s2.4,1.1,3.9,1.1c2.4,0,4.2-0.7,5.5-2.1c1.3-1.4,2.1-3.3,2.4-5.6h9.6
		c-0.6,5-2.5,8.9-5.6,11.5s-7,4-11.8,4c-2.7,0-5.2-0.5-7.4-1.4c-2.3-1-4.2-2.3-5.8-4s-2.8-3.8-3.7-6.1s-1.3-5-1.3-7.8
		s0.4-5.6,1.2-8.2c0.8-2.5,2-4.7,3.6-6.5s3.5-3.3,5.8-4.3s4.9-1.5,7.8-1.5c2.1,0,4.2,0.3,6.2,0.9s3.8,1.5,5.3,2.7
		c1.6,1.2,2.8,2.7,3.8,4.5s1.5,3.9,1.7,6.3h-9.7C261.5,418.1,259,415.9,254.8,415.9L254.8,415.9z"/>
	<path d="M296.4,409v7h-7.3v18.8c0,1.8,0.3,2.9,0.8,3.5s1.7,0.9,3.4,0.9c0.6,0,1.1,0,1.6-0.1c0.5,0,1-0.1,1.5-0.2v8.1
		c-0.8,0.1-1.8,0.2-2.8,0.3c-1,0-2,0.1-3,0.1c-1.5,0-3-0.1-4.4-0.3c-1.4-0.2-2.6-0.6-3.6-1.3s-1.9-1.5-2.5-2.7s-0.9-2.7-0.9-4.6V416
		h-6v-7h6v-11.4h9.9V409H296.4L296.4,409z"/>
	<path d="M115.1,460.6l20.8,35.1h0.1v-35.1h10.3v52.3h-11l-20.8-35h-0.1v35h-10.3v-52.3C104.2,460.6,115.1,460.6,115.1,460.6z"/>
	<path d="M153.3,486.7c0.1-2.4,0.7-4.5,1.8-6.1s2.3-2.9,3.9-3.9c1.6-1,3.4-1.7,5.4-2.1s4-0.6,6-0.6c1.8,0,3.7,0.1,5.5,0.4
		c1.9,0.3,3.6,0.8,5.1,1.6c1.5,0.8,2.8,1.9,3.8,3.3s1.5,3.2,1.5,5.5v19.7c0,1.7,0.1,3.4,0.3,4.9s0.5,2.7,1,3.5h-10.1
		c-0.2-0.6-0.3-1.2-0.4-1.8c-0.1-0.6-0.2-1.2-0.2-1.9c-1.6,1.7-3.4,2.9-5.6,3.6c-2.1,0.7-4.3,1-6.6,1c-1.7,0-3.3-0.2-4.8-0.7
		c-1.5-0.4-2.8-1.1-3.9-2c-1.1-0.9-2-2.1-2.6-3.5s-0.9-3.1-0.9-5.1c0-2.1,0.4-3.9,1.1-5.3c0.7-1.4,1.6-2.5,2.8-3.3
		c1.1-0.8,2.5-1.5,3.9-1.9c1.5-0.4,2.9-0.7,4.4-1c1.5-0.2,3-0.4,4.4-0.6c1.4-0.1,2.7-0.4,3.8-0.7c1.1-0.3,2-0.7,2.7-1.3
		c0.7-0.6,1-1.4,0.9-2.5c0-1.1-0.2-2-0.5-2.7c-0.4-0.7-0.8-1.2-1.4-1.5c-0.6-0.4-1.3-0.6-2-0.7c-0.8-0.1-1.6-0.2-2.5-0.2
		c-2,0-3.5,0.4-4.6,1.3s-1.8,2.3-2,4.4L153.3,486.7L153.3,486.7z M176.3,494.4c-0.4,0.4-0.9,0.7-1.6,0.9s-1.3,0.4-2,0.5
		s-1.5,0.3-2.3,0.4s-1.6,0.2-2.4,0.4c-0.8,0.1-1.5,0.3-2.2,0.6c-0.7,0.2-1.3,0.6-1.9,1c-0.5,0.4-1,0.9-1.3,1.6
		c-0.3,0.6-0.5,1.4-0.5,2.4s0.2,1.7,0.5,2.3c0.3,0.6,0.8,1.1,1.3,1.5c0.6,0.4,1.2,0.6,2,0.8s1.5,0.2,2.3,0.2c2,0,3.5-0.3,4.6-1
		s1.9-1.5,2.4-2.5s0.8-1.9,0.9-2.9c0.1-1,0.2-1.8,0.2-2.4V494.4L176.3,494.4z"/>
	<path d="M212.6,475v7h-7.3v18.8c0,1.8,0.3,2.9,0.8,3.5s1.7,0.9,3.4,0.9c0.6,0,1.1,0,1.6-0.1c0.5,0,1-0.1,1.5-0.2v8.1
		c-0.8,0.1-1.8,0.2-2.8,0.3c-1,0-2,0.1-3,0.1c-1.5,0-3-0.1-4.4-0.3c-1.4-0.2-2.6-0.6-3.6-1.3c-1-0.7-1.9-1.5-2.5-2.7
		s-0.9-2.7-0.9-4.6V482h-6v-7h6v-11.4h9.9V475H212.6L212.6,475z"/>
	<path d="M216.4,469.2v-8.6h9.9v8.6H216.4z M226.3,475v37.9h-9.9V475H226.3z"/>
	<path d="M241.9,512.9L229.6,475H240l7.6,25.9h0.1l7.6-25.9h9.9L253,512.9H241.9L241.9,512.9z"/>
	<path d="M278.8,503.8c1.5,1.5,3.6,2.3,6.4,2.3c2,0,3.7-0.5,5.2-1.6c1.4-1,2.3-2.2,2.7-3.3h8.7c-1.4,4.5-3.5,7.8-6.4,9.8
		c-2.9,2-6.4,2.9-10.5,2.9c-2.8,0-5.4-0.5-7.7-1.4c-2.3-1-4.2-2.3-5.8-4.1c-1.6-1.8-2.8-3.9-3.7-6.3c-0.9-2.4-1.3-5.1-1.3-8.1
		s0.4-5.5,1.3-7.9s2.1-4.5,3.8-6.3c1.6-1.8,3.6-3.2,5.8-4.2c2.3-1,4.8-1.5,7.5-1.5c3.1,0,5.8,0.6,8,1.9c2.3,1.2,4.2,2.9,5.6,5
		c1.5,2.1,2.5,4.5,3.2,7.2c0.6,2.7,0.9,5.5,0.7,8.4h-26.1C276.5,499.9,277.3,502.3,278.8,503.8L278.8,503.8z M290,483.9
		c-1.2-1.4-3-2-5.4-2c-1.6,0-2.9,0.3-3.9,0.8s-1.9,1.3-2.5,2.1s-1.1,1.7-1.3,2.6c-0.3,0.9-0.4,1.8-0.5,2.5h16.2
		C292,487.3,291.2,485.3,290,483.9L290,483.9z"/>
</g>
</svg>
