<?xml version="1.0" encoding="UTF-8"?><svg id="Layer_2" xmlns="http://www.w3.org/2000/svg" viewBox="0 0 295.81 222.19"><defs><style>.cls-1{fill:#bf4080;}</style></defs><g id="Layer_1-2"><path class="cls-1" d="m294.6,151.43c-5.5-11.6-16.2-20.3-28.9-22.6s-25.6.2-38.1,3.2c-6-9.7-8.2-23.3-5.1-35.6-3.6-5.8-12.8-5.8-14.4-1.4-4.5,12.8-3.9,12.2-7.3,18.4-4.6,8.2-10.2,17-14,24.5-4.4-3.7-5.4-14.7-4.7-20.4s3.4-11.9,1.5-13.6c-4.9-4.4-13.7-4.1-16.4,2l-29.6,65.9c-.1.3-.3.4-.6.4s-.4-.3-.4-.6h0c1-13.8,5.1-25.6,6-39.4,1-4.8-9.7,3-8.5-1.6,4-15.5-7.9-17-12.7-16.3-9.6,1.3-17.2,8.4-24.3,15.1-7.1,6.7-19,15.7-28.6,16.5-12.5-8.8-22.3-19.2-33.1-28.6-14.1-12.2-15.9-34.2-3.9-48.5C60.5,34.03,106.7,14.33,151.8,17.33c11.1.7,19.5,10.3,18.8,21.4-.1,1.8-.5,3.6-1.1,5.3-12.3,36.1-51.4,55.4-87.5,43.2-3.6-1.2-7.2-2.8-10.6-4.6-.7-.4-1.5-.1-1.9.5-.2.4-.2.8-.1,1.2l3.2,4.6c7,9.9,34,17.6,54.8,10.4,19.7-6.8,34.9-18.7,49.5-33.6,12.2-12.5,14.1-34.8,3.6-48.8S153.4-.37,136.1.03c-17,.4-33.9,6.1-50.2,11.2-16.9,5.4-31.3,13.2-45.4,23.3C19.4,49.63-7.2,71.93,1.8,96.33c8.7,23.8,35.1,44.7,57.1,55.5-23,13.9-39.8,18.8-48,40.1-2.2,5.9-.1,17.7,3.6,22.8s11.7,7.9,18,7.4c16-1.3,28.3-8.8,37.1-22.3,8.8-13.7,11-30.7,5.8-46.2l15.8-9.7c-5.1,14.2-4.9,29.7.3,43.8,2,5.3,7.9,8,13.1,6q.1,0,.2-.1c5-2,8.1-6.8,10.4-11.6,2-4.2,4.8-10.2,7.6-14.3.1-.2.4-.2.5-.1.1.1.2.2.2.4-.5,5.4-1.4,23.4,9.9,20.2,3.1-.9,5.7-2.8,7.5-5.5,11.7-17.3,20.7-36.2,26.5-56.3.1-.3.4-.5.7-.4.1,0,.2.1.3.2,5.6,7.7,10.6,19.7,6.6,28.6-4.3,9.4-7.9,16-17.6,21.1-2.8,1.4-3.8,4.9-2.4,7.6.4.8,1.1,1.5,1.8,2,9,5.9,19.8-1.5,28-8.5,9.4-8,6.4-22,8.4-32.6s7.9-18.3,14.9-26.4c.1-.1.2-.1.3,0l.1.1,8.5,23.8c-11,7.2-23.2,30.4-11.7,33,8.4,1.9,13.7-.8,21.5-7.8,7.6-6.7,8.1-19.3,3.6-28.4,10.8-1.3,21.2-3.3,31.4-1.9s23.5,5.8,26.5,15.7,1.2,12-4.8,22c-7.9,12.9,18.1-8.2,11.1-23.1h0Zm-251.4,54.7c-5.4,2.8-12,.6-14.8-4.8-1.8-3.5-1.6-7.8.6-11.1,9-13.7,21.6-24.7,36.4-31.7.9-.4,2.8,1.4,3,3.4,1.1,17.9-9.2,36.1-25.2,44.2Zm83.7-78.2c-3.3,14-8.2,33.4-17.6,48.3-1.1,1.7-3.3,2.2-5,1.1-.9-.6-1.5-1.5-1.6-2.5-2.7-19.2,4.4-38.4,19-51.1,1.3-1,3.1-1.1,4.4-.1,1.1,1,1.1,2.8.8,4.3Zm51.6,43.3c-2.9,3.4-6.9,5.7-11.2,6.7-.4.1,1.1-5.2,3.2-6.4,5.1-2.8,9-7.3,11.1-12.8.3-.5.9-.7,1.4-.4.3.2.5.5.5.8-.3,4.4-2.1,8.7-5,12.1Zm41.6-11.2c-2.1,3.5-5.3,6.2-9.1,7.6-.8.3-1.6-.1-1.9-.9-.1-.2-.1-.4-.1-.7.6-7.5,4.6-14.3,10.8-18.6.7-.5,1.6-.3,2.1.4.1.1.2.3.2.5.9,4,.2,8.2-2,11.7h0Z"/></g></svg>