<?xml version="1.0" encoding="utf-8"?>
<!-- Generator: Adobe Illustrator 27.1.1, SVG Export Plug-In . SVG Version: 6.00 Build 0)  -->
<svg version="1.1" id="Layer_2_00000041978990162661699840000012073381164015678625_"
	 xmlns="http://www.w3.org/2000/svg" xmlns:xlink="http://www.w3.org/1999/xlink" x="0px" y="0px" viewBox="0 0 384.4 275.6"
	 style="enable-background:new 0 0 384.4 275.6;" xml:space="preserve">
<style type="text/css">
	.st0{fill-rule:evenodd;clip-rule:evenodd;fill:#38BDF8;}
</style>
<g id="Layer_1-2">
	<g>
		<path d="M16,240.7v31.8H6.6v-31.8h-4V232h4v-14.9H16V232h7.3v8.7H16z"/>
		<path d="M57.4,232h9.4v40.5h-9.4v-4.2c-3.9,3.6-8,5.4-12.5,5.4c-5.6,0-10.2-2-13.9-6.1c-3.6-4.1-5.5-9.3-5.5-15.5
			c0-6.2,1.8-11.1,5.5-15.2s8.2-6.1,13.7-6.1c4.7,0,9,1.9,12.7,5.8V232L57.4,232z M35.1,252.1c0,3.9,1,7,3.1,9.5
			c2.1,2.5,4.8,3.7,8.1,3.7c3.5,0,6.3-1.2,8.4-3.6c2.1-2.5,3.2-5.6,3.2-9.4s-1.1-6.9-3.2-9.4c-2.1-2.4-4.9-3.6-8.3-3.6
			c-3.2,0-5.9,1.2-8.1,3.7C36.2,245.4,35.1,248.5,35.1,252.1L35.1,252.1z"/>
		<path d="M74.3,215.1c0-1.6,0.6-3.1,1.8-4.2s2.6-1.8,4.3-1.8s3.1,0.6,4.3,1.8c1.2,1.2,1.8,2.6,1.8,4.3s-0.6,3.1-1.8,4.3
			c-1.2,1.2-2.6,1.8-4.3,1.8s-3.1-0.6-4.3-1.8S74.3,216.8,74.3,215.1z M85.1,232v40.6h-9.4V232H85.1z"/>
		<path d="M103.4,202.2v70.3H94v-70.3H103.4z"/>
		<path d="M117.4,232l10.6,23.1l11.4-26.9l11.5,26.9l10.5-23.1H172l-21.2,43.6l-11.3-26.1l-11.4,26.1L106.9,232
			C106.9,232,117.4,232,117.4,232z"/>
		<path d="M174,215.1c0-1.6,0.6-3.1,1.8-4.2s2.6-1.8,4.3-1.8s3.1,0.6,4.3,1.8c1.2,1.2,1.8,2.6,1.8,4.3s-0.6,3.1-1.8,4.3
			c-1.2,1.2-2.6,1.8-4.3,1.8s-3.1-0.6-4.3-1.8S174,216.8,174,215.1z M184.8,232v40.6h-9.4V232H184.8z"/>
		<path d="M193.8,232h9.4v3.8c3.3-3.2,7-4.9,11.1-4.9c4.7,0,8.4,1.5,11,4.5c2.3,2.5,3.4,6.6,3.4,12.4v24.9h-9.4v-22.6
			c0-4-0.6-6.8-1.7-8.3c-1.1-1.6-3.1-2.3-5.9-2.3c-3.1,0-5.3,1-6.6,3.1c-1.3,2-1.9,5.6-1.9,10.6v19.6h-9.4L193.8,232L193.8,232z"/>
		<path d="M267.6,202.2h9.4v70.3h-9.4v-4.2c-3.7,3.6-7.9,5.4-12.5,5.4c-5.6,0-10.2-2-13.8-6.1c-3.6-4.1-5.4-9.3-5.4-15.5
			s1.8-11.1,5.4-15.2c3.6-4.1,8.1-6.1,13.6-6.1c4.8,0,9,1.9,12.7,5.8L267.6,202.2L267.6,202.2z M245.3,252.1c0,3.9,1,7.1,3.1,9.5
			c2.1,2.5,4.8,3.7,8.1,3.7c3.5,0,6.3-1.2,8.4-3.6c2.1-2.5,3.2-5.6,3.2-9.4c0-3.8-1.1-6.9-3.2-9.4c-2.1-2.4-4.9-3.6-8.3-3.6
			c-3.2,0-5.9,1.2-8.1,3.7C246.4,245.4,245.3,248.5,245.3,252.1L245.3,252.1z"/>
		<path d="M317.4,233.7v12.4c-2.1-2.6-4-4.4-5.8-5.4c-1.7-1-3.6-1.5-5.9-1.5c-3.5,0-6.5,1.2-8.8,3.7s-3.5,5.6-3.5,9.3
			s1.1,6.9,3.4,9.4c2.3,2.4,5.2,3.7,8.7,3.7c2.2,0,4.2-0.5,6-1.5c1.7-0.9,3.6-2.8,5.9-5.5v12.4c-3.8,2-7.6,3-11.4,3
			c-6.3,0-11.5-2-15.7-6.1c-4.2-4.1-6.3-9.1-6.3-15.2c0-6.1,2.1-11.2,6.4-15.3s9.5-6.2,15.7-6.2
			C310.1,230.9,313.9,231.8,317.4,233.7L317.4,233.7z"/>
		<path d="M347.2,238.9l-7.7,4.1c-1.2-2.5-2.7-3.8-4.5-3.8c-0.9,0-1.6,0.3-2.2,0.9s-0.9,1.3-0.9,2.2c0,1.6,1.8,3.1,5.4,4.6
			c5,2.1,8.3,4.1,10,5.9s2.6,4.2,2.6,7.3c0,3.9-1.4,7.2-4.3,9.8c-2.8,2.5-6.2,3.8-10.2,3.8c-6.8,0-11.6-3.3-14.5-10l8-3.7
			c1.1,1.9,2,3.2,2.5,3.7c1.1,1.1,2.5,1.6,4.1,1.6c3.2,0,4.8-1.4,4.8-4.3c0-1.7-1.2-3.2-3.7-4.7c-0.9-0.5-1.9-0.9-2.8-1.4
			s-1.9-0.9-2.9-1.4c-2.7-1.3-4.6-2.7-5.8-4c-1.4-1.7-2.1-3.9-2.1-6.5c0-3.5,1.2-6.4,3.6-8.7c2.5-2.3,5.5-3.5,9-3.5
			C340.8,230.9,344.6,233.5,347.2,238.9L347.2,238.9z"/>
		<path d="M378.9,238.9l-7.7,4.1c-1.2-2.5-2.7-3.8-4.5-3.8c-0.9,0-1.6,0.3-2.2,0.9s-0.9,1.3-0.9,2.2c0,1.6,1.8,3.1,5.4,4.6
			c5,2.1,8.3,4.1,10,5.9s2.6,4.2,2.6,7.3c0,3.9-1.4,7.2-4.3,9.8c-2.8,2.5-6.2,3.8-10.2,3.8c-6.8,0-11.6-3.3-14.5-10l8-3.7
			c1.1,1.9,2,3.2,2.5,3.7c1.1,1.1,2.5,1.6,4.1,1.6c3.2,0,4.8-1.4,4.8-4.3c0-1.7-1.2-3.2-3.7-4.7c-0.9-0.5-1.9-0.9-2.8-1.4
			s-1.9-0.9-2.9-1.4c-2.7-1.3-4.6-2.7-5.8-4c-1.4-1.7-2.1-3.9-2.1-6.5c0-3.5,1.2-6.4,3.6-8.7c2.5-2.3,5.5-3.5,9-3.5
			C372.5,230.9,376.3,233.5,378.9,238.9L378.9,238.9z"/>
	</g>
	<g>
		<path class="st0" d="M193.5,1.2c-40.5,0-65.9,20.3-76,60.8c15.2-20.3,33-27.9,53.2-22.8c11.6,2.9,19.8,11.3,29,20.6
			c14.9,15.1,32.2,32.7,69.9,32.7c40.5,0,65.9-20.3,76-60.8c-15.2,20.3-33,27.9-53.2,22.8c-11.6-2.9-19.8-11.3-29-20.6
			C248.4,18.7,231.2,1.2,193.5,1.2z"/>
		<path class="st0" d="M117.4,92.5c-40.5,0-65.9,20.3-76,60.8c15.2-20.3,33-27.9,53.2-22.8c11.6,2.9,19.8,11.3,29,20.6
			c14.9,15.1,32.2,32.7,69.9,32.7c40.5,0,65.9-20.3,76-60.8c-15.2,20.3-33,27.9-53.2,22.8c-11.6-2.9-19.8-11.3-29-20.6
			C172.4,110,155.1,92.5,117.4,92.5z"/>
	</g>
</g>
</svg>
