<?xml version="1.0" encoding="UTF-8"?><svg id="Layer_2" xmlns="http://www.w3.org/2000/svg" viewBox="0 0 378.92 234.77"><defs><style>.cls-1{fill:#38bdf8;fill-rule:evenodd;}</style></defs><g id="Layer_1-2"><g><path d="m13.37,199.92v31.81H4v-31.81H0v-8.74h4v-14.86h9.37v14.86h7.29v8.74h-7.29Z"/><path d="m54.77,191.18h9.41v40.55h-9.41v-4.25c-3.86,3.61-8.01,5.41-12.45,5.41-5.61,0-10.24-2.03-13.91-6.08-3.64-4.14-5.45-9.3-5.45-15.49s1.82-11.14,5.45-15.2,8.19-6.08,13.66-6.08c4.72,0,8.95,1.94,12.7,5.83v-4.7Zm-22.23,20.15c0,3.89,1.04,7.05,3.12,9.49,2.14,2.47,4.83,3.71,8.08,3.71,3.47,0,6.27-1.19,8.41-3.58,2.14-2.47,3.21-5.61,3.21-9.41s-1.07-6.94-3.21-9.41c-2.14-2.41-4.91-3.62-8.33-3.62-3.22,0-5.91,1.22-8.08,3.66-2.14,2.47-3.21,5.52-3.21,9.16Z"/><path d="m71.69,174.32c0-1.64.6-3.05,1.79-4.25s2.62-1.79,4.29-1.79,3.14.6,4.33,1.79c1.19,1.17,1.79,2.6,1.79,4.29s-.6,3.14-1.79,4.33c-1.17,1.19-2.6,1.79-4.29,1.79s-3.14-.6-4.33-1.79-1.79-2.65-1.79-4.37Zm10.78,16.86v40.55h-9.37v-40.55h9.37Z"/><path d="m100.81,161.41v70.32h-9.37v-70.32h9.37Z"/><path d="m114.85,191.18l10.62,23.15,11.45-26.86,11.53,26.86,10.49-23.15h10.49l-21.23,43.59-11.28-26.11-11.41,26.11-21.19-43.59h10.53Z"/><path d="m171.45,174.32c0-1.64.6-3.05,1.79-4.25s2.62-1.79,4.29-1.79,3.14.6,4.33,1.79c1.19,1.17,1.79,2.6,1.79,4.29s-.6,3.14-1.79,4.33c-1.17,1.19-2.6,1.79-4.29,1.79s-3.14-.6-4.33-1.79-1.79-2.65-1.79-4.37Zm10.78,16.86v40.55h-9.37v-40.55h9.37Z"/><path d="m191.2,191.18h9.41v3.75c3.28-3.25,6.97-4.87,11.08-4.87,4.72,0,8.4,1.49,11.03,4.46,2.28,2.53,3.41,6.65,3.41,12.37v24.86h-9.41v-22.65c0-4-.56-6.76-1.67-8.29-1.08-1.55-3.05-2.33-5.91-2.33-3.11,0-5.32,1.03-6.62,3.08-1.28,2.03-1.92,5.57-1.92,10.62v19.57h-9.41v-40.55Z"/><path d="m264.96,161.41h9.41v70.32h-9.41v-4.25c-3.69,3.61-7.87,5.41-12.53,5.41-5.55,0-10.16-2.03-13.82-6.08-3.64-4.14-5.45-9.3-5.45-15.49s1.82-11.1,5.45-15.16c3.61-4.08,8.15-6.12,13.62-6.12,4.75,0,8.99,1.94,12.74,5.83v-34.47Zm-22.23,49.92c0,3.89,1.04,7.05,3.12,9.49,2.14,2.47,4.83,3.71,8.08,3.71,3.47,0,6.27-1.19,8.41-3.58,2.14-2.47,3.21-5.61,3.21-9.41s-1.07-6.94-3.21-9.41c-2.14-2.41-4.91-3.62-8.33-3.62-3.22,0-5.91,1.22-8.08,3.66-2.14,2.47-3.21,5.52-3.21,9.16Z"/><path d="m314.85,192.93v12.45c-2.14-2.61-4.05-4.4-5.75-5.37-1.67-1-3.62-1.5-5.87-1.5-3.53,0-6.45,1.24-8.79,3.71s-3.5,5.57-3.5,9.28,1.12,6.93,3.37,9.37c2.28,2.44,5.18,3.66,8.7,3.66,2.25,0,4.23-.49,5.95-1.46,1.67-.94,3.62-2.78,5.87-5.5v12.37c-3.8,1.97-7.61,2.96-11.41,2.96-6.27,0-11.52-2.03-15.74-6.08-4.22-4.08-6.33-9.15-6.33-15.2s2.14-11.16,6.41-15.32,9.52-6.25,15.74-6.25c4,0,7.77.96,11.33,2.87Z"/><path d="m344.59,198.09l-7.74,4.12c-1.22-2.5-2.73-3.75-4.54-3.75-.86,0-1.6.28-2.21.85s-.92,1.3-.92,2.19c0,1.55,1.8,3.09,5.41,4.62,4.97,2.14,8.31,4.11,10.03,5.91s2.58,4.23,2.58,7.29c0,3.91-1.44,7.19-4.33,9.83-2.8,2.5-6.19,3.75-10.16,3.75-6.8,0-11.62-3.32-14.45-9.95l7.99-3.71c1.11,1.94,1.96,3.18,2.54,3.71,1.14,1.05,2.5,1.58,4.08,1.58,3.16,0,4.75-1.44,4.75-4.33,0-1.67-1.22-3.22-3.66-4.66-.94-.47-1.89-.93-2.83-1.37s-1.9-.9-2.87-1.37c-2.72-1.33-4.64-2.66-5.75-4-1.42-1.69-2.12-3.87-2.12-6.54,0-3.53,1.21-6.44,3.62-8.74,2.47-2.3,5.47-3.46,8.99-3.46,5.19,0,9.05,2.68,11.57,8.04Z"/><path d="m376.29,198.09l-7.74,4.12c-1.22-2.5-2.73-3.75-4.54-3.75-.86,0-1.6.28-2.21.85s-.92,1.3-.92,2.19c0,1.55,1.8,3.09,5.41,4.62,4.97,2.14,8.31,4.11,10.03,5.91s2.58,4.23,2.58,7.29c0,3.91-1.44,7.19-4.33,9.83-2.8,2.5-6.19,3.75-10.16,3.75-6.8,0-11.62-3.32-14.45-9.95l7.99-3.71c1.11,1.94,1.96,3.18,2.54,3.71,1.14,1.05,2.5,1.58,4.08,1.58,3.16,0,4.75-1.44,4.75-4.33,0-1.67-1.22-3.22-3.66-4.66-.94-.47-1.89-.93-2.83-1.37s-1.9-.9-2.87-1.37c-2.72-1.33-4.64-2.66-5.75-4-1.42-1.69-2.12-3.87-2.12-6.54,0-3.53,1.21-6.44,3.62-8.74,2.47-2.3,5.47-3.46,8.99-3.46,5.19,0,9.05,2.68,11.57,8.04Z"/></g><g><path class="cls-1" d="m188.35,0c-31.19,0-50.69,15.6-58.49,46.79,11.7-15.6,25.35-21.45,40.94-17.55,8.9,2.22,15.26,8.68,22.3,15.83,11.47,11.64,24.74,25.12,53.74,25.12,31.19,0,50.69-15.6,58.49-46.79-11.7,15.6-25.35,21.45-40.94,17.55-8.9-2.22-15.26-8.68-22.3-15.83C230.62,13.47,217.35,0,188.35,0Z"/><path class="cls-1" d="m129.87,70.19c-31.19,0-50.69,15.6-58.49,46.79,11.7-15.6,25.35-21.45,40.94-17.55,8.9,2.23,15.26,8.68,22.3,15.83,11.47,11.64,24.74,25.12,53.74,25.12,31.19,0,50.69-15.6,58.49-46.79-11.7,15.6-25.35,21.45-40.94,17.55-8.9-2.22-15.26-8.68-22.3-15.83-11.47-11.64-24.74-25.12-53.74-25.12Z"/></g></g></svg>